<?xml version="1.0" encoding="UTF-8" standalone="no"?>
<!-- Created with Inkscape (http://www.inkscape.org/) -->

<svg
   xmlns:dc="http://purl.org/dc/elements/1.1/"
   xmlns:cc="http://creativecommons.org/ns#"
   xmlns:rdf="http://www.w3.org/1999/02/22-rdf-syntax-ns#"
   xmlns:svg="http://www.w3.org/2000/svg"
   xmlns="http://www.w3.org/2000/svg"
   xmlns:sodipodi="http://sodipodi.sourceforge.net/DTD/sodipodi-0.dtd"
   xmlns:inkscape="http://www.inkscape.org/namespaces/inkscape"
   width="1052.3622"
   height="744.09448"
   id="svg2"
   version="1.1"
   inkscape:version="0.48.2 r9819"
   sodipodi:docname="Journey_02_BCs.svg"
   inkscape:export-filename="D:\CQRS Resources\Source Code\cqrs-journey-doc\images\Journey_02_BCs.png"
   inkscape:export-xdpi="90"
   inkscape:export-ydpi="90">
  <title
     id="title3798">Bounded Contexts</title>
  <defs
     id="defs4" />
  <sodipodi:namedview
     id="base"
     pagecolor="#ffffff"
     bordercolor="#666666"
     borderopacity="1.0"
     inkscape:pageopacity="0.0"
     inkscape:pageshadow="2"
     inkscape:zoom="1.0334709"
     inkscape:cx="440.0238"
     inkscape:cy="373.01486"
     inkscape:document-units="px"
     inkscape:current-layer="layer2"
     showgrid="false"
     inkscape:window-width="1600"
     inkscape:window-height="1178"
     inkscape:window-x="3512"
     inkscape:window-y="-8"
     inkscape:window-maximized="1" />
  <metadata
     id="metadata7">
    <rdf:RDF>
      <cc:Work
         rdf:about="">
        <dc:format>image/svg+xml</dc:format>
        <dc:type
           rdf:resource="http://purl.org/dc/dcmitype/StillImage" />
        <dc:title>Bounded Contexts</dc:title>
      </cc:Work>
    </rdf:RDF>
  </metadata>
  <g
     inkscape:label="Template"
     inkscape:groupmode="layer"
     id="layer1"
     transform="translate(0,-308.2677)"
     style="display:none">
    <rect
       style="fill:none;stroke:#800000;stroke-width:1px;stroke-linecap:butt;stroke-linejoin:miter;stroke-opacity:1"
       id="rect3754"
       width="965.67786"
       height="629.91614"
       x="38.704525"
       y="48.380657"
       transform="translate(0,308.2677)" />
    <path
       style="fill:none;stroke:#800000;stroke-width:1px;stroke-linecap:butt;stroke-linejoin:miter;stroke-opacity:1"
       d="M 37.736911,360.91969 1004.3824,355.11401"
       id="path3756"
       inkscape:connector-curvature="0"
       transform="translate(0,308.2677)" />
    <path
       style="fill:none;stroke:#800000;stroke-width:1px;stroke-linecap:butt;stroke-linejoin:miter;stroke-opacity:1"
       d="m 341.56743,360.91969 1.93522,317.3771"
       id="path3758"
       inkscape:connector-curvature="0"
       transform="translate(0,308.2677)" />
    <path
       style="fill:none;stroke:#800000;stroke-width:1px;stroke-linecap:butt;stroke-linejoin:miter;stroke-opacity:1"
       d="m 708.2928,357.04924 0.96761,322.21516"
       id="path3760"
       inkscape:connector-curvature="0"
       transform="translate(0,308.2677)" />
    <rect
       style="fill:none;stroke:#000000"
       id="rect5412"
       width="217.71295"
       height="137.40106"
       x="385.11002"
       y="51.283489"
       transform="translate(0,308.2677)" />
    <path
       style="fill:none;stroke:#000000;stroke-width:1px;stroke-linecap:butt;stroke-linejoin:miter;stroke-opacity:1"
       d="m 494.4503,190.61978 0,167.39707"
       id="path5414"
       inkscape:connector-curvature="0"
       transform="translate(0,308.2677)" />
  </g>
  <g
     inkscape:groupmode="layer"
     id="layer2"
     inkscape:label="Drawing"
     style="display:inline">
    <path
       style="fill:#000000;stroke:none"
       d="M 1001.3438 43.46875 L 997.96875 45.25 C 998.06514 46.16955 998.19102 47.084883 998.3125 48 C 997.73527 48.088352 997.16851 48.174794 996.59375 48.28125 C 993.66511 48.843701 990.74902 49.44975 987.75 49.375 C 984.41463 49.607224 981.11862 49.983688 977.78125 50.1875 C 974.88282 50.18358 971.95994 50.21555 969.0625 50.125 C 965.29603 49.963891 961.56499 49.5864 957.84375 48.96875 C 951.70484 48.058616 945.56158 47.33236 939.34375 47.28125 C 935.73848 47.27087 932.13654 47.247 928.53125 47.25 C 925.4775 47.2552 922.42875 47.27895 919.375 47.28125 C 916.1471 47.2805 912.91473 47.29411 909.6875 47.21875 C 906.69055 47.119921 903.70063 46.915731 900.71875 46.59375 C 896.7127 46.227005 892.67728 46.27984 888.65625 46.3125 C 883.4948 46.3192 878.34896 46.3106 873.1875 46.3125 C 865.93054 46.32173 858.66322 46.344167 851.40625 46.34375 C 843.49509 46.351282 835.59636 46.310253 827.6875 46.53125 C 821.79727 46.786738 815.934 47.287588 810.0625 47.8125 C 804.79849 48.093117 799.52458 48.390942 794.25 48.25 C 788.52203 48.257491 782.79047 48.26511 777.0625 48.25 C 770.87309 48.24918 764.68938 48.26282 758.5 48.28125 C 747.18899 48.304449 735.87353 48.33484 724.5625 48.3125 C 716.2717 48.28219 707.97835 48.22879 699.6875 48.25 C 690.14897 48.26402 680.63228 48.27045 671.09375 48.28125 C 665.75138 48.30144 660.38707 48.290002 655.0625 48.78125 C 650.44913 49.241243 645.82061 49.568846 641.1875 49.75 C 635.72431 50.118577 630.29082 50.334771 624.8125 50.09375 C 614.96772 49.936812 605.12376 49.664387 595.28125 49.40625 C 581.25275 49.161556 567.21758 49.33419 553.1875 49.28125 C 539.82663 49.27362 526.4546 49.26596 513.09375 49.25 C 504.04539 49.23481 495.01712 49.2579 485.96875 49.25 C 478.75611 49.238665 471.52182 49.245622 464.3125 49 C 456.62192 48.658846 448.94604 48.068557 441.25 47.84375 C 426.10206 47.631786 410.94899 47.675237 395.8125 48.40625 C 386.71461 48.82588 377.64355 49.416874 368.53125 49.21875 C 363.25371 49.22545 357.96502 49.24016 352.6875 49.21875 C 342.15711 49.152356 331.61827 48.999885 321.09375 48.625 C 307.96321 48.128095 294.83757 47.649644 281.71875 46.90625 C 280.03624 46.795706 274.00991 46.39915 272.1875 46.34375 C 267.08789 46.188735 261.97561 46.460679 256.875 46.34375 C 249.01231 46.34255 241.14394 46.33565 233.28125 46.34375 C 224.73302 46.33944 216.17323 46.34765 207.625 46.34375 C 199.64105 46.33934 191.67145 46.3113 183.6875 46.3125 C 176.63221 46.30891 169.55529 46.34175 162.5 46.34375 C 154.09253 46.336429 145.68872 46.34005 137.28125 46.34375 C 130.36625 46.360168 123.47463 46.372812 116.5625 46.59375 C 107.9004 46.883332 99.232345 47.40685 90.5625 47.3125 C 80.358163 47.269495 70.138572 47.225657 59.9375 46.9375 C 53.964661 46.742478 48.00604 46.33779 42.03125 46.28125 L 38.9375 48.53125 C 44.962923 48.503791 50.976944 48.890083 57 49.0625 C 67.20675 49.316169 77.415463 49.40179 87.625 49.4375 C 96.278429 49.529148 104.91606 49.060388 113.5625 48.78125 C 120.47264 48.567782 127.39969 48.52722 134.3125 48.5 C 142.73154 48.47442 151.14343 48.47175 159.5625 48.46875 C 166.59926 48.47474 173.65073 48.5024 180.6875 48.5 C 188.69573 48.50209 196.67928 48.47315 204.6875 48.46875 C 213.22209 48.46486 221.77792 48.5043 230.3125 48.5 C 238.17936 48.50811 246.0394 48.5012 253.90625 48.5 C 262.20948 48.383337 270.49429 48.517023 278.78125 49.03125 C 291.92538 49.725393 305.06662 50.160486 318.21875 50.6875 C 328.70477 51.030171 339.19665 51.253324 349.6875 51.375 C 354.95077 51.43292 360.23652 51.4394 365.5 51.4375 C 374.67777 51.607633 383.80767 50.918128 392.96875 50.46875 C 408.0933 49.67706 423.23755 49.670049 438.375 49.9375 C 446.01883 50.182143 453.6439 50.818555 461.28125 51.1875 C 468.51956 51.448549 475.75829 51.39795 483 51.40625 C 492.05448 51.40874 501.13304 51.39562 510.1875 51.375 C 523.58603 51.3523 536.97645 51.35205 550.375 51.34375 C 564.38734 51.413792 578.3956 51.216941 592.40625 51.46875 C 602.20767 51.740863 612.00956 52.036764 621.8125 52.25 C 627.27996 52.482061 632.73338 52.336603 638.1875 51.96875 C 642.81449 51.761991 647.42085 51.474984 652.03125 51.03125 C 657.37535 50.518355 662.76166 50.53048 668.125 50.46875 C 677.6652 50.39635 687.17837 50.38689 696.71875 50.40625 C 705.03494 50.43556 713.37135 50.43482 721.6875 50.40625 C 732.97617 50.38545 744.27387 50.38288 755.5625 50.40625 C 761.73167 50.42475 767.89331 50.438355 774.0625 50.4375 C 779.7831 50.42234 785.49815 50.43 791.21875 50.4375 C 796.50681 50.573601 801.78531 50.286969 807.0625 50 C 812.92977 49.481743 818.80287 48.987706 824.6875 48.71875 C 832.61943 48.46221 840.53352 48.47855 848.46875 48.46875 C 855.69679 48.46034 862.92824 48.482 870.15625 48.5 C 875.31593 48.5081 880.49657 48.4925 885.65625 48.5 C 889.6591 48.489762 893.63528 48.430716 897.625 48.78125 C 900.6055 49.099127 903.59855 49.329227 906.59375 49.4375 C 909.82779 49.51043 913.07783 49.499064 916.3125 49.5 C 919.36235 49.499864 922.38765 49.4979 925.4375 49.5 C 929.06003 49.50001 932.68999 49.47925 936.3125 49.46875 C 942.52139 49.487117 948.65411 50.195815 954.78125 51.125 C 958.4903 51.761012 962.24359 52.156027 966 52.34375 C 968.90457 52.44954 971.81281 52.41771 974.71875 52.40625 C 978.05643 52.230681 981.35371 51.857557 984.6875 51.625 C 987.69517 51.670809 990.62219 51.125876 993.5625 50.5625 C 995.21893 50.245612 996.88716 50.044383 998.5625 49.875 C 998.75357 51.181236 998.94777 52.475825 999.15625 53.78125 C 999.62077 56.518849 999.6906 59.293102 999.75 62.0625 C 1000.139 66.041696 1000.7893 70.021033 1001.4375 73.96875 C 1002.1825 78.565942 1002.6267 83.207025 1003.3125 87.8125 C 1004.0902 92.212988 1004.3756 96.666429 1004.5312 101.125 C 1004.683 107.19224 1004.6662 113.24385 1004.6562 119.3125 C 1004.7663 124.40218 1004.6205 129.49476 1003.6562 134.5 C 1002.4359 139.46074 1000.9339 144.32509 999.6875 149.28125 C 998.64258 153.30958 997.60176 157.35322 996.65625 161.40625 C 995.75184 164.40663 995.47764 167.52962 994.71875 170.5625 C 992.97519 176.36331 992.27861 182.39779 991.71875 188.40625 C 991.18076 194.87121 991.10995 201.36073 991.09375 207.84375 C 991.09175 214.93392 991.09875 222.00359 991.09375 229.09375 C 991.03114 234.81821 991.03008 240.52378 991.65625 246.21875 C 992.23091 251.45958 992.80712 256.69688 993.625 261.90625 C 994.5058 267.43986 995.18978 273.00322 996.28125 278.5 C 997.4709 284.16309 998.4477 289.89065 999.59375 295.5625 C 1000.6295 301.56067 1001.8628 307.50355 1002.9062 313.5 C 1003.6663 319.16406 1004.6365 324.81088 1005.4375 330.46875 C 1006.1873 337.10118 1007.1858 343.69241 1008.2188 350.28125 C 1008.0371 350.29273 1008.0706 350.28837 1007.6875 350.3125 C 1004.209 350.59957 1000.7501 351.0488 997.3125 351.65625 C 994.70443 351.9867 992.11378 352.43059 989.5 352.71875 C 986.80967 353.06504 984.11676 353.0483 981.40625 353 C 978.00545 352.99808 974.58609 353.02347 971.1875 353.15625 C 966.74232 353.35695 962.29811 353.67485 957.96875 354.78125 C 954.3097 355.72632 950.83152 356.3016 947.03125 356.3125 C 939.96775 356.76397 932.89437 357.10075 925.8125 356.9375 C 916.14 356.94913 906.45304 356.93286 896.78125 357.0625 C 892.79121 357.18449 888.77972 357.22878 884.84375 357.96875 C 881.40112 358.23215 878.03842 358.919 874.65625 359.59375 C 866.87583 361.00769 858.98161 361.45401 851.09375 361.90625 C 840.52135 362.50756 829.93748 362.96934 819.34375 362.78125 C 810.11152 362.78395 800.88843 362.7942 791.65625 362.75 C 780.43974 362.67218 769.19713 362.5312 758 361.8125 C 747.80171 361.04371 737.63367 359.87725 727.5 358.5 C 719.01712 357.30959 710.55104 356.24481 702 355.6875 C 693.78726 354.80827 685.55036 354.0264 677.40625 352.625 C 673.61885 351.94487 669.8039 351.23451 665.96875 350.875 C 661.33734 350.44085 656.67253 350.54055 652.03125 350.3125 C 640.86226 350.07858 629.67091 350.24275 618.5 350.21875 C 608.40068 350.28275 598.31421 350.41962 588.21875 350.71875 C 577.04887 351.02689 565.89388 351.23175 554.71875 351.15625 C 542.94603 351.24934 531.16227 351.4077 519.40625 352.09375 C 506.78023 352.87037 494.17377 353.92477 481.5625 354.90625 C 469.74462 355.41299 457.91357 355.78858 446.09375 356.25 C 435.0994 356.53798 424.11535 357.04981 413.15625 358 C 403.22768 358.58346 393.32473 359.14586 383.375 358.625 C 374.69396 358.40155 365.997 357.91525 357.3125 357.90625 C 348.32853 357.90635 339.35888 357.8892 330.375 357.9375 C 321.16611 358.00427 311.94705 358.07725 302.75 358.59375 C 292.98448 359.16605 283.22412 359.8033 273.4375 359.875 C 263.11906 359.8627 252.81845 359.867 242.5 359.875 C 231.16739 359.885 219.8326 359.8942 208.5 359.875 C 198.39504 359.87338 188.29148 359.87819 178.1875 359.71875 C 168.86739 359.52896 159.54525 359.20708 150.25 358.46875 C 140.46035 357.84652 130.65115 357.7468 120.84375 357.6875 C 109.01935 357.50765 97.197912 357.07695 85.375 357.4375 C 75.673033 357.87005 65.962253 358.56397 56.25 358.75 C 49.971128 358.8924 43.686516 358.88135 37.40625 358.84375 L 34.34375 361.0625 C 40.67621 361.03128 46.981908 361.07641 53.3125 360.90625 C 63.026339 360.70827 72.733653 360.02826 82.4375 359.59375 C 94.273278 359.17986 106.13111 359.58271 117.96875 359.78125 C 127.75268 359.88209 137.51379 359.98756 147.28125 360.59375 C 156.57985 361.33001 165.89538 361.64904 175.21875 361.84375 C 185.32804 361.98221 195.45247 361.995 205.5625 362 C 216.90195 361.9766 228.25428 361.96475 239.59375 361.96875 C 249.91287 361.97175 260.21212 361.98125 270.53125 361.96875 C 280.3056 361.90327 290.05838 361.34507 299.8125 360.78125 C 309.01227 360.25869 318.22551 360.16565 327.4375 360.09375 C 336.41185 360.04505 345.40056 360.0555 354.375 360.0625 C 363.0649 360.06495 371.75092 360.53397 380.4375 360.75 C 390.40104 361.25657 400.30781 360.75455 410.25 360.15625 C 421.21319 359.2113 432.22107 358.64745 443.21875 358.34375 C 455.04267 357.87379 466.86529 357.54112 478.6875 357.03125 C 491.3079 356.06349 503.92848 354.96593 516.5625 354.1875 C 528.30212 353.50463 540.05629 353.36525 551.8125 353.28125 C 562.99435 353.37374 574.1672 353.1119 585.34375 352.8125 C 595.42202 352.52694 605.48074 352.40755 615.5625 352.34375 C 626.7423 352.32885 637.94704 352.16521 649.125 352.40625 C 653.74716 352.63814 658.38761 352.57048 663 353 C 666.82103 353.35582 670.60128 354.04434 674.375 354.71875 C 682.52972 356.13323 690.77662 356.91713 699 357.8125 C 707.55017 358.41248 716.04346 359.41424 724.53125 360.59375 C 734.68332 361.96815 744.8761 363.1548 755.09375 363.90625 C 766.28731 364.61988 777.50614 364.77342 788.71875 364.875 C 797.94423 364.9295 807.18067 364.91995 816.40625 364.90625 C 827.01344 365.05317 837.60077 364.63496 848.1875 364.03125 C 856.0441 363.58031 863.92811 363.2022 871.6875 361.84375 C 875.04402 361.19486 878.37221 360.51174 881.78125 360.21875 C 885.7431 359.51527 889.7691 359.414 893.78125 359.28125 C 903.4836 359.0658 913.20198 359.0655 922.90625 359.0625 C 929.94998 359.23652 936.97109 358.94163 944 358.53125 C 947.73875 358.52041 951.35884 357.98421 954.96875 357.0625 C 959.28483 355.93049 963.74894 355.58924 968.1875 355.375 C 971.56843 355.23694 974.9294 355.24914 978.3125 355.25 C 981.02716 355.27672 983.73853 355.3178 986.4375 355 C 989.0568 354.71565 991.6708 354.28699 994.28125 353.9375 C 997.71554 353.34103 1001.1516 352.8547 1004.625 352.5625 C 1006.2784 352.45534 1005.5135 352.5133 1006.9375 352.4375 L 1008.4062 351.34375 C 1008.5505 352.26045 1008.6676 353.17671 1008.8125 354.09375 C 1010.0386 361.23098 1011.0236 368.40462 1011.5938 375.625 C 1012.3519 386.99867 1012.3727 398.38791 1012.4688 409.78125 C 1012.5845 423.11271 1011.0313 436.39536 1009.5625 449.625 C 1008.9225 456.57271 1007.7998 463.43604 1007.0938 470.375 C 1006.2763 475.38839 1005.976 480.46299 1005.7812 485.53125 C 1005.389 491.25417 1004.5521 496.93799 1004.0938 502.65625 C 1003.7707 506.89601 1003.6735 511.12469 1003.6562 515.375 C 1003.6562 519.75245 1003.6563 524.1538 1003.6562 528.53125 C 1003.5974 532.50946 1003.6422 536.47027 1003.9375 540.4375 C 1004.3539 544.60041 1004.3436 548.77178 1004.6875 552.9375 C 1005.2473 560.44807 1005.4054 568.00321 1005.5312 575.53125 C 1005.5326 583.3935 1005.6961 591.24809 1006.2188 599.09375 C 1006.736 605.49696 1007.0893 611.88532 1007.6875 618.28125 C 1008.1729 623.54426 1008.3673 628.84287 1008.4688 634.125 C 1008.5317 638.02368 1008.512 641.91347 1008.5 645.8125 C 1008.2486 648.36078 1007.8892 650.88356 1007.6875 653.4375 C 1007.2273 655.62618 1006.9026 657.83399 1006.7188 660.0625 C 1006.2409 662.60253 1005.2216 665.05096 1004.3125 667.46875 C 1003.5593 669.9124 1002.9361 672.38629 1002.3438 674.875 L 1005.7812 673.21875 C 1006.38 670.74613 1006.991 668.26161 1007.7812 665.84375 C 1008.6812 663.39253 1009.7224 660.9631 1010.125 658.375 C 1010.3187 656.14698 1010.6892 653.94799 1011.0938 651.75 C 1011.2985 649.19204 1011.679 646.65159 1011.875 644.09375 C 1011.868 640.19722 1011.8765 636.30235 1011.8125 632.40625 C 1011.6873 627.12017 1011.4727 621.83058 1011 616.5625 C 1010.4018 610.17991 1010.005 603.79475 1009.4688 597.40625 C 1008.9511 589.56148 1008.8325 581.70408 1008.8125 573.84375 C 1008.6632 566.29682 1008.4624 558.75564 1008.0312 551.21875 C 1007.6998 547.05426 1007.6934 542.84834 1007.2812 538.6875 C 1006.9956 534.72547 1006.9882 530.7842 1007.0312 526.8125 C 1007.0213 522.43831 1006.9992 518.06167 1007.0312 513.6875 C 1007.0743 509.45015 1007.1232 505.19644 1007.4375 500.96875 C 1007.8973 495.2476 1008.7308 489.56914 1009.125 483.84375 C 1009.322 478.78007 1009.6686 473.73232 1010.4375 468.71875 C 1011.1331 461.80639 1012.1748 454.95421 1012.7812 448.03125 C 1014.2071 434.79518 1015.649 421.51606 1015.625 408.1875 C 1015.5906 396.77364 1015.5511 385.33195 1014.8125 373.9375 C 1014.2909 366.69497 1013.3748 359.51781 1012.0625 352.375 C 1010.7855 344.51213 1009.5741 336.6443 1008.75 328.71875 C 1007.9647 323.0583 1006.9802 317.44085 1006.1875 311.78125 C 1005.149 305.77811 1003.9545 299.80829 1002.875 293.8125 C 1001.7477 288.13771 1000.7604 282.41065 999.5625 276.75 C 998.48814 271.25209 997.83038 265.68585 996.9375 260.15625 C 996.11165 254.95265 995.56292 249.73386 994.96875 244.5 C 994.35903 238.82162 994.33045 233.11347 994.40625 227.40625 C 994.38385 220.31961 994.37635 213.24291 994.40625 206.15625 C 994.45681 199.68331 994.49425 193.20544 995.03125 186.75 C 995.59577 180.73513 996.32906 174.72988 998.125 168.9375 C 998.86465 165.89886 999.19579 162.75386 1000.0938 159.75 C 1001.0249 155.70907 1002.0215 151.70139 1003.0625 147.6875 C 1004.3158 142.72227 1005.8456 137.82449 1007.0312 132.84375 C 1007.9556 127.81753 1008.1097 122.72828 1008 117.625 C 1007.9912 111.55057 1007.9882 105.47979 1007.875 99.40625 C 1007.7311 94.931063 1007.4246 90.476509 1006.625 86.0625 C 1005.9379 81.453327 1005.4799 76.790311 1004.75 72.1875 C 1004.1114 68.25323 1003.4532 64.314011 1003.125 60.34375 C 1003.0699 57.556506 1003.0208 54.752317 1002.5312 52 C 1002.4001 51.195377 1002.2799 50.398698 1002.1562 49.59375 C 1002.2708 49.587669 1002.3855 49.568133 1002.5 49.5625 L 1003.7812 49.4375 L 1006.8125 47.15625 L 1005.5625 47.3125 C 1004.3187 47.3658 1003.0824 47.476325 1001.8438 47.59375 C 1001.6526 46.221978 1001.4724 44.850511 1001.3438 43.46875 z M 35.5625 53.15625 L 32.15625 54.90625 C 31.821899 58.695514 31.206846 62.434544 30.8125 66.21875 C 30.321583 69.856506 30.365375 73.484354 30.6875 77.125 C 31.12895 80.902976 32.045956 84.575293 33 88.25 C 33.996385 92.348868 34.928167 96.448355 35.53125 100.625 C 36.255573 106.37533 36.626065 112.18041 36.875 117.96875 C 37.025784 121.94472 37.02605 125.92801 37.03125 129.90625 C 37.03335 134.40886 37.02305 138.90366 37.03125 143.40625 C 37.117986 148.63031 36.910773 153.83793 36.34375 159.03125 C 35.666369 163.6327 35.378931 168.29378 35.21875 172.9375 C 34.747334 177.71931 34.594323 182.52958 34.15625 187.3125 C 33.600234 192.00182 33.543828 196.7049 33.15625 201.40625 C 32.859653 205.78263 32.354405 210.14531 31.84375 214.5 C 31.519891 217.89052 31.18183 221.27922 30.53125 224.625 C 29.812748 228.16907 29.09515 231.71616 28.6875 235.3125 C 28.059038 239.16185 27.857067 243.04154 27.375 246.90625 C 26.756644 250.88584 26.612686 254.91832 26.5 258.9375 C 26.39193 264.38672 26.40235 269.83116 26.40625 275.28125 C 26.40282 281.33665 26.40295 287.41335 26.40625 293.46875 C 26.275877 300.34973 26.720422 307.22202 27 314.09375 C 27.269344 320.70366 27.3237 327.29196 27.375 333.90625 C 27.40981 341.67842 27.41555 349.47778 27.40625 357.25 C 27.416023 364.59622 27.506147 371.91813 27 379.25 C 26.336434 387.01893 26.063032 394.79588 25.0625 402.53125 C 24.372828 408.41752 23.723598 414.3191 23.15625 420.21875 C 22.678634 425.91025 22.5947 431.636 22.53125 437.34375 C 22.49103 442.68728 22.52865 448.03138 22.53125 453.375 C 22.53529 458.41478 22.53305 463.42896 22.53125 468.46875 C 22.662565 473.03297 22.233801 477.64506 22.75 482.1875 C 23.672947 486.81791 23.913708 491.5326 24.375 496.21875 C 24.937819 501.33358 25.161776 506.45255 25.3125 511.59375 C 25.608082 515.33488 26.019162 519.06424 26.21875 522.8125 C 26.398641 527.24145 26.40125 531.69312 26.40625 536.125 C 26.228481 540.49292 26.674452 544.83717 26.96875 549.1875 C 27.268863 554.48206 27.31069 559.79216 27.34375 565.09375 C 27.36413 570.01235 27.3707 574.92514 27.375 579.84375 C 27.432601 585.15145 27.259422 590.44656 27.5 595.75 C 27.900965 601.67985 28.121913 607.62123 28.25 613.5625 C 28.351274 618.94099 28.185117 624.32096 28.59375 629.6875 C 28.880722 633.05961 29.025227 636.42954 29.5 639.78125 C 29.771258 642.66771 30.362708 645.5092 30.78125 648.375 C 31.084875 650.50694 31.14982 652.66245 31.1875 654.8125 C 31.20586 657.1672 31.21575 659.52023 31.21875 661.875 C 31.15877 665.42935 31.363416 668.98453 31.09375 672.53125 C 30.983712 673.91296 30.796875 675.27318 30.5 676.625 L 33.90625 674.96875 C 34.178798 673.60268 34.36996 672.2352 34.46875 670.84375 C 34.697018 667.2864 34.52625 663.71914 34.59375 660.15625 C 34.60213 657.7948 34.62657 655.42387 34.59375 653.0625 C 34.549193 650.89953 34.444921 648.73658 34.125 646.59375 C 33.691472 643.73233 33.11572 640.91577 32.84375 638.03125 C 32.374522 634.69133 32.236242 631.32739 31.9375 627.96875 C 31.518227 622.6194 31.63118 617.23733 31.53125 611.875 C 31.4187 605.92598 31.199487 600.00047 30.8125 594.0625 C 30.594501 588.76122 30.71852 583.42971 30.6875 578.125 C 30.696 573.20818 30.71731 568.29175 30.6875 563.375 C 30.648021 558.0625 30.601179 552.77497 30.3125 547.46875 C 30.037328 543.1267 29.574336 538.76551 29.75 534.40625 C 29.738223 529.96276 29.738694 525.53455 29.5625 521.09375 C 29.356946 517.3515 28.94018 513.61127 28.65625 509.875 C 28.474616 504.73004 28.234156 499.58964 27.6875 494.46875 C 27.228389 489.7783 27.008567 485.07319 26.09375 480.4375 C 25.605836 475.90795 25.966913 471.33022 25.84375 466.78125 C 25.83941 461.74259 25.84955 456.6949 25.84375 451.65625 C 25.83755 446.31579 25.83833 440.99663 25.875 435.65625 C 25.931878 429.95666 26.008465 424.24446 26.5 418.5625 C 27.066648 412.67269 27.688785 406.78304 28.375 400.90625 C 29.335578 393.16659 29.603514 385.39261 30.28125 377.625 C 30.790313 370.28314 30.71684 362.91903 30.6875 355.5625 C 30.68258 347.78884 30.67387 340.02364 30.65625 332.25 C 30.638026 325.63053 30.568431 318.98914 30.28125 312.375 C 29.994809 305.5057 29.583789 298.66011 29.71875 291.78125 C 29.71805 285.72436 29.72545 279.65063 29.71875 273.59375 C 29.726267 268.14182 29.714163 262.70077 29.84375 257.25 C 29.971793 253.23633 30.172465 249.2249 30.78125 245.25 C 31.239596 241.38118 31.427407 237.47466 32.0625 233.625 C 32.480449 230.03562 33.214575 226.50647 33.9375 222.96875 C 34.554855 219.61304 34.90886 216.23997 35.21875 212.84375 C 35.726598 208.48821 36.18829 204.12517 36.5 199.75 C 36.876484 195.04887 36.97097 190.31287 37.53125 185.625 C 37.947326 180.83499 38.114699 176.0388 38.5625 171.25 C 38.733131 166.61402 39.032115 161.97148 39.6875 157.375 C 40.22644 152.16846 40.45971 146.92204 40.375 141.6875 C 40.38861 137.18026 40.40195 132.69475 40.40625 128.1875 C 40.401161 124.20732 40.407685 120.22679 40.21875 116.25 C 39.939833 110.44786 39.463583 104.65095 38.84375 98.875 C 38.220636 94.690697 37.283502 90.545884 36.28125 86.4375 C 35.345709 82.77626 34.489939 79.136448 34.0625 75.375 C 33.748244 71.762623 33.703175 68.171434 34.1875 64.5625 C 34.592083 60.75472 35.213498 56.969082 35.5625 53.15625 z M 392.28125 664.71875 C 389.50741 664.7367 386.71195 664.83286 383.9375 665.03125 C 373.37032 665.60063 362.85861 666.55224 352.34375 667.75 C 340.38252 668.66411 328.44302 669.72377 316.53125 671.15625 C 304.38346 672.54943 292.19012 673.69438 280.1875 676.125 C 277.31362 676.60931 274.44758 677.15019 271.5625 677.5625 C 267.06601 678.20511 262.51527 678.36755 258.03125 679.125 C 251.12548 679.97837 244.30235 681.33974 237.375 682.03125 C 230.93522 682.86767 224.46279 683.1845 217.96875 683.1875 C 210.1937 683.40151 202.4021 683.80078 194.625 683.9375 C 190.64471 683.90936 189.36474 683.99683 185.46875 683.625 C 182.23283 683.31617 179.06232 682.56529 175.84375 682.15625 C 174.87519 682.03317 173.87882 681.99205 172.90625 681.90625 C 165.49778 681.29689 158.08356 680.95884 150.65625 680.6875 C 140.21216 680.27375 129.77105 679.68855 119.34375 678.96875 C 110.28905 678.14269 101.23193 677.08457 92.15625 676.5 C 82.506249 676.40785 72.887088 676.72253 63.25 677.21875 C 56.538502 677.50092 49.793838 677.47859 43.09375 678 L 40.03125 680.28125 C 46.763304 679.62965 53.528584 679.65906 60.28125 679.375 C 69.925878 678.88254 79.592265 678.50915 89.25 678.59375 C 98.31518 679.13895 107.33167 680.29301 116.375 681.09375 C 126.81284 681.80197 137.26621 682.33785 147.71875 682.78125 C 155.11808 683.05692 162.52489 683.46841 169.90625 684.0625 C 174.12981 684.29518 178.23068 685.35495 182.4375 685.75 C 186.28972 686.11178 187.76224 686.0303 191.6875 686.0625 C 199.44619 685.94843 207.21246 685.58533 214.96875 685.375 C 221.46968 685.36726 227.95688 685.0361 234.40625 684.21875 C 241.33256 683.51958 248.15877 682.17869 255.0625 681.3125 C 259.54527 680.55695 264.09836 680.42054 268.59375 679.78125 C 268.93227 679.73311 277.22015 678.3229 277.28125 678.3125 C 289.30264 675.848 301.51285 674.63115 313.6875 673.25 C 325.58789 671.82777 337.51983 670.78703 349.46875 669.875 C 359.96657 668.70032 370.48179 667.73244 381.03125 667.1875 C 388.41246 666.68113 395.77546 666.92516 403.15625 667.21875 C 410.36454 667.51403 417.56769 667.64025 424.78125 667.71875 C 432.39316 667.66156 439.97292 668.43563 447.5625 668.90625 C 455.70483 669.40024 463.86788 669.82324 472 670.46875 C 478.11575 670.986 484.18617 671.8461 490.25 672.78125 C 499.54219 673.97901 508.90115 674.6755 518.25 675.25 C 535.32419 676.24255 552.3984 677.3654 569.46875 678.4375 C 582.76807 679.34791 596.07969 679.93477 609.40625 680.21875 C 620.74543 680.83577 632.07238 681.64265 643.40625 682.34375 C 653.92615 683.06647 664.46462 683.04655 675 683.3125 C 688.37504 683.82907 701.74314 684.41011 715.125 684.75 C 726.5084 685.03226 737.89483 685.1498 749.28125 685.1875 C 758.56618 684.99525 767.85375 684.66273 777.125 684.125 C 784.18745 684.04361 791.15345 682.91924 798.15625 682.15625 C 804.53672 681.51775 810.96821 681.42115 817.375 681.34375 C 822.55726 681.21778 827.7083 681.62401 832.84375 682.28125 C 836.07945 682.7472 839.36076 683.05649 842.625 683.21875 C 845.24417 683.30775 847.84836 683.3145 850.46875 683.3125 C 853.41817 683.3037 856.36307 683.28525 859.3125 683.28125 C 863.32114 683.27025 867.33509 683.27725 871.34375 683.28125 C 874.81494 683.31201 878.27827 682.90224 881.71875 682.46875 C 886.27346 682.05863 890.77841 681.37978 895.28125 680.59375 C 899.30744 680.01203 903.32469 679.4133 907.34375 678.78125 C 911.85177 678.08637 916.41511 677.77693 920.96875 677.59375 C 925.21726 677.54539 929.43617 677.42964 933.65625 676.90625 C 937.72271 676.2182 941.82209 675.89046 945.9375 675.6875 C 949.07037 675.5511 952.20849 675.53225 955.34375 675.53125 C 958.35452 675.53025 961.36424 675.52725 964.375 675.53125 C 967.64985 675.52825 970.9439 675.52825 974.21875 675.53125 C 976.69681 675.60338 979.18623 675.42107 981.65625 675.65625 C 984.57072 676.10822 987.52511 676.28685 990.46875 676.40625 C 993.28225 676.48762 996.09176 676.4834 998.90625 676.5 L 1001.9688 674.28125 C 999.15357 674.27515 996.34529 674.2739 993.53125 674.1875 C 990.60105 674.07376 987.64772 673.91404 984.75 673.4375 C 982.27142 673.14302 979.7725 673.3888 977.28125 673.3125 C 974.00633 673.3145 970.74367 673.3205 967.46875 673.3125 C 964.45978 673.3114 961.44646 673.28525 958.4375 673.28125 C 955.29074 673.28757 952.14433 673.2981 949 673.4375 C 944.8769 673.63879 940.75932 673.94599 936.6875 674.65625 C 932.47758 675.22103 928.24276 675.29835 924 675.34375 C 919.43865 675.52053 914.89431 675.86441 910.375 676.53125 C 906.3507 677.16295 902.31366 677.76968 898.28125 678.34375 C 893.78748 679.12924 889.30069 679.84768 884.75 680.21875 C 881.31827 680.65985 877.86805 681.06269 874.40625 681.0625 C 870.40374 681.0665 866.3775 681.0695 862.375 681.0625 C 859.42881 681.0625 856.50869 681.06345 853.5625 681.0625 C 850.94606 681.0629 848.30298 681.0836 845.6875 681 C 842.41652 680.86063 839.18005 680.5853 835.9375 680.125 C 830.77984 679.46529 825.5802 679.0304 820.375 679.15625 C 813.96048 679.23508 807.51475 679.34857 801.125 679.96875 C 794.10714 680.71681 787.13967 681.89035 780.0625 681.96875 C 770.78807 682.52159 761.50759 682.82762 752.21875 683.03125 C 740.80134 683.0095 729.38378 682.97392 717.96875 682.71875 C 704.60495 682.38816 691.2625 681.74164 677.90625 681.21875 C 667.37768 680.92507 656.82838 680.92553 646.3125 680.25 C 634.97882 679.56657 623.67976 678.7406 612.34375 678.09375 C 598.96973 677.84522 585.59839 677.31938 572.25 676.4375 C 555.2121 675.38832 538.16106 674.21278 521.125 673.15625 C 511.82563 672.53941 502.52718 671.84283 493.28125 670.65625 C 487.21133 669.70711 481.12737 668.83494 475 668.34375 C 466.85379 667.69542 458.68645 667.29901 450.53125 666.78125 C 442.95441 666.30128 435.3818 665.5091 427.78125 665.5625 C 420.56342 665.49153 413.36847 665.37046 406.15625 665.0625 C 401.53249 664.86511 396.90432 664.68884 392.28125 664.71875 z "
       id="path3772" />
    <text
       xml:space="preserve"
       style="font-size:40px;font-style:normal;font-variant:normal;font-weight:normal;font-stretch:normal;line-height:125%;letter-spacing:0px;word-spacing:0px;fill:#000000;fill-opacity:1;stroke:none;font-family:Segoe Print;-inkscape-font-specification:Segoe Print"
       x="48.380653"
       y="98.696533"
       id="text3800"
       sodipodi:linespacing="125%"><tspan
         sodipodi:role="line"
         id="tspan3802"
         x="48.380653"
         y="98.696533">Conference</tspan><tspan
         sodipodi:role="line"
         x="48.380653"
         y="148.69653"
         id="tspan3804">Management</tspan><tspan
         sodipodi:role="line"
         x="48.380653"
         y="198.69653"
         id="tspan3806">(CRUD)</tspan></text>
    <text
       xml:space="preserve"
       style="font-size:40px;font-style:normal;font-variant:normal;font-weight:normal;font-stretch:normal;line-height:125%;letter-spacing:0px;word-spacing:0px;fill:#000000;fill-opacity:1;stroke:none;font-family:Segoe Print;-inkscape-font-specification:Segoe Print"
       x="707.3252"
       y="105.46983"
       id="text3808"
       sodipodi:linespacing="125%"><tspan
         sodipodi:role="line"
         id="tspan3810"
         x="707.3252"
         y="105.46983">Orders and</tspan><tspan
         sodipodi:role="line"
         x="707.3252"
         y="155.46983"
         id="tspan3812">Registrations</tspan><tspan
         sodipodi:role="line"
         x="707.3252"
         y="205.46983"
         id="tspan3814">(CQRS/ES)</tspan></text>
    <text
       xml:space="preserve"
       style="font-size:40px;font-style:normal;font-variant:normal;font-weight:normal;font-stretch:normal;line-height:125%;letter-spacing:0px;word-spacing:0px;fill:#000000;fill-opacity:1;stroke:none;font-family:Segoe Print;-inkscape-font-specification:Segoe Print"
       x="670.55591"
       y="541.86334"
       id="text3826"
       sodipodi:linespacing="125%"><tspan
         sodipodi:role="line"
         id="tspan3828"
         x="670.55591"
         y="541.86334">Payments</tspan><tspan
         sodipodi:role="line"
         x="670.55591"
         y="591.86334"
         id="tspan3830">(CQRS)</tspan></text>
    <text
       xml:space="preserve"
       style="font-size:40px;font-style:normal;font-variant:normal;font-weight:normal;font-stretch:normal;line-height:125%;letter-spacing:0px;word-spacing:0px;fill:#808080;fill-opacity:1;stroke:none;font-family:Segoe Print;-inkscape-font-specification:Segoe Print"
       x="120.95164"
       y="539.9281"
       id="text3832"
       sodipodi:linespacing="125%"><tspan
         sodipodi:role="line"
         id="tspan3834"
         x="120.95164"
         y="539.9281">Feedback</tspan><tspan
         sodipodi:role="line"
         x="120.95164"
         y="589.9281"
         id="tspan3836">(Legacy/CQRS)</tspan></text>
    <path
       style="fill:#800000;stroke:none"
       d="m 165.99484,253.49432 -3.46875,1.65625 c -0.92005,3.70336 -1.21481,7.51586 -1.4375,11.3125 -0.26251,4.00924 -0.0717,8.02501 -0.34375,12.03125 -0.50818,5.0305 -0.59391,10.07385 -0.6875,15.125 0.0769,7.19913 -0.34389,14.39514 -0.96875,21.5625 -0.54576,6.14707 -0.77315,12.28769 -1.59375,18.40625 -0.62144,5.53906 -1.39159,11.07435 -1.90625,16.625 -0.48536,4.50816 -1.30647,8.95866 -2,13.4375 -0.92194,5.44175 -1.494,10.92711 -2.125,16.40625 -0.46018,4.19494 -1.24952,8.34437 -2.125,12.46875 -0.7658,3.31426 -0.90653,6.70862 -1,10.09375 0.12652,3.95193 -0.33321,7.88296 -0.65625,11.8125 -0.43245,3.16878 -1.04633,6.28783 -1.59375,9.4375 -0.33887,2.27801 -0.94076,4.50971 -1.3125,6.78125 -1.43064,-1.11061 -2.03393,-3.22378 -3.28125,-4.46875 -1.56871,-2.25819 -3.15855,-4.50775 -4.875,-6.65625 l -3.3125,1.96875 c 1.75395,2.1085 3.34539,4.3711 4.90625,6.625 1.35305,1.42535 1.98344,3.70532 3.6875,4.8125 0.29012,0.1885 0.61606,0.24702 0.9375,0.375 0.58806,-0.0839 1.15186,-0.21931 1.6875,-0.40625 -0.009,0.12617 -0.0156,0.10358 -0.0312,0.3125 l 3.4375,-1.6875 c 0.0365,-0.45377 0.0506,-0.54077 0.0625,-0.6875 1.43297,-1.23065 2.65584,-2.75312 3.71875,-4.28125 1.12437,-1.89323 2.50484,-3.49069 4.21875,-4.8125 1.9e-4,-0.002 0.0286,0.004 0.0312,0 0.2006,-0.08 0.94586,-0.50056 1.25,-0.65625 1.14467,-0.58599 2.265,-1.18837 3.4375,-1.71875 l 2.96875,-2.375 c -3.5866,1.55251 -6.94368,3.62761 -10.34375,5.53125 -1.96941,1.42722 -3.55214,3.16422 -4.84375,5.21875 0.36151,-1.84585 0.7981,-3.66588 1.0625,-5.53125 0.54721,-3.15738 1.20002,-6.28649 1.59375,-9.46875 0.32522,-3.93374 0.71028,-7.88937 0.625,-11.84375 0.10697,-3.36801 0.27457,-6.73381 1.03125,-10.03125 0.86821,-4.12458 1.61453,-8.27495 2.0625,-12.46875 0.62017,-5.48077 1.19419,-10.96587 2.125,-16.40625 0.71667,-4.47961 1.53466,-8.95381 2,-13.46875 0.5114,-5.54318 1.27876,-11.03199 1.90625,-16.5625 0.80237,-6.11939 1.00122,-12.29054 1.53125,-18.4375 0.61065,-7.17788 1.02011,-14.35467 0.96875,-21.5625 0.10974,-5.05792 0.27507,-10.11936 0.78125,-15.15625 0.24685,-4.00575 0.0809,-8.02398 0.34375,-12.03125 0.23363,-3.78508 0.52999,-7.60748 1.53125,-11.28125 z"
       id="path3848"
       inkscape:connector-curvature="0" />
    <path
       style="fill:#000000;stroke:none"
       id="path5404"
       d="m 496.1549,360.9771 c -0.28277,3.29858 -0.54865,6.59311 -1.0682,9.86357 -0.51429,2.85699 -0.70007,5.75455 -0.81338,8.65052 0.0529,2.63047 -0.21419,5.23016 -0.50384,7.83961 -0.35095,2.97749 -0.43944,5.9756 -0.4997,8.97026 -0.0541,3.49542 -0.0439,6.99144 -0.0376,10.48716 3.1e-4,3.04506 0.008,6.0901 0.006,9.13516 0.002,3.30264 -9.4e-4,6.60528 -0.007,9.90791 0.003,3.44452 0.10643,6.87825 -0.2568,10.30697 -0.43352,3.20463 -0.4766,6.44078 -0.75625,9.65779 -0.37657,3.60976 -0.65829,7.22668 -0.81042,10.85266 -0.39038,3.25746 -0.71662,6.51713 -0.90141,9.7932 -0.14609,3.01766 -0.16561,6.03946 -0.17456,9.06003 0.005,2.80847 0.004,5.61689 -0.003,8.42535 0.0266,3.75387 0.0599,7.49575 -0.2655,11.23734 -0.35178,3.04338 -0.53651,6.09809 -0.62919,9.15905 -0.0702,2.85915 -0.0649,5.71941 -0.0696,8.57921 -0.002,2.89548 0.002,5.79098 0.007,8.68646 -0.0245,2.64811 -0.0621,5.27936 0.26727,7.90985 0.39117,2.69504 0.54158,5.41275 0.6352,8.13154 0.68802,3.1029 1.30644,6.19017 1.63988,9.35509 0.48372,2.95228 0.93126,5.90537 1.15636,8.88974 0.40701,2.87505 0.78055,5.75194 1.23106,8.6204 0.99792,3.7748 2.02296,7.53804 2.81354,11.36344 0.44283,3.07564 1.09065,6.11964 1.52308,9.19679 0.25348,3.15802 0.70753,6.29143 0.97601,9.44853 0.50315,4.02089 0.91807,8.04931 1.17365,12.09352 0.16778,3.16455 0.19066,6.33421 0.20425,9.5024 0.004,2.86381 -0.004,5.72761 -0.006,8.59142 0.005,2.77728 -0.005,5.55455 -0.005,8.33183 -0.005,3.31111 -0.45214,6.60421 -0.69663,9.90435 -0.0538,2.43883 -0.2814,4.83719 -0.68359,7.2402 -0.34783,1.96269 -0.45369,3.95295 -0.51578,5.94139 -0.034,1.47822 -0.0354,2.9569 -0.0376,4.43542 0,0 -3.4028,1.73307 -3.4028,1.73307 l 0,0 c 0.003,-1.48138 0.006,-2.96284 0.0329,-4.44403 0.047,-2.00378 0.14781,-4.00984 0.49069,-5.98842 0.40629,-2.3974 0.68342,-4.78321 0.72204,-7.22015 0.2499,-3.29071 0.69027,-6.57619 0.70602,-9.87729 6.5e-4,-2.77678 -0.009,-5.55356 0.002,-8.33033 0.004,-2.86338 0.008,-5.72677 0.007,-8.59015 -0.006,-3.16423 -0.0199,-6.32997 -0.17879,-9.49097 -0.23471,-4.04332 -0.63148,-8.07201 -1.1655,-12.08717 -0.27108,-3.14812 -0.74832,-6.26892 -0.98904,-9.41917 -0.42181,-3.07444 -1.06243,-6.11495 -1.48556,-9.18933 -0.7761,-3.83275 -1.80817,-7.59923 -2.83609,-11.37063 -0.45908,-2.8761 -0.83982,-5.75999 -1.25625,-8.6428 -0.21739,-2.98355 -0.64349,-5.93816 -1.13482,-8.88825 -0.32612,-3.17279 -0.94461,-6.26735 -1.66797,-9.37063 -0.087,-2.70744 -0.23315,-5.41445 -0.62383,-8.0979 -0.33596,-2.64481 -0.32538,-5.28947 -0.28662,-7.95342 0.002,-2.89621 7.2e-4,-5.79243 -0.004,-8.68864 -0.003,-2.86406 0.005,-5.72831 0.0694,-8.5918 0.0915,-3.06947 0.2486,-6.13495 0.62955,-9.18444 0.34504,-3.73047 0.32157,-7.46168 0.27971,-11.2063 -0.0113,-2.80681 -0.0222,-5.61363 -0.01,-8.42047 0.0108,-3.0279 0.0244,-6.05666 0.17272,-9.08172 0.18534,-3.27346 0.47595,-6.53617 0.90278,-9.78752 0.14882,-3.63347 0.44669,-7.25579 0.81449,-10.87354 0.27442,-3.21649 0.30572,-6.4524 0.73429,-9.65672 0.38722,-3.41797 0.31312,-6.84271 0.29428,-10.27949 -0.006,-3.29979 -0.009,-6.59958 -0.009,-9.89938 -0.004,-3.04539 -5e-5,-6.09078 -0.004,-9.13618 0.003,-3.4981 0.006,-6.99625 0.0356,-10.49424 0.0514,-3.00365 0.13083,-6.01195 0.47858,-8.99868 0.28824,-2.60098 0.56263,-5.19019 0.50937,-7.81221 0.11628,-2.91014 0.28684,-5.82576 0.80442,-8.69691 0.52755,-3.24762 0.81776,-6.51439 1.06732,-9.79528 0,0 3.4092,-1.73707 3.4092,-1.73707 z"
       inkscape:connector-curvature="0" />
    <path
       style="fill:#000000;stroke:none"
       id="path5416"
       d="m 386.81462,53.276126 c -0.0207,3.531828 -0.0247,7.063796 -0.0219,10.595687 0.24894,4.055713 0.56992,8.105932 1.05408,12.14056 0.34129,3.358059 0.7957,6.696423 1.25686,10.039124 0.42423,3.04217 0.51209,6.11574 0.57771,9.182282 0.0415,3.280526 0.0309,6.561491 0.028,9.842221 -0.004,3.28802 -0.004,6.57606 -0.006,9.86409 -0.008,3.58563 -0.007,7.1713 -0.003,10.75694 -0.005,3.71766 -0.001,7.43532 -0.005,11.15297 0.001,3.48742 0.004,6.97484 0.007,10.46225 0.006,2.5913 0.0102,5.18257 0.006,7.77387 -0.093,3.88505 0.31288,7.75601 0.55688,11.62889 0.0488,3.71463 0.59132,7.38427 0.96539,11.07202 0.14016,2.79603 0.46481,5.56156 0.83085,8.33442 0.40413,2.33705 0.28443,4.73156 0.63363,7.06923 0.0921,0.23818 0.12529,0.50864 0.27635,0.71454 0.81637,1.11265 5.34344,0.31312 6.5134,0.20318 4.58655,-0.41351 9.15187,-1.01396 13.74515,-1.37157 3.17637,-0.16393 6.30222,-0.77158 9.46876,-1.05278 4.28099,-0.23364 8.57115,-0.22119 12.85719,-0.23841 4.7172,-0.28605 9.29214,0.75078 13.8891,1.60739 4.30589,0.79949 8.6768,1.08043 13.04562,1.23424 3.74935,0.0329 7.51361,0.23089 11.20216,0.92097 5.73335,1.28891 11.61148,1.50434 17.44698,1.96238 5.88977,0.49003 11.79161,0.80561 17.69899,0.96798 4.22386,0.0972 8.44904,0.0868 12.6737,0.0923 4.37383,0.0574 8.7341,0.008 13.0978,-0.29027 4.75882,-0.38862 9.53152,-0.53029 14.30363,-0.62529 4.81454,-0.0255 9.61758,-0.0155 14.42162,-0.35195 2.95202,-0.3431 5.94913,-0.2251 8.90277,-0.51364 0.94068,-0.0919 3.22514,-0.51656 4.14889,-0.68061 3.18331,-0.66201 6.39582,-1.10287 9.63791,-1.32238 2.18696,-0.15485 4.41136,-0.44367 6.54189,-0.97966 1.30414,-0.31974 2.60871,-0.63427 3.8716,-1.09812 1.35616,-0.49811 2.49578,-1.26432 -1.48403,0.97348 1.59456,-1.08888 1.98797,-2.80396 2.21522,-4.60603 0.16667,-2.034 0.59713,-4.02936 0.80504,-6.06106 0.22377,-2.61097 0.23507,-5.23412 0.25204,-7.85277 0.0141,-3.19746 0.008,-6.39496 0.008,-9.59245 0.004,-3.94607 0.004,-7.89215 0.003,-11.83823 -0.007,-3.45938 -0.006,-6.91878 -0.01,-10.37816 0.005,-3.0104 -0.005,-6.0208 -0.005,-9.03119 0.004,-2.62028 -0.002,-5.24055 -0.005,-7.86082 -0.002,-2.06666 -0.005,-4.13332 -0.001,-6.19998 0.0227,-2.86705 -0.11037,-5.72753 0.23709,-8.5766 0.7092,-4.00759 1.17703,-8.04919 1.48699,-12.105528 0.19044,-2.65269 0.21587,-5.312855 0.22466,-7.971117 0.008,-2.691152 -0.004,-5.382286 0.001,-8.073441 0.006,-3.605975 5.7e-4,-7.21195 4.4e-4,-10.817927 0.004,-3.065579 -0.0106,-6.131141 -0.01,-9.196716 0.004,-2.568305 -0.001,-5.136614 -0.004,-7.704919 -3.6e-4,-0.358944 -7.1e-4,-0.717888 -0.001,-1.076832 0,0 3.40275,-1.733787 3.40275,-1.733787 l 0,0 c -3.6e-4,0.359308 -7.1e-4,0.718615 -0.001,1.077923 -0.003,2.569738 -0.008,5.139482 -0.004,7.709222 4.7e-4,3.068922 -0.0142,6.13783 -0.01,9.206757 6.2e-4,3.604273 -0.004,7.208554 0.009,10.812814 0.0108,2.688596 0.014,5.377217 0.0184,8.065829 -0.0137,2.670646 -0.0403,5.343774 -0.23649,8.008454 -0.32348,4.060568 -0.78495,8.110228 -1.48504,12.124638 -0.36819,2.82675 -0.20339,5.67048 -0.22588,8.51767 0.004,2.06702 6.5e-4,4.13404 -0.001,6.20105 -0.003,2.622 -0.009,5.244 -0.005,7.86599 5.6e-4,3.012 -0.009,6.024 -0.005,9.036 -0.004,3.46254 -0.002,6.9251 -0.009,10.38764 -8e-5,3.94361 0.002,7.88722 0.0106,11.83082 0.005,3.19646 0.0102,6.39293 0.003,9.5894 -0.0155,2.62652 -0.0106,5.25751 -0.22265,7.87738 -0.1943,2.03497 -0.61418,4.03074 -0.7932,6.06279 -0.20083,1.85937 -0.5355,3.6896 -2.07542,4.93078 -3.41965,1.95533 -5.30533,3.11769 -8.99529,3.81435 -2.15511,0.47465 -4.36344,0.80549 -6.56684,0.92113 -3.22351,0.23057 -6.41578,0.69257 -9.58459,1.33169 -4.3287,0.74721 -8.68605,0.88115 -13.06635,1.15586 -4.80789,0.3201 -9.61636,0.29352 -14.43326,0.33797 -4.76827,0.095 -9.53572,0.25307 -14.2908,0.63805 -4.37261,0.29181 -8.74317,0.32798 -13.12516,0.27876 -4.2219,0.004 -8.44429,-0.009 -12.66516,-0.11179 -5.89831,-0.17611 -11.78873,-0.53301 -17.67031,-1.01084 -5.86166,-0.44572 -11.76008,-0.68353 -17.52151,-1.95594 -3.68867,-0.63838 -7.43798,-0.82618 -11.17855,-0.87269 -4.3742,-0.17588 -8.74908,-0.47733 -13.0582,-1.29315 -4.58339,-0.85718 -9.15147,-1.82839 -13.85207,-1.5468 -4.29132,0.0168 -8.58856,0.005 -12.87235,0.29077 -3.15381,0.30117 -6.27551,0.88306 -9.44362,1.02772 -4.59585,0.36221 -9.16417,0.95961 -13.75313,1.38445 -1.56544,0.14498 -5.73564,0.97539 -6.82195,-0.58925 -0.16164,-0.23282 -0.20677,-0.52782 -0.31015,-0.79173 -0.36701,-2.34034 -0.21555,-4.74281 -0.6195,-7.0855 -0.36849,-2.77866 -0.71059,-5.5464 -0.82545,-8.35065 -0.36897,-3.69662 -0.90572,-7.37576 -0.94417,-11.09883 -0.2466,-3.87387 -0.67633,-7.74377 -0.60882,-11.62912 -0.005,-2.59319 -2.4e-4,-5.18636 0.006,-7.77955 0.004,-3.48991 0.006,-6.97982 0.007,-10.46973 -0.003,-3.71606 2.5e-4,-7.43212 -0.005,-11.14817 0.004,-3.58497 0.005,-7.16996 -0.001,-10.75493 8.4e-4,-3.28855 0.005,-6.57709 0.008,-9.86563 0.003,-3.27713 0.0126,-6.55446 -0.0318,-9.831386 -0.0568,-3.053858 -0.14352,-6.11394 -0.55403,-9.144732 -0.45795,-3.348604 -0.92246,-6.690354 -1.23731,-10.056902 -0.48192,-4.04797 -0.8248,-8.108314 -1.08145,-12.176937 0.003,-3.524461 -0.001,-7.048999 -0.0219,-10.573396 0,0 3.4092,-1.737071 3.4092,-1.737071 z"
       inkscape:connector-curvature="0" />
    <path
       style="fill:#000000;stroke:none"
       id="path5418"
       d="m 494.87478,205.14491 c -1.21946,3.07966 -1.81397,6.35324 -2.53614,9.57352 -0.54262,2.87676 -0.99864,5.77268 -1.41766,8.67061 -0.5032,4.03658 -0.53017,8.11327 -0.57886,12.17504 -0.0268,3.01314 -0.0151,6.0264 -0.005,9.03958 0.006,2.03162 0.0118,4.06326 0.008,6.09489 0.0258,2.24361 -0.0803,4.48973 0.10457,6.72713 0.32899,2.97034 0.56733,5.94478 1.00784,8.9011 0.45035,2.89052 0.64219,5.80952 0.75962,8.72962 0.0965,2.96235 0.58524,5.90143 1.0198,8.82973 0.54665,3.60633 0.77506,7.24569 0.90042,10.88742 0.0736,2.97599 0.0903,5.95308 0.0828,8.92985 -0.007,3.2524 -0.016,6.50477 -0.0147,9.75718 -5.1e-4,3.23099 -0.001,6.46198 -1.6e-4,9.69297 -0.0681,2.77102 0.1434,5.55492 -0.0989,8.31824 -0.43029,2.51592 -0.63896,5.05091 -0.75537,7.59821 -0.0979,2.67262 -0.10691,5.3473 -0.10955,8.02136 5.6e-4,1.68968 0.004,3.37936 0.006,5.06904 0,0 -3.40692,1.73638 -3.40692,1.73638 l 0,0 c -0.001,-1.69115 -0.004,-3.38229 -4.7e-4,-5.07344 0.009,-2.68181 0.0288,-5.36397 0.12102,-8.04445 0.10111,-2.55021 0.2662,-5.09456 0.73059,-7.6089 0.29425,-2.75072 0.0473,-5.53192 0.13247,-8.29386 0.001,-3.2316 8.1e-4,-6.4632 0.003,-9.6948 0.005,-3.25053 0.001,-6.50105 0.004,-9.75158 -0.004,-2.97494 0.0139,-5.9504 -0.0647,-8.92465 -0.11694,-3.62944 -0.32577,-7.25834 -0.8729,-10.85241 -0.44548,-2.93606 -0.96869,-5.88258 -1.0639,-8.85434 -0.10252,-2.90931 -0.28131,-5.81814 -0.72994,-8.69775 -0.44253,-2.96191 -0.68905,-5.93922 -1.02909,-8.91429 -0.22568,-2.24419 -0.0947,-4.5003 -0.12863,-6.75375 -0.005,-2.032 -0.004,-4.06401 -0.006,-6.09602 0.001,-3.02246 0.01,-6.04497 0.0478,-9.06724 0.0565,-4.07033 0.0565,-8.15583 0.52905,-12.20435 0.40619,-2.90885 0.87399,-5.81258 1.40945,-8.69974 0.71834,-3.23192 1.34271,-6.5018 2.47293,-9.62176 0,0 3.47864,-1.59854 3.47864,-1.59854 z"
       inkscape:connector-curvature="0" />
    <text
       xml:space="preserve"
       style="font-size:40px;font-style:normal;font-variant:normal;font-weight:normal;font-stretch:normal;line-height:125%;letter-spacing:0px;word-spacing:0px;fill:#000000;fill-opacity:1;stroke:none;font-family:Segoe Print;-inkscape-font-specification:Segoe Print"
       x="404.46228"
       y="108.37267"
       id="text5420"
       sodipodi:linespacing="125%"><tspan
         sodipodi:role="line"
         id="tspan5422"
         x="404.46228"
         y="108.37267">Discounts</tspan><tspan
         sodipodi:role="line"
         x="404.46228"
         y="158.37267"
         id="tspan5424">CQRS/?</tspan></text>
    <path
       style="fill:#800000;stroke:none"
       d="m 409.49318,167.23636 -3.3125,1.9375 c 1.67663,2.71517 3.62567,5.2191 5.03125,8.09375 0.0532,0.14919 0.0855,0.26748 0.125,0.40625 -0.16084,0.0233 -0.15389,0.017 -0.46875,0.0625 -2.21999,0.25755 -4.45939,0.12034 -6.6875,0.3125 -2.06919,0.15653 -4.11863,0.45205 -6.15625,0.84375 -2.38885,0.1025 -4.76864,0.32999 -7.125,0.75 -2.98548,0.48845 -5.99399,0.72285 -8.96875,1.28125 -3.70931,0.57933 -7.45324,0.88457 -11.1875,1.25 -2.7599,0.30475 -5.51344,0.82794 -8.28125,1.0625 -3.02814,0.37189 -6.03845,0.606 -9.09375,0.46875 -3.60586,-0.002 -7.20664,-0.004 -10.8125,0 -3.82967,0.009 -7.67293,-0.002 -11.5,0.15625 -3.93055,0.20949 -7.82681,0.59852 -11.75,0.90625 -4.05864,0.1133 -8.12124,0.23528 -12.15625,0.71875 l -3.0625,2.28125 c 4.04031,-0.55091 8.11654,-0.66344 12.1875,-0.78125 3.91906,-0.27234 7.82682,-0.65786 11.75,-0.875 3.82629,-0.1751 7.63929,-0.1774 11.46875,-0.1875 3.60143,-0.004 7.21108,-0.003 10.8125,0 3.05607,0.11815 6.09247,-0.0476 9.125,-0.40625 2.76928,-0.23573 5.49179,-0.76744 8.25,-1.09375 3.74043,-0.37553 7.49661,-0.68509 11.21875,-1.21875 2.97238,-0.55308 5.98514,-0.80389 8.96875,-1.28125 2.34311,-0.41476 4.7189,-0.66726 7.09375,-0.78125 2.05291,-0.30599 4.0859,-0.66756 6.15625,-0.84375 2.2297,-0.19293 4.46041,-0.0804 6.6875,-0.28125 1.54136,-0.20662 0.79417,-0.0955 2.3125,-0.3125 l 1.4375,-1.0625 c 0.0828,1.2978 -0.60878,2.04932 -1.65625,2.75 0.0927,-0.074 0.19828,-0.16409 0.28125,-0.25 0.34607,-0.35836 -0.91849,0.42555 -1.375,0.625 -0.49575,0.2166 -1.00005,0.4183 -1.5,0.625 -1.43312,0.59253 -2.85071,1.17247 -4.25,1.84375 -2.28979,1.26438 -4.52403,2.61618 -6.78125,3.9375 l 3.34375,-1.28125 c 0.14912,-0.0875 0.37741,-0.22512 0.46875,-0.28125 3.85226,-1.91554 8.04621,-3.07606 11.625,-5.5625 2.49882,-1.49979 3.96211,-2.60669 2.8125,-5.6875 -1.42703,-2.8715 -3.39657,-5.37521 -5.03125,-8.125 z m -9.875,19.65625 c -1.31018,0.76857 -4.20664,2.39974 0.21875,-0.0937 l -0.21875,0.0937 z"
       id="path5426"
       inkscape:connector-curvature="0" />
    <path
       style="fill:#800000;stroke:none"
       d="m 677.41307,158.54658 -3.34375,1.875 c 1.27614,2.51122 2.72052,4.94071 4.1875,7.34375 0.47161,1.13644 1.3744,2.15154 2.125,3.21875 -0.23977,0.0378 -0.47874,0.0878 -0.71875,0.125 -2.21769,-0.001 -4.43857,-0.007 -6.65625,0 -2.85318,0.013 -5.71239,0.009 -8.5625,0.15625 -2.62753,0.18451 -5.2277,0.51579 -7.84375,0.8125 -2.63356,0.0288 -5.25275,0.10881 -7.875,0.375 -3.82909,0.37494 -7.67641,0.78955 -11.53125,0.71875 -3.72225,0.12264 -7.44638,0.24785 -11.125,0.875 -2.77021,0.4046 -5.56748,0.56379 -8.34375,0.9375 -5.60311,0.0404 -11.21222,0.1256 -16.8125,0.3125 -7.58373,0.2827 -15.17356,0.65529 -22.71875,1.5 l 0,-0.0312 -3.0625,2.3125 c 7.56932,-0.97792 15.19132,-1.30703 22.8125,-1.59375 5.56594,-0.18567 11.15002,-0.26915 16.71875,-0.28125 2.79123,-0.27382 5.59338,-0.51126 8.375,-0.875 3.67993,-0.63099 7.40056,-0.80537 11.125,-0.9375 3.84949,0.0468 7.67369,-0.32341 11.5,-0.6875 2.61458,-0.26605 5.24911,-0.3351 7.875,-0.375 2.62398,-0.2328 5.21547,-0.58683 7.84375,-0.78125 2.84548,-0.17168 5.71287,-0.1775 8.5625,-0.1875 2.21278,-0.003 4.41222,-0.003 6.625,0 1.58846,-0.16816 3.16653,-0.45381 4.75,-0.65625 0.11484,0.3142 0.21281,0.62862 0.25,0.96875 0.0327,0.29931 -0.0889,0.60733 -0.125,0.90625 -1.82621,2.40062 -4.51712,4.02063 -6.875,5.875 -1.57699,1.12369 -0.82503,0.54387 -2.25,1.6875 l 3.53125,-1.40625 c 1.42687,-1.11962 0.69036,-0.55023 2.25,-1.6875 1.87371,-1.4656 4.77983,-3.26452 6.1875,-5.125 0.24732,-0.32688 0.39926,-0.70168 0.59375,-1.0625 0.0224,-0.69033 -0.0852,-1.32368 -0.28125,-1.90625 l 0.875,-0.65625 c -0.36778,0.033 -0.72764,0.11351 -1.09375,0.15625 -0.69441,-1.59833 -1.97736,-2.92877 -2.84375,-4.59375 -1.46157,-2.38486 -2.89673,-4.79651 -4.125,-7.3125 z"
       id="path5431"
       inkscape:connector-curvature="0" />
    <path
       style="fill:#800000;stroke:none"
       d="m 727.42505,307.62955 -3.4375,1.75 c 0.15399,3.45695 -0.0927,6.90468 -0.40625,10.34375 -0.21532,3.4054 -0.60793,6.79224 -0.9375,10.1875 -0.34273,3.46834 -0.46675,6.95448 -0.53125,10.4375 -0.0526,3.11862 -0.0323,6.22488 -0.0312,9.34375 0.002,3.304 -5.2e-4,6.60225 0,9.90625 -2.4e-4,3.1075 -0.003,6.205 0,9.3125 -0.0635,2.94435 0.13319,5.90798 -0.125,8.84375 -0.26248,2.87214 -0.73978,5.71578 -1.1875,8.5625 -0.37243,2.89105 -0.96335,5.72973 -1.3125,8.625 -0.19286,2.47256 -0.21887,4.94851 -0.5625,7.40625 -0.12359,0.98658 -0.3108,1.96272 -0.5,2.9375 -0.0533,-0.0699 -0.10366,-0.15132 -0.15625,-0.21875 -1.68733,-2.57203 -3.22161,-5.26216 -5.25,-7.59375 -2.04472,-2.44595 -3.95914,-4.99201 -5.46875,-7.8125 l -3.3125,1.9375 c 1.55816,2.80848 3.51258,5.35189 5.5625,7.8125 2.02413,2.31639 3.51368,4.99974 5.1875,7.5625 0.46481,0.58639 0.90851,1.28284 1.59375,1.65625 0.36183,0.19718 0.74368,0.25285 1.15625,0.25 -0.002,0.0101 0.002,0.0211 0,0.0312 l 0.0625,-0.0312 0.0312,0 c 1.93744,-0.0752 4.23956,-1.97847 5.28125,-3.15625 1.24707,-1.85777 2.30426,-3.83031 3.65625,-5.625 1.51634,-2.08111 3.42459,-3.75354 5.375,-5.40625 l 0.96875,-0.6875 -3.53125,1.40625 -0.96875,0.71875 c -1.95419,1.66565 -3.82914,3.40796 -5.34375,5.5 -0.52893,0.71923 -0.99555,1.46681 -1.46875,2.21875 0.20692,-1.05896 0.4011,-2.11507 0.53125,-3.1875 0.33232,-2.45985 0.3435,-4.93535 0.5625,-7.40625 0.35101,-2.88887 0.93274,-5.74076 1.3125,-8.625 0.45016,-2.85398 0.93333,-5.68181 1.1875,-8.5625 0.22218,-2.94632 0.047,-5.92235 0.0937,-8.875 0.003,-3.1075 0.002,-6.205 0,-9.3125 -0.001,-3.30338 0.005,-6.60287 0,-9.90625 -0.003,-3.1175 -0.005,-6.22643 0.0312,-9.34375 0.0669,-3.47129 0.18531,-6.94972 0.53125,-10.40625 0.34243,-3.39631 0.7363,-6.77848 0.9375,-10.1875 0.30326,-3.45741 0.56335,-6.9323 0.46875,-10.40625 z"
       id="path3086"
       inkscape:connector-curvature="0" />
    <path
       style="fill:#800000;stroke:none"
       d="m 838.67336,335.08635 -2.1875,1.09375 c 0.20416,-0.19214 0.42466,-0.36592 0.625,-0.5625 l -3.5625,1.4375 c -2.14673,2.18112 -4.61425,4.00221 -7,5.90625 l -1.09375,1.03125 3.53125,-1.4375 1.09375,-1 c 1.7469,-1.39004 3.51038,-2.77739 5.1875,-4.25 0.001,2.0876 0.0257,4.19366 0.0312,6.28125 0.006,3.09618 -0.0127,6.18509 0,9.28125 0.006,4.42925 0.0155,8.85306 -0.0937,13.28125 -0.11279,3.43039 -0.24875,6.87136 -0.90625,10.25 -0.43072,2.57164 -0.65349,5.18631 -1.3125,7.71875 -0.62434,3.14585 -1.10497,6.30426 -1.625,9.46875 -0.41529,2.81236 -0.68801,5.6665 -0.90625,8.5 -0.01,2.99569 -0.0151,5.97329 0.0312,8.96875 0.0733,2.84891 0.13678,5.70932 0.5625,8.53125 0.42582,2.35466 0.83331,4.70931 1.0625,7.09375 0.33898,2.92474 0.2992,5.87103 0.25,8.8125 l 3.4375,-1.75 c 0.009,-2.95205 0.0288,-5.87773 -0.3125,-8.8125 -0.21011,-2.39629 -0.63995,-4.76066 -1.0625,-7.125 -0.428,-2.80343 -0.5023,-5.6381 -0.5625,-8.46875 -0.0459,-2.98958 -0.0263,-5.97891 -0.0312,-8.96875 0.26779,-2.81607 0.50682,-5.64079 0.9375,-8.4375 0.52643,-3.15533 0.97848,-6.33535 1.625,-9.46875 0.68638,-2.53464 0.88983,-5.14414 1.34375,-7.71875 0.64162,-3.38894 0.7426,-6.84391 0.84375,-10.28125 0.0932,-4.43304 0.0833,-8.87871 0.0937,-13.3125 0.011,-3.10065 -0.002,-6.21184 0,-9.3125 0.002,-2.25646 -10e-4,-4.49354 0,-6.75 z m 3.4375,0.25 -3.28125,2 c 1.70199,1.83151 2.9175,4.05437 4.25,6.15625 l 3.3125,-1.9375 c -1.35072,-2.12364 -2.6033,-4.33154 -4.28125,-6.21875 z"
       id="path3091"
       inkscape:connector-curvature="0" />
    <path
       style="fill:#800000;stroke:none"
       d="M 543.875 220.375 L 540.53125 222.25 C 542.10556 224.91801 544.71186 226.75341 546.90625 228.875 C 547.06655 229.0801 547.28891 229.31565 547.5 229.5625 C 545.92388 229.71127 544.35401 229.8796 542.78125 230.0625 C 539.78121 230.36998 536.72071 230.31774 533.75 230.90625 C 530.86576 231.48574 527.96516 231.88133 525.09375 232.53125 C 520.39258 233.47074 515.66048 234.20991 510.9375 235.03125 C 505.59615 235.81999 500.16592 236.00921 494.78125 236.34375 C 487.88906 236.65661 480.99758 237.11606 474.09375 236.9375 C 468.94484 236.9315 463.77391 236.9345 458.625 236.9375 C 453.22691 236.93442 447.83468 236.92388 442.4375 236.8125 C 438.3421 236.70174 434.25811 236.55644 430.1875 236.0625 L 427.0625 238.28125 C 431.16261 238.74878 435.28414 238.91768 439.40625 239.03125 C 444.80857 239.13641 450.19063 239.118 455.59375 239.125 C 460.74496 239.1295 465.9113 239.134 471.0625 239.125 C 477.97349 239.25782 484.88116 238.87531 491.78125 238.5625 C 497.16864 238.26603 502.58961 238.02143 507.9375 237.28125 C 512.66134 236.48805 517.38962 235.7161 522.09375 234.8125 C 524.95434 234.17006 527.84504 233.78947 530.71875 233.21875 C 533.68303 232.60518 536.71747 232.59026 539.71875 232.3125 C 541.81909 232.07293 543.92518 231.86968 546.03125 231.6875 L 548.03125 230.21875 C 548.8476 231.23728 549.60128 232.45692 549.1875 233.59375 C 549.10068 233.83227 548.89782 234.01241 548.75 234.21875 C 548.52773 234.404 548.23333 234.63452 547.90625 234.90625 C 546.51422 235.61536 547.13801 235.33002 545.46875 236.125 L 544.21875 236.75 L 541.25 239.125 L 542.5 238.5 C 545.89909 236.91395 549.63452 235.38064 552.25 232.65625 C 553.32535 230.33653 551.57282 228.57395 550.125 226.875 C 547.962 224.78767 545.40087 223.01882 543.875 220.375 z "
       id="path3109" />
    <path
       style="fill:#800000;stroke:none"
       d="M 440 296.21875 C 436.07749 298.01697 432.37627 300.33779 429.3125 303.375 C 427.83606 305.05124 425.35342 306.32395 424.8125 308.65625 C 424.7245 309.03767 424.74545 309.45313 424.71875 309.84375 C 425.55017 312.88793 428.48743 314.57011 430.9375 316.25 C 433.48503 317.82551 435.82054 319.74647 438.46875 321.15625 C 439.81033 321.71711 439.11866 321.45715 440.46875 321.875 L 443.625 319.71875 C 442.2996 319.34467 442.97577 319.58001 441.65625 319.0625 C 438.99245 317.70061 436.66681 315.7845 434.125 314.21875 C 431.81003 312.63534 428.91725 311.01533 428.15625 308.125 C 428.19882 307.77099 428.18065 307.40457 428.28125 307.0625 C 428.93917 304.82545 431.42313 303.61943 432.84375 301.9375 C 433.98438 300.85055 435.14598 299.84487 436.4375 298.9375 C 436.75594 298.71378 437.58464 298.24108 437.78125 298.09375 C 437.7643 298.09735 437.7553 298.08038 437.71875 298.09375 C 437.62864 298.12671 437.5568 298.18076 437.46875 298.21875 L 440 296.21875 z M 498.0625 300.75 C 494.143 300.77694 490.22772 300.97262 486.3125 301.21875 C 481.78684 301.52644 477.2772 302.09686 472.75 302.40625 C 468.89311 302.57821 465.06708 303.11312 461.21875 303.40625 C 458.35111 303.83127 455.48583 304.25024 452.59375 304.46875 C 449.6619 304.53967 446.76011 304.94347 443.84375 305.21875 C 441.19078 305.46856 438.538 305.55255 435.875 305.59375 C 434.08582 305.60875 434.97888 305.618 433.21875 305.625 L 430.125 307.84375 C 431.88794 307.83665 431.02144 307.85575 432.8125 307.84375 C 435.48486 307.81433 438.15011 307.74879 440.8125 307.5 C 443.72549 307.23131 446.6039 306.78505 449.53125 306.71875 C 452.42902 306.51013 455.32317 306.14259 458.1875 305.65625 C 462.04305 305.36623 465.85632 304.84007 469.71875 304.65625 C 474.25163 304.35422 478.75364 303.77889 483.28125 303.4375 C 488.49197 303.10249 493.71305 302.84637 498.9375 303 C 502.63157 303.01844 506.33953 303.03827 510.03125 303.1875 C 514.02249 303.36945 517.98508 303.67019 521.96875 303.96875 C 525.28185 303.97418 528.59435 303.96196 531.90625 304.0625 C 535.69129 304.19118 539.48725 304.36096 543.25 304.8125 L 546.375 302.625 C 542.59086 302.20456 538.77158 302.02046 534.96875 301.875 C 531.65579 301.75521 528.34588 301.754 525.03125 301.75 C 521.04644 301.50176 517.08215 301.16529 513.09375 300.96875 C 509.3947 300.80538 505.67067 300.78157 501.96875 300.78125 C 500.66048 300.74885 499.369 300.74102 498.0625 300.75 z "
       id="path3114" />
    <text
       xml:space="preserve"
       style="font-size:32px;font-style:normal;font-variant:normal;font-weight:normal;font-stretch:normal;line-height:125%;letter-spacing:0px;word-spacing:0px;fill:#800000;fill-opacity:1;stroke:none;font-family:Segoe Print;-inkscape-font-specification:Segoe Print"
       x="582.50311"
       y="234.16237"
       id="text3119"
       sodipodi:linespacing="125%"><tspan
         sodipodi:role="line"
         id="tspan3121"
         x="582.50311"
         y="234.16237">1</tspan></text>
    <text
       xml:space="preserve"
       style="font-size:32px;font-style:normal;font-variant:normal;font-weight:normal;font-stretch:normal;line-height:125%;letter-spacing:0px;word-spacing:0px;fill:#800000;fill-opacity:1;stroke:none;display:inline;font-family:Segoe Print;-inkscape-font-specification:Segoe Print"
       x="397.43317"
       y="292.16135"
       id="text3119-9"
       sodipodi:linespacing="125%"><tspan
         sodipodi:role="line"
         id="tspan3121-4"
         x="397.43317"
         y="292.16135">2</tspan></text>
    <text
       xml:space="preserve"
       style="font-size:32px;font-style:normal;font-variant:normal;font-weight:normal;font-stretch:normal;line-height:125%;letter-spacing:0px;word-spacing:0px;fill:#800000;fill-opacity:1;stroke:none;display:inline;font-family:Segoe Print;-inkscape-font-specification:Segoe Print"
       x="155.52985"
       y="472.13739"
       id="text3119-8"
       sodipodi:linespacing="125%"><tspan
         sodipodi:role="line"
         id="tspan3121-8"
         x="155.52985"
         y="472.13739">7</tspan></text>
    <text
       xml:space="preserve"
       style="font-size:32px;font-style:normal;font-variant:normal;font-weight:normal;font-stretch:normal;line-height:125%;letter-spacing:0px;word-spacing:0px;fill:#800000;fill-opacity:1;stroke:none;display:inline;font-family:Segoe Print;-inkscape-font-specification:Segoe Print"
       x="631.59552"
       y="157.66312"
       id="text3119-2"
       sodipodi:linespacing="125%"><tspan
         sodipodi:role="line"
         id="tspan3121-45"
         x="631.59552"
         y="157.66312">6</tspan></text>
    <text
       xml:space="preserve"
       style="font-size:32px;font-style:normal;font-variant:normal;font-weight:normal;font-stretch:normal;line-height:125%;letter-spacing:0px;word-spacing:0px;fill:#800000;fill-opacity:1;stroke:none;display:inline;font-family:Segoe Print;-inkscape-font-specification:Segoe Print"
       x="703.19891"
       y="440.20615"
       id="text3119-5"
       sodipodi:linespacing="125%"><tspan
         sodipodi:role="line"
         id="tspan3121-1"
         x="703.19891"
         y="440.20615">3</tspan></text>
    <text
       xml:space="preserve"
       style="font-size:32px;font-style:normal;font-variant:normal;font-weight:normal;font-stretch:normal;line-height:125%;letter-spacing:0px;word-spacing:0px;fill:#800000;fill-opacity:1;stroke:none;display:inline;font-family:Segoe Print;-inkscape-font-specification:Segoe Print"
       x="814.47437"
       y="324.09256"
       id="text3119-7"
       sodipodi:linespacing="125%"><tspan
         sodipodi:role="line"
         id="tspan3121-11"
         x="814.47437"
         y="324.09256">4</tspan></text>
    <text
       xml:space="preserve"
       style="font-size:32px;font-style:normal;font-variant:normal;font-weight:normal;font-stretch:normal;line-height:125%;letter-spacing:0px;word-spacing:0px;fill:#800000;fill-opacity:1;stroke:none;display:inline;font-family:Segoe Print;-inkscape-font-specification:Segoe Print"
       x="325.8298"
       y="170.2421"
       id="text3119-52"
       sodipodi:linespacing="125%"><tspan
         sodipodi:role="line"
         id="tspan3121-7"
         x="325.8298"
         y="170.2421">5</tspan></text>
    <path
       style="fill:#800000;stroke:none"
       id="path3216"
       d="m 594.64145,209.99259 c -2.67892,-0.32315 -5.37537,-0.7503 -8.07808,-0.60532 -2.33216,0.15695 -4.47416,1.12828 -6.50275,2.22488 0.69696,-0.38652 1.34881,-0.86891 2.09088,-1.15957 0.43126,-0.16892 -0.76943,0.51621 -1.14397,0.78868 -1.40109,1.01926 -2.80642,2.05934 -4.12496,3.18276 -1.66812,1.50717 -2.06337,3.49269 -2.28674,5.62674 -0.21757,2.41979 -0.11406,4.82757 0.15803,7.23536 0.3152,3.39159 2.17483,6.12662 3.98585,8.88744 1.33146,2.31008 3.24984,3.78233 5.67975,4.76754 2.44334,0.82689 5.04731,0.79447 7.59533,0.83822 3.59294,0.042 7.21135,-0.70991 10.61095,-1.84887 2.38142,-0.73328 4.49641,-2.07633 6.70076,-3.20284 0.3565,-0.20138 1.42889,-0.8003 1.0695,-0.60412 -3.08919,1.68632 -2.58031,1.5397 -1.10016,0.46591 1.05236,-0.76344 1.94369,-1.61118 2.84482,-2.54306 1.33937,-1.54708 2.35563,-3.36799 2.0363,-5.45371 -1.18777,-2.43397 -3.05238,-4.65372 -5.0861,-6.44066 -2.59917,-1.76913 -4.84976,-3.96881 -7.31474,-5.9114 -1.91077,-1.52386 -4.01304,-2.79373 -6.18599,-3.90496 -0.32526,-0.17679 -0.65052,-0.35358 -0.97578,-0.53038 0,0 3.19599,-2.08791 3.19599,-2.08791 l 0,0 c 0.324,0.17481 0.64801,0.34963 0.97202,0.52444 2.17944,1.14305 4.29579,2.4234 6.21072,3.97666 2.45419,1.96566 4.73403,4.14023 7.32668,5.92851 2.08332,1.86978 3.98665,4.14539 5.23936,6.65051 0.39975,2.18347 -0.51328,4.11037 -1.90111,5.78187 -2.64008,2.81542 -5.8262,4.82314 -9.30777,6.53475 -2.19534,1.13804 -4.32859,2.43939 -6.71953,3.1398 -3.44292,1.08766 -7.06862,1.81792 -10.69011,1.7506 -2.588,-0.0482 -5.23143,-0.0336 -7.6932,-0.94538 -2.46763,-1.06237 -4.42582,-2.60121 -5.78333,-4.97017 -1.83026,-2.8124 -3.72441,-5.59876 -4.07695,-9.03811 -0.2887,-2.42919 -0.42528,-4.85574 -0.20955,-7.30046 0.20269,-2.18741 0.52593,-4.28072 2.17215,-5.89114 2.9193,-2.60429 6.27042,-4.74192 9.67846,-6.63177 2.07288,-1.07062 4.24203,-1.99951 6.60903,-2.09186 2.72487,-0.0678 5.43379,0.33291 8.13552,0.64921 0,0 -3.13128,2.20781 -3.13128,2.20781 z"
       inkscape:connector-curvature="0" />
    <path
       style="fill:#800000;stroke:none"
       id="path3218"
       d="m 415.53518,266.25049 c -3.21083,-0.0195 -6.42175,-0.0111 -9.63261,-0.007 -2.4133,0.0466 -4.83237,-0.10578 -7.23638,0.13053 -0.46891,0.0965 -0.94766,0.15368 -1.40672,0.28952 -1.07037,0.31671 -4.12888,1.37347 -3.01569,1.45589 0.65774,0.0487 1.20154,-1.17449 1.78162,-0.86065 0.51102,0.27647 -0.92412,0.70583 -1.36208,1.08762 -0.40097,0.34955 -0.76811,0.73612 -1.15216,1.10418 -2.01174,1.83359 -3.04867,4.04981 -3.55671,6.67129 -0.43847,2.88315 -0.39195,5.73276 0.50958,8.5116 1.11261,2.97188 3.40947,5.17702 5.73527,7.2304 2.1724,1.8814 4.30778,3.80241 6.70958,5.38961 2.11213,1.21885 4.49231,1.76411 6.87308,2.16371 2.69117,0.52975 5.27316,0.31005 7.90431,-0.34725 0.10796,0.32749 3.84045,-1.41812 3.53517,-1.18925 -0.6298,0.47216 -1.32074,0.88833 -2.06422,1.14684 -0.90172,0.31354 1.55463,-1.10854 2.32715,-1.66946 2.08095,-1.56707 4.07218,-3.16511 5.68082,-5.2275 1.67956,-2.29524 2.15734,-5.09629 2.48665,-7.85336 0.22132,-3.17364 0.35418,-6.37059 0.13259,-9.54668 -0.30979,-2.82616 -1.68511,-5.1177 -3.61544,-7.12184 -1.84564,-1.52422 -4.12022,-2.00409 -6.43535,-2.25486 -1.34883,-0.26983 -2.69908,-0.52171 -4.06027,-0.72 0,0 3.12566,-2.20058 3.12566,-2.20058 l 0,0 c 1.35559,0.20908 2.69984,0.47384 4.05044,0.71195 2.38398,0.30123 4.70336,0.87061 6.57331,2.47956 1.97277,2.07759 3.38827,4.45589 3.7293,7.35901 0.24089,3.19521 0.10036,6.41099 -0.0937,9.60646 -0.30801,2.79757 -0.76335,5.66113 -2.38906,8.03274 -1.57178,2.12601 -3.5543,3.74596 -5.64877,5.33531 -3.16864,2.29703 -6.44421,4.66986 -10.36074,5.42212 -2.65982,0.62152 -5.2964,0.75326 -7.99711,0.22219 -2.41812,-0.43317 -4.84027,-1.0051 -6.96379,-2.29456 -2.39434,-1.62166 -4.54254,-3.54775 -6.72139,-5.44282 -2.37059,-2.10454 -4.69522,-4.37194 -5.84526,-7.39946 -0.92958,-2.83008 -1.0186,-5.72866 -0.60713,-8.67519 0.47774,-2.683 1.43098,-4.99703 3.47934,-6.89232 3.20092,-3.18477 7.23575,-5.95996 11.72219,-6.78906 2.4129,-0.18763 4.83382,-0.0772 7.2525,-0.10095 3.21716,0.004 6.43438,0.0125 9.65151,-0.007 0,0 -3.09548,2.249 -3.09548,2.249 z"
       inkscape:connector-curvature="0" />
    <path
       style="fill:#800000;stroke:none"
       id="path3220"
       d="m 721.39877,415.12657 c -2.65988,-0.31755 -5.41438,-0.27825 -8.06731,0.11004 -2.80824,0.23002 -5.34531,0.95994 -7.86243,2.20352 0.87784,-0.59833 -3.48524,1.85172 -2.62668,1.36531 0.67908,-0.38473 1.31226,-0.87339 2.04688,-1.13703 0.40402,-0.14499 -0.70443,0.4931 -1.03049,0.77228 -0.78517,0.67227 -0.92821,0.95452 -1.55644,1.78145 -1.45992,2.19117 -1.70152,4.83393 -2.18392,7.35652 -0.53685,2.67858 -0.57286,5.43005 -0.0512,8.11052 0.38553,2.17556 1.73188,3.85067 3.13225,5.47665 1.65721,1.87793 3.81316,2.36788 6.18988,2.66226 2.64893,0.36918 5.21431,0.0325 7.72272,-0.83224 0.37998,-0.19451 1.50882,-0.79837 1.13995,-0.58354 -4.74655,2.76441 -1.1137,0.52201 -0.19962,-0.13538 0.86854,-0.62465 1.08821,-0.82282 1.92312,-1.49949 2.12816,-1.66811 3.90537,-3.63985 5.4833,-5.82133 1.27684,-1.83793 2.44001,-3.62189 2.98636,-5.80605 0.37368,-2.04023 0.58661,-4.10806 0.0608,-6.13005 -0.79771,-2.17828 -1.93657,-4.118 -3.54754,-5.78538 -0.28024,-0.2568 -0.56049,-0.51359 -0.84073,-0.77039 0,0 3.24501,-2.00685 3.24501,-2.00685 l 0,0 c 0.28458,0.26361 0.56917,0.52721 0.85375,0.79082 1.63589,1.7293 2.81502,3.71562 3.64733,5.94858 0.57274,2.07722 0.38678,4.18947 0.0239,6.29912 -0.50709,2.25311 -1.61425,4.06845 -2.93788,5.94719 -1.57069,2.20366 -3.29544,4.2307 -5.43871,5.91053 -2.86099,2.37315 -6.0216,4.42678 -9.40514,5.9765 -2.5519,0.8087 -5.16009,1.08496 -7.82661,0.69593 -2.45473,-0.3416 -4.65329,-0.94615 -6.34556,-2.89237 -1.44132,-1.67458 -2.82933,-3.40876 -3.23253,-5.64627 -0.54062,-2.71886 -0.5263,-5.52183 -0.005,-8.24562 0.48996,-2.5587 0.71121,-5.24133 2.10796,-7.50654 2.31874,-3.30783 6.09462,-4.89999 9.63306,-6.66213 2.54642,-1.19838 5.13789,-1.86931 7.94694,-2.11652 2.69249,-0.324 5.45389,-0.37543 8.14629,-0.0378 0,0 -3.13128,2.20781 -3.13128,2.20781 z"
       inkscape:connector-curvature="0" />
    <path
       style="fill:#800000;stroke:none"
       id="path3222"
       d="m 831.62306,294.44607 c -3.28209,0.3142 -6.47767,1.24245 -9.63596,2.15627 -1.8042,0.63435 -3.58434,1.33263 -5.32247,2.13125 -0.37742,0.17341 -1.47038,0.77021 -1.1176,0.55098 0.67252,-0.41792 1.38616,-0.76572 2.07924,-1.14857 -2.34272,1.70443 -4.43827,3.66568 -6.00392,6.10851 -1.51677,2.95849 -1.7467,6.30462 -1.92697,9.56511 -0.29425,3.24666 0.27167,5.48611 2.41609,7.93154 1.88182,2.03147 4.49529,2.85869 7.02084,3.76371 2.61965,0.91314 5.36581,1.17446 8.11503,1.32469 2.61617,0.21973 5.09115,0.15422 7.5532,-0.79315 0.38262,-0.20113 1.52304,-0.81804 1.14784,-0.6034 -0.70805,0.40506 -1.37468,0.91149 -2.14673,1.17484 -0.38972,0.13293 0.65474,-0.50053 0.96467,-0.77163 0.94398,-0.82571 1.63133,-1.73711 2.32986,-2.76905 1.25558,-2.19013 1.99918,-4.6239 2.53308,-7.07831 0.40495,-2.06677 0.46823,-4.17481 0.50236,-6.27383 0.0256,-2.09531 0.12275,-4.16873 -0.36931,-6.21683 -0.74637,-2.38362 -2.12806,-4.29339 -4.1031,-5.79493 -0.87979,-0.60664 -1.87399,-0.8872 -2.89101,-1.15172 0,0 3.15107,-2.16225 3.15107,-2.16225 l 0,0 c 1.04717,0.30504 2.06945,0.62931 2.96666,1.28027 2.00886,1.5863 3.44968,3.55739 4.23262,6.01494 0.52537,2.07529 0.46309,4.17028 0.42218,6.30006 -0.0305,2.122 -0.0873,4.25284 -0.47883,6.34514 -0.52064,2.49251 -1.26335,4.95727 -2.47597,7.20779 -2.09808,3.28955 -5.12017,5.338 -8.78696,6.84378 -2.49973,0.85661 -5.01955,0.88301 -7.64054,0.66537 -2.77581,-0.16929 -5.54232,-0.46781 -8.17998,-1.41214 -2.58317,-0.92507 -5.22117,-1.84092 -7.12704,-3.92729 -2.17344,-2.53316 -2.85093,-4.84653 -2.54078,-8.19543 0.16672,-3.30722 0.39259,-6.69414 1.83493,-9.73229 1.50981,-2.51953 3.61416,-4.48485 5.93288,-6.27084 3.52257,-2.05988 6.97394,-4.07062 10.91407,-5.22035 3.18406,-0.89833 6.39513,-1.80528 9.69755,-2.12935 0,0 -3.067,2.28711 -3.067,2.28711 z"
       inkscape:connector-curvature="0" />
    <path
       style="fill:#800000;stroke:none"
       id="path3224"
       d="m 352.6266,148.06652 c -3.39109,-0.31201 -6.74626,-0.89641 -10.1217,-1.3363 -2.37135,-0.3118 -4.7606,-0.41765 -7.14959,-0.46194 -2.75375,-0.2146 -5.42204,0.49271 -8.09647,1.03335 -1.22025,0.33375 -1.59924,0.38845 -2.74949,0.89203 -0.41778,0.1829 -1.6358,0.80727 -1.2234,0.61254 3.70072,-1.74737 1.94571,-1.05572 0.76713,0.79743 -1.01035,1.96837 -1.09194,4.16818 -1.15063,6.33185 -0.21226,2.35874 0.5472,4.38884 1.67213,6.40558 1.25409,1.97516 3.05475,3.56352 4.88811,4.99246 1.78711,1.26746 3.71183,2.11099 5.85764,2.51102 2.90656,0.43593 5.8062,0.83771 8.74067,1.04652 3.12627,0.163 6.25339,0.42978 9.34032,-0.18697 -0.74831,0.69946 3.35243,-1.52132 2.55614,-1.0566 -0.72254,0.42169 -1.40238,0.98475 -2.21651,1.17729 -0.4201,0.0994 0.65777,-0.56213 0.95182,-0.87818 0.81979,-0.88111 1.02642,-1.31174 1.66539,-2.32235 1.32692,-2.45764 1.81722,-5.25283 2.28666,-7.97831 0.23455,-2.74566 0.70918,-5.4797 0.88815,-8.22778 -0.0695,-2.45775 -1.05756,-3.5521 -3.04,-4.75501 0,0 3.21281,-2.07361 3.21281,-2.07361 l 0,0 c 1.94551,1.21386 3.18414,2.70294 3.23465,5.1177 -0.14715,2.76264 -0.69161,5.50675 -0.88238,8.27061 -0.45365,2.76303 -0.94717,5.59261 -2.22269,8.10992 -2.25575,3.76631 -5.16123,5.67671 -9.46712,6.90591 -3.1106,0.53008 -6.25164,0.28219 -9.38837,0.10199 -2.95,-0.21866 -5.86851,-0.62173 -8.79125,-1.06807 -2.1785,-0.45625 -4.14588,-1.35079 -5.95387,-2.66294 -1.86036,-1.47809 -3.69652,-3.09133 -4.96668,-5.12084 -1.15649,-2.06762 -1.97386,-4.16214 -1.76901,-6.5846 0.0474,-2.21519 0.1087,-4.46461 1.06627,-6.51132 2.03774,-3.53769 5.93221,-5.15776 9.71934,-6.13814 2.69687,-0.54392 5.39276,-1.20142 8.16717,-0.98128 2.39076,0.0565 4.78062,0.18418 7.15167,0.51249 3.37993,0.45885 6.74422,1.03458 10.14602,1.31541 0,0 -3.12293,2.21014 -3.12293,2.21014 z"
       inkscape:connector-curvature="0" />
    <path
       style="fill:#800000;stroke:none"
       id="path3226"
       d="m 655.58665,133.41363 c -2.69047,-0.93202 -5.37363,-1.90092 -8.09962,-2.72598 -2.07423,-0.61401 -4.22746,-0.7827 -6.37702,-0.86285 -2.16247,0.005 -4.34012,-0.16368 -6.48945,0.1091 -0.40301,0.11695 -1.67473,0.4744 -2.06535,0.63404 -0.30513,0.12471 -1.16754,0.61196 -0.88192,0.44739 4.53418,-2.61238 2.08927,-1.11896 1.03895,-4.1e-4 -1.44036,1.67177 -1.7395,3.80008 -1.95696,5.91643 -0.17054,2.38231 -0.141,4.77357 -0.13477,7.16039 -0.12882,2.45116 0.28871,4.86528 0.59606,7.28614 0.4447,2.73263 1.74169,5.16907 3.23282,7.46079 1.35469,1.98578 2.63369,3.91304 4.86476,4.94336 1.9542,0.72875 3.76696,0.62163 5.61258,-0.28865 -2.81525,1.68786 5.60964,-3.07192 2.81454,-1.3835 -4.82771,2.91625 -1.48093,0.77909 -0.51583,-0.0288 1.78281,-1.6803 3.13281,-3.75352 4.51116,-5.76365 1.42965,-1.86045 2.41349,-3.97625 3.33026,-6.12024 0.87903,-1.9864 1.87541,-3.91521 2.51978,-5.9942 0.49271,-2.15076 0.76339,-4.35308 0.26116,-6.51648 -0.6984,-2.0125 -1.82084,-3.7823 -3.25445,-5.34349 -0.22336,-0.17442 -0.44673,-0.34884 -0.67009,-0.52327 0,0 3.24236,-2.03583 3.24236,-2.03583 l 0,0 c 0.23312,0.19204 0.46623,0.38409 0.69934,0.57613 1.4562,1.62483 2.61275,3.44532 3.34337,5.51326 0.54971,2.22172 0.29824,4.46876 -0.16731,6.69485 -0.61346,2.10323 -1.60194,4.04515 -2.50774,6.03392 -0.90265,2.16307 -1.86606,4.31355 -3.2979,6.18818 -1.36954,2.034 -2.74896,4.10193 -4.47325,5.85461 -2.55569,2.30801 -5.75057,3.73678 -8.82808,5.22428 -1.93213,0.80754 -3.85289,0.82098 -5.81285,0.0194 -2.23937,-1.13448 -3.57254,-3.08951 -4.95207,-5.1329 -1.51766,-2.33819 -2.85117,-4.82355 -3.32916,-7.60389 -0.30177,-2.4362 -0.74676,-4.86344 -0.61359,-7.32939 -0.008,-2.39701 -0.0426,-4.79794 0.11086,-7.19139 0.20305,-2.16419 0.46037,-4.37029 1.85038,-6.13639 2.19827,-2.49772 5.2567,-4.14986 8.49732,-4.83883 2.16793,-0.2029 4.35257,-0.0864 6.52743,-0.0653 2.16819,0.0997 4.3358,0.30635 6.42045,0.952 2.72148,0.8498 5.40216,1.82647 8.11398,2.70692 0,0 -3.16015,2.16424 -3.16015,2.16424 z"
       inkscape:connector-curvature="0" />
    <path
       style="fill:#800000;stroke:none"
       id="path3228"
       d="m 179.60382,450.5099 c -2.45109,-1.48657 -5.144,-2.53069 -7.77058,-3.66567 -2.45607,-1.11616 -5.11125,-1.37011 -7.76762,-1.53215 -2.66377,-0.11388 -5.33108,-0.0897 -7.99657,-0.0792 -0.43967,10e-4 -0.87988,-0.0179 -1.31901,0.004 -1.2165,0.0603 -1.64105,0.11285 -2.78983,0.55401 -0.45851,0.17607 -1.72681,0.91925 -1.3356,0.62229 0.604,-0.45848 1.27091,-0.85461 1.98345,-1.11406 0.46009,-0.16753 -0.80683,0.55501 -1.21024,0.83252 -2.0853,1.41349 -3.47389,3.27241 -4.19037,5.66367 -0.53551,2.03112 -0.36812,4.0311 0.11783,6.04498 0.71305,2.42315 2.36283,4.26405 4.02385,6.08091 1.50122,1.73294 3.10903,3.33986 4.99005,4.65571 1.72219,1.22915 3.68292,2.10112 5.68413,2.7679 2.1043,0.58929 4.3086,0.63949 6.47917,0.69511 2.35168,0.21604 4.59027,-0.23261 6.82874,-0.88872 1.44297,-0.58907 2.91912,-1.10041 4.29302,-1.84554 0.38444,-0.2085 1.53125,-0.84159 1.13155,-0.66409 -0.77123,0.34248 -1.49987,0.77379 -2.24981,1.16068 2.31259,-1.64796 3.30062,-4.12868 4.18289,-6.7105 0.88647,-2.62462 1.16263,-5.38257 1.32156,-8.13103 0.24413,-2.40057 0.0528,-4.57476 -1.27304,-6.62212 -1.5747,-1.99425 -4.20534,-2.61232 -6.38852,-3.76096 0,0 3.18205,-2.08589 3.18205,-2.08589 l 0,0 c 2.25031,1.16329 4.92625,1.81972 6.50444,3.92162 1.35659,2.12298 1.64606,4.34645 1.37598,6.83852 -0.152,2.77636 -0.40878,5.5659 -1.2796,8.22454 -0.8714,2.61405 -1.78905,5.19497 -4.08354,6.91999 -3.14624,1.9539 -6.17628,3.98764 -9.7412,5.0841 -2.26219,0.63799 -4.53957,0.98893 -6.9002,0.79499 -2.19717,-0.0699 -4.42941,-0.14203 -6.54765,-0.78753 -2.02078,-0.70949 -4.00117,-1.5983 -5.7407,-2.86193 -1.88374,-1.35352 -3.51555,-2.97309 -5.03161,-4.72653 -1.69615,-1.8682 -3.36593,-3.77423 -4.11763,-6.24544 -0.52307,-2.0668 -0.72595,-4.11938 -0.21353,-6.21883 0.66506,-2.4645 1.98189,-4.43292 4.10676,-5.91009 3.42963,-2.46672 6.96004,-4.77463 11.28786,-4.53222 2.66992,-0.005 5.3424,-0.0322 8.00985,0.1016 2.68704,0.18709 5.36331,0.48875 7.83627,1.64409 2.64533,1.15634 5.36058,2.20243 7.83337,3.70579 0,0 -3.22597,2.06555 -3.22597,2.06555 z"
       inkscape:connector-curvature="0" />
  </g>
  <g
     inkscape:groupmode="layer"
     id="versionlayer"
     inkscape:label="Version">
    <text
       xml:space="preserve"
       style="font-style:normal;font-variant:normal;font-weight:normal;font-stretch:normal;fill:#ff0000;font-family:Courier New;-inkscape-font-specification:Courier New"
       x="10"
       y="10"
       id="versiontext">Journey_02_BCs.svg (v2)</text>
  </g>
</svg>
