<?xml version="1.0" encoding="UTF-8" standalone="no"?>
<!-- Created with Inkscape (http://www.inkscape.org/) -->

<svg
   xmlns:dc="http://purl.org/dc/elements/1.1/"
   xmlns:cc="http://creativecommons.org/ns#"
   xmlns:rdf="http://www.w3.org/1999/02/22-rdf-syntax-ns#"
   xmlns:svg="http://www.w3.org/2000/svg"
   xmlns="http://www.w3.org/2000/svg"
   xmlns:sodipodi="http://sodipodi.sourceforge.net/DTD/sodipodi-0.dtd"
   xmlns:inkscape="http://www.inkscape.org/namespaces/inkscape"
   width="1052.3622"
   height="744.09448"
   id="svg2"
   version="1.1"
   inkscape:version="0.48.2 r9819"
   sodipodi:docname="Journey_02_BCs.svg"
   inkscape:export-filename="C:\LocalRepos\cqrs-journey-doc\images\Journey_02_BCs.png"
   inkscape:export-xdpi="90"
   inkscape:export-ydpi="90">
  <title
     id="title3798">Bounded Contexts</title>
  <defs
     id="defs4" />
  <sodipodi:namedview
     id="base"
     pagecolor="#ffffff"
     bordercolor="#666666"
     borderopacity="1.0"
     inkscape:pageopacity="0.0"
     inkscape:pageshadow="2"
     inkscape:zoom="1.0334709"
     inkscape:cx="303.63007"
     inkscape:cy="372.53105"
     inkscape:document-units="px"
     inkscape:current-layer="layer3"
     showgrid="false"
     inkscape:window-width="1680"
     inkscape:window-height="988"
     inkscape:window-x="-8"
     inkscape:window-y="1042"
     inkscape:window-maximized="1" />
  <metadata
     id="metadata7">
    <rdf:RDF>
      <cc:Work
         rdf:about="">
        <dc:format>image/svg+xml</dc:format>
        <dc:type
           rdf:resource="http://purl.org/dc/dcmitype/StillImage" />
        <dc:title>Bounded Contexts</dc:title>
      </cc:Work>
    </rdf:RDF>
  </metadata>
  <g
     inkscape:label="Template"
     inkscape:groupmode="layer"
     id="layer1"
     transform="translate(0,-308.2677)"
     style="display:none">
    <rect
       style="fill:none;stroke:#800000;stroke-width:1px;stroke-linecap:butt;stroke-linejoin:miter;stroke-opacity:1"
       id="rect3754"
       width="965.67786"
       height="629.91614"
       x="38.704525"
       y="48.380657"
       transform="translate(0,308.2677)" />
    <path
       style="fill:none;stroke:#800000;stroke-width:1px;stroke-linecap:butt;stroke-linejoin:miter;stroke-opacity:1"
       d="M 37.736911,360.91969 1004.3824,355.11401"
       id="path3756"
       inkscape:connector-curvature="0"
       transform="translate(0,308.2677)" />
    <path
       style="fill:none;stroke:#800000;stroke-width:1px;stroke-linecap:butt;stroke-linejoin:miter;stroke-opacity:1"
       d="m 341.56743,360.91969 1.93522,317.3771"
       id="path3758"
       inkscape:connector-curvature="0"
       transform="translate(0,308.2677)" />
    <path
       style="fill:none;stroke:#800000;stroke-width:1px;stroke-linecap:butt;stroke-linejoin:miter;stroke-opacity:1"
       d="m 708.2928,357.04924 0.96761,322.21516"
       id="path3760"
       inkscape:connector-curvature="0"
       transform="translate(0,308.2677)" />
    <rect
       style="fill:none;stroke:#000000"
       id="rect5412"
       width="217.71295"
       height="137.40106"
       x="385.11002"
       y="51.283489"
       transform="translate(0,308.2677)" />
    <path
       style="fill:none;stroke:#000000;stroke-width:1px;stroke-linecap:butt;stroke-linejoin:miter;stroke-opacity:1"
       d="m 494.4503,190.61978 0,167.39707"
       id="path5414"
       inkscape:connector-curvature="0"
       transform="translate(0,308.2677)" />
  </g>
  <g
     inkscape:groupmode="layer"
     id="layer2"
     inkscape:label="Drawing"
     style="display:inline">
    <path
       style="fill:#000000;stroke:none"
       d="M 1001.3438 43.46875 L 997.96875 45.25 C 998.06514 46.16955 998.19102 47.084883 998.3125 48 C 997.73527 48.088352 997.16851 48.174794 996.59375 48.28125 C 993.66511 48.843701 990.74902 49.44975 987.75 49.375 C 984.41463 49.607224 981.11862 49.983688 977.78125 50.1875 C 974.88282 50.18358 971.95994 50.21555 969.0625 50.125 C 965.29603 49.963891 961.56499 49.5864 957.84375 48.96875 C 951.70484 48.058616 945.56158 47.33236 939.34375 47.28125 C 935.73848 47.27087 932.13654 47.247 928.53125 47.25 C 925.4775 47.2552 922.42875 47.27895 919.375 47.28125 C 916.1471 47.2805 912.91473 47.29411 909.6875 47.21875 C 906.69055 47.119921 903.70063 46.915731 900.71875 46.59375 C 896.7127 46.227005 892.67728 46.27984 888.65625 46.3125 C 883.4948 46.3192 878.34896 46.3106 873.1875 46.3125 C 865.93054 46.32173 858.66322 46.344167 851.40625 46.34375 C 843.49509 46.351282 835.59636 46.310253 827.6875 46.53125 C 821.79727 46.786738 815.934 47.287588 810.0625 47.8125 C 804.79849 48.093117 799.52458 48.390942 794.25 48.25 C 788.52203 48.257491 782.79047 48.26511 777.0625 48.25 C 770.87309 48.24918 764.68938 48.26282 758.5 48.28125 C 747.18899 48.304449 735.87353 48.33484 724.5625 48.3125 C 716.2717 48.28219 707.97835 48.22879 699.6875 48.25 C 690.14897 48.26402 680.63228 48.27045 671.09375 48.28125 C 665.75138 48.30144 660.38707 48.290002 655.0625 48.78125 C 650.44913 49.241243 645.82061 49.568846 641.1875 49.75 C 635.72431 50.118577 630.29082 50.334771 624.8125 50.09375 C 614.96772 49.936812 605.12376 49.664387 595.28125 49.40625 C 581.25275 49.161556 567.21758 49.33419 553.1875 49.28125 C 539.82663 49.27362 526.4546 49.26596 513.09375 49.25 C 504.04539 49.23481 495.01712 49.2579 485.96875 49.25 C 478.75611 49.238665 471.52182 49.245622 464.3125 49 C 456.62192 48.658846 448.94604 48.068557 441.25 47.84375 C 426.10206 47.631786 410.94899 47.675237 395.8125 48.40625 C 386.71461 48.82588 377.64355 49.416874 368.53125 49.21875 C 363.25371 49.22545 357.96502 49.24016 352.6875 49.21875 C 342.15711 49.152356 331.61827 48.999885 321.09375 48.625 C 307.96321 48.128095 294.83757 47.649644 281.71875 46.90625 C 280.03624 46.795706 274.00991 46.39915 272.1875 46.34375 C 267.08789 46.188735 261.97561 46.460679 256.875 46.34375 C 249.01231 46.34255 241.14394 46.33565 233.28125 46.34375 C 224.73302 46.33944 216.17323 46.34765 207.625 46.34375 C 199.64105 46.33934 191.67145 46.3113 183.6875 46.3125 C 176.63221 46.30891 169.55529 46.34175 162.5 46.34375 C 154.09253 46.336429 145.68872 46.34005 137.28125 46.34375 C 130.36625 46.360168 123.47463 46.372812 116.5625 46.59375 C 107.9004 46.883332 99.232345 47.40685 90.5625 47.3125 C 80.358163 47.269495 70.138572 47.225657 59.9375 46.9375 C 53.964661 46.742478 48.00604 46.33779 42.03125 46.28125 L 38.9375 48.53125 C 44.962923 48.503791 50.976944 48.890083 57 49.0625 C 67.20675 49.316169 77.415463 49.40179 87.625 49.4375 C 96.278429 49.529148 104.91606 49.060388 113.5625 48.78125 C 120.47264 48.567782 127.39969 48.52722 134.3125 48.5 C 142.73154 48.47442 151.14343 48.47175 159.5625 48.46875 C 166.59926 48.47474 173.65073 48.5024 180.6875 48.5 C 188.69573 48.50209 196.67928 48.47315 204.6875 48.46875 C 213.22209 48.46486 221.77792 48.5043 230.3125 48.5 C 238.17936 48.50811 246.0394 48.5012 253.90625 48.5 C 262.20948 48.383337 270.49429 48.517023 278.78125 49.03125 C 291.92538 49.725393 305.06662 50.160486 318.21875 50.6875 C 328.70477 51.030171 339.19665 51.253324 349.6875 51.375 C 354.95077 51.43292 360.23652 51.4394 365.5 51.4375 C 374.67777 51.607633 383.80767 50.918128 392.96875 50.46875 C 408.0933 49.67706 423.23755 49.670049 438.375 49.9375 C 446.01883 50.182143 453.6439 50.818555 461.28125 51.1875 C 468.51956 51.448549 475.75829 51.39795 483 51.40625 C 492.05448 51.40874 501.13304 51.39562 510.1875 51.375 C 523.58603 51.3523 536.97645 51.35205 550.375 51.34375 C 564.38734 51.413792 578.3956 51.216941 592.40625 51.46875 C 602.20767 51.740863 612.00956 52.036764 621.8125 52.25 C 627.27996 52.482061 632.73338 52.336603 638.1875 51.96875 C 642.81449 51.761991 647.42085 51.474984 652.03125 51.03125 C 657.37535 50.518355 662.76166 50.53048 668.125 50.46875 C 677.6652 50.39635 687.17837 50.38689 696.71875 50.40625 C 705.03494 50.43556 713.37135 50.43482 721.6875 50.40625 C 732.97617 50.38545 744.27387 50.38288 755.5625 50.40625 C 761.73167 50.42475 767.89331 50.438355 774.0625 50.4375 C 779.7831 50.42234 785.49815 50.43 791.21875 50.4375 C 796.50681 50.573601 801.78531 50.286969 807.0625 50 C 812.92977 49.481743 818.80287 48.987706 824.6875 48.71875 C 832.61943 48.46221 840.53352 48.47855 848.46875 48.46875 C 855.69679 48.46034 862.92824 48.482 870.15625 48.5 C 875.31593 48.5081 880.49657 48.4925 885.65625 48.5 C 889.6591 48.489762 893.63528 48.430716 897.625 48.78125 C 900.6055 49.099127 903.59855 49.329227 906.59375 49.4375 C 909.82779 49.51043 913.07783 49.499064 916.3125 49.5 C 919.36235 49.499864 922.38765 49.4979 925.4375 49.5 C 929.06003 49.50001 932.68999 49.47925 936.3125 49.46875 C 942.52139 49.487117 948.65411 50.195815 954.78125 51.125 C 958.4903 51.761012 962.24359 52.156027 966 52.34375 C 968.90457 52.44954 971.81281 52.41771 974.71875 52.40625 C 978.05643 52.230681 981.35371 51.857557 984.6875 51.625 C 987.69517 51.670809 990.62219 51.125876 993.5625 50.5625 C 995.21893 50.245612 996.88716 50.044383 998.5625 49.875 C 998.75357 51.181236 998.94777 52.475825 999.15625 53.78125 C 999.62077 56.518849 999.6906 59.293102 999.75 62.0625 C 1000.139 66.041696 1000.7893 70.021033 1001.4375 73.96875 C 1002.1825 78.565942 1002.6267 83.207025 1003.3125 87.8125 C 1004.0902 92.212988 1004.3756 96.666429 1004.5312 101.125 C 1004.683 107.19224 1004.6662 113.24385 1004.6562 119.3125 C 1004.7663 124.40218 1004.6205 129.49476 1003.6562 134.5 C 1002.4359 139.46074 1000.9339 144.32509 999.6875 149.28125 C 998.64258 153.30958 997.60176 157.35322 996.65625 161.40625 C 995.75184 164.40663 995.47764 167.52962 994.71875 170.5625 C 992.97519 176.36331 992.27861 182.39779 991.71875 188.40625 C 991.18076 194.87121 991.10995 201.36073 991.09375 207.84375 C 991.09175 214.93392 991.09875 222.00359 991.09375 229.09375 C 991.03114 234.81821 991.03008 240.52378 991.65625 246.21875 C 992.23091 251.45958 992.80712 256.69688 993.625 261.90625 C 994.5058 267.43986 995.18978 273.00322 996.28125 278.5 C 997.4709 284.16309 998.4477 289.89065 999.59375 295.5625 C 1000.6295 301.56067 1001.8628 307.50355 1002.9062 313.5 C 1003.6663 319.16406 1004.6365 324.81088 1005.4375 330.46875 C 1006.1873 337.10118 1007.1858 343.69241 1008.2188 350.28125 C 1008.0371 350.29273 1008.0706 350.28837 1007.6875 350.3125 C 1004.209 350.59957 1000.7501 351.0488 997.3125 351.65625 C 994.70443 351.9867 992.11378 352.43059 989.5 352.71875 C 986.80967 353.06504 984.11676 353.0483 981.40625 353 C 978.00545 352.99808 974.58609 353.02347 971.1875 353.15625 C 966.74232 353.35695 962.29811 353.67485 957.96875 354.78125 C 954.3097 355.72632 950.83152 356.3016 947.03125 356.3125 C 939.96775 356.76397 932.89437 357.10075 925.8125 356.9375 C 916.14 356.94913 906.45304 356.93286 896.78125 357.0625 C 892.79121 357.18449 888.77972 357.22878 884.84375 357.96875 C 881.40112 358.23215 878.03842 358.919 874.65625 359.59375 C 866.87583 361.00769 858.98161 361.45401 851.09375 361.90625 C 840.52135 362.50756 829.93748 362.96934 819.34375 362.78125 C 810.11152 362.78395 800.88843 362.7942 791.65625 362.75 C 780.43974 362.67218 769.19713 362.5312 758 361.8125 C 747.80171 361.04371 737.63367 359.87725 727.5 358.5 C 719.01712 357.30959 710.55104 356.24481 702 355.6875 C 693.78726 354.80827 685.55036 354.0264 677.40625 352.625 C 673.61885 351.94487 669.8039 351.23451 665.96875 350.875 C 661.33734 350.44085 656.67253 350.54055 652.03125 350.3125 C 640.86226 350.07858 629.67091 350.24275 618.5 350.21875 C 608.40068 350.28275 598.31421 350.41962 588.21875 350.71875 C 577.04887 351.02689 565.89388 351.23175 554.71875 351.15625 C 542.94603 351.24934 531.16227 351.4077 519.40625 352.09375 C 506.78023 352.87037 494.17377 353.92477 481.5625 354.90625 C 469.74462 355.41299 457.91357 355.78858 446.09375 356.25 C 435.0994 356.53798 424.11535 357.04981 413.15625 358 C 403.22768 358.58346 393.32473 359.14586 383.375 358.625 C 374.69396 358.40155 365.997 357.91525 357.3125 357.90625 C 348.32853 357.90635 339.35888 357.8892 330.375 357.9375 C 321.16611 358.00427 311.94705 358.07725 302.75 358.59375 C 292.98448 359.16605 283.22412 359.8033 273.4375 359.875 C 263.11906 359.8627 252.81845 359.867 242.5 359.875 C 231.16739 359.885 219.8326 359.8942 208.5 359.875 C 198.39504 359.87338 188.29148 359.87819 178.1875 359.71875 C 168.86739 359.52896 159.54525 359.20708 150.25 358.46875 C 140.46035 357.84652 130.65115 357.7468 120.84375 357.6875 C 109.01935 357.50765 97.197912 357.07695 85.375 357.4375 C 75.673033 357.87005 65.962253 358.56397 56.25 358.75 C 49.971128 358.8924 43.686516 358.88135 37.40625 358.84375 L 34.34375 361.0625 C 40.67621 361.03128 46.981908 361.07641 53.3125 360.90625 C 63.026339 360.70827 72.733653 360.02826 82.4375 359.59375 C 94.273278 359.17986 106.13111 359.58271 117.96875 359.78125 C 127.75268 359.88209 137.51379 359.98756 147.28125 360.59375 C 156.57985 361.33001 165.89538 361.64904 175.21875 361.84375 C 185.32804 361.98221 195.45247 361.995 205.5625 362 C 216.90195 361.9766 228.25428 361.96475 239.59375 361.96875 C 249.91287 361.97175 260.21212 361.98125 270.53125 361.96875 C 280.3056 361.90327 290.05838 361.34507 299.8125 360.78125 C 309.01227 360.25869 318.22551 360.16565 327.4375 360.09375 C 336.41185 360.04505 345.40056 360.0555 354.375 360.0625 C 363.0649 360.06495 371.75092 360.53397 380.4375 360.75 C 390.40104 361.25657 400.30781 360.75455 410.25 360.15625 C 421.21319 359.2113 432.22107 358.64745 443.21875 358.34375 C 455.04267 357.87379 466.86529 357.54112 478.6875 357.03125 C 491.3079 356.06349 503.92848 354.96593 516.5625 354.1875 C 528.30212 353.50463 540.05629 353.36525 551.8125 353.28125 C 562.99435 353.37374 574.1672 353.1119 585.34375 352.8125 C 595.42202 352.52694 605.48074 352.40755 615.5625 352.34375 C 626.7423 352.32885 637.94704 352.16521 649.125 352.40625 C 653.74716 352.63814 658.38761 352.57048 663 353 C 666.82103 353.35582 670.60128 354.04434 674.375 354.71875 C 682.52972 356.13323 690.77662 356.91713 699 357.8125 C 707.55017 358.41248 716.04346 359.41424 724.53125 360.59375 C 734.68332 361.96815 744.8761 363.1548 755.09375 363.90625 C 766.28731 364.61988 777.50614 364.77342 788.71875 364.875 C 797.94423 364.9295 807.18067 364.91995 816.40625 364.90625 C 827.01344 365.05317 837.60077 364.63496 848.1875 364.03125 C 856.0441 363.58031 863.92811 363.2022 871.6875 361.84375 C 875.04402 361.19486 878.37221 360.51174 881.78125 360.21875 C 885.7431 359.51527 889.7691 359.414 893.78125 359.28125 C 903.4836 359.0658 913.20198 359.0655 922.90625 359.0625 C 929.94998 359.23652 936.97109 358.94163 944 358.53125 C 947.73875 358.52041 951.35884 357.98421 954.96875 357.0625 C 959.28483 355.93049 963.74894 355.58924 968.1875 355.375 C 971.56843 355.23694 974.9294 355.24914 978.3125 355.25 C 981.02716 355.27672 983.73853 355.3178 986.4375 355 C 989.0568 354.71565 991.6708 354.28699 994.28125 353.9375 C 997.71554 353.34103 1001.1516 352.8547 1004.625 352.5625 C 1006.2784 352.45534 1005.5135 352.5133 1006.9375 352.4375 L 1008.4062 351.34375 C 1008.5505 352.26045 1008.6676 353.17671 1008.8125 354.09375 C 1010.0386 361.23098 1011.0236 368.40462 1011.5938 375.625 C 1012.3519 386.99867 1012.3727 398.38791 1012.4688 409.78125 C 1012.5845 423.11271 1011.0313 436.39536 1009.5625 449.625 C 1008.9225 456.57271 1007.7998 463.43604 1007.0938 470.375 C 1006.2763 475.38839 1005.976 480.46299 1005.7812 485.53125 C 1005.389 491.25417 1004.5521 496.93799 1004.0938 502.65625 C 1003.7707 506.89601 1003.6735 511.12469 1003.6562 515.375 C 1003.6562 519.75245 1003.6563 524.1538 1003.6562 528.53125 C 1003.5974 532.50946 1003.6422 536.47027 1003.9375 540.4375 C 1004.3539 544.60041 1004.3436 548.77178 1004.6875 552.9375 C 1005.2473 560.44807 1005.4054 568.00321 1005.5312 575.53125 C 1005.5326 583.3935 1005.6961 591.24809 1006.2188 599.09375 C 1006.736 605.49696 1007.0893 611.88532 1007.6875 618.28125 C 1008.1729 623.54426 1008.3673 628.84287 1008.4688 634.125 C 1008.5317 638.02368 1008.512 641.91347 1008.5 645.8125 C 1008.2486 648.36078 1007.8892 650.88356 1007.6875 653.4375 C 1007.2273 655.62618 1006.9026 657.83399 1006.7188 660.0625 C 1006.2409 662.60253 1005.2216 665.05096 1004.3125 667.46875 C 1003.5593 669.9124 1002.9361 672.38629 1002.3438 674.875 L 1005.7812 673.21875 C 1006.38 670.74613 1006.991 668.26161 1007.7812 665.84375 C 1008.6812 663.39253 1009.7224 660.9631 1010.125 658.375 C 1010.3187 656.14698 1010.6892 653.94799 1011.0938 651.75 C 1011.2985 649.19204 1011.679 646.65159 1011.875 644.09375 C 1011.868 640.19722 1011.8765 636.30235 1011.8125 632.40625 C 1011.6873 627.12017 1011.4727 621.83058 1011 616.5625 C 1010.4018 610.17991 1010.005 603.79475 1009.4688 597.40625 C 1008.9511 589.56148 1008.8325 581.70408 1008.8125 573.84375 C 1008.6632 566.29682 1008.4624 558.75564 1008.0312 551.21875 C 1007.6998 547.05426 1007.6934 542.84834 1007.2812 538.6875 C 1006.9956 534.72547 1006.9882 530.7842 1007.0312 526.8125 C 1007.0213 522.43831 1006.9992 518.06167 1007.0312 513.6875 C 1007.0743 509.45015 1007.1232 505.19644 1007.4375 500.96875 C 1007.8973 495.2476 1008.7308 489.56914 1009.125 483.84375 C 1009.322 478.78007 1009.6686 473.73232 1010.4375 468.71875 C 1011.1331 461.80639 1012.1748 454.95421 1012.7812 448.03125 C 1014.2071 434.79518 1015.649 421.51606 1015.625 408.1875 C 1015.5906 396.77364 1015.5511 385.33195 1014.8125 373.9375 C 1014.2909 366.69497 1013.3748 359.51781 1012.0625 352.375 C 1010.7855 344.51213 1009.5741 336.6443 1008.75 328.71875 C 1007.9647 323.0583 1006.9802 317.44085 1006.1875 311.78125 C 1005.149 305.77811 1003.9545 299.80829 1002.875 293.8125 C 1001.7477 288.13771 1000.7604 282.41065 999.5625 276.75 C 998.48814 271.25209 997.83038 265.68585 996.9375 260.15625 C 996.11165 254.95265 995.56292 249.73386 994.96875 244.5 C 994.35903 238.82162 994.33045 233.11347 994.40625 227.40625 C 994.38385 220.31961 994.37635 213.24291 994.40625 206.15625 C 994.45681 199.68331 994.49425 193.20544 995.03125 186.75 C 995.59577 180.73513 996.32906 174.72988 998.125 168.9375 C 998.86465 165.89886 999.19579 162.75386 1000.0938 159.75 C 1001.0249 155.70907 1002.0215 151.70139 1003.0625 147.6875 C 1004.3158 142.72227 1005.8456 137.82449 1007.0312 132.84375 C 1007.9556 127.81753 1008.1097 122.72828 1008 117.625 C 1007.9912 111.55057 1007.9882 105.47979 1007.875 99.40625 C 1007.7311 94.931063 1007.4246 90.476509 1006.625 86.0625 C 1005.9379 81.453327 1005.4799 76.790311 1004.75 72.1875 C 1004.1114 68.25323 1003.4532 64.314011 1003.125 60.34375 C 1003.0699 57.556506 1003.0208 54.752317 1002.5312 52 C 1002.4001 51.195377 1002.2799 50.398698 1002.1562 49.59375 C 1002.2708 49.587669 1002.3855 49.568133 1002.5 49.5625 L 1003.7812 49.4375 L 1006.8125 47.15625 L 1005.5625 47.3125 C 1004.3187 47.3658 1003.0824 47.476325 1001.8438 47.59375 C 1001.6526 46.221978 1001.4724 44.850511 1001.3438 43.46875 z M 35.5625 53.15625 L 32.15625 54.90625 C 31.821899 58.695514 31.206846 62.434544 30.8125 66.21875 C 30.321583 69.856506 30.365375 73.484354 30.6875 77.125 C 31.12895 80.902976 32.045956 84.575293 33 88.25 C 33.996385 92.348868 34.928167 96.448355 35.53125 100.625 C 36.255573 106.37533 36.626065 112.18041 36.875 117.96875 C 37.025784 121.94472 37.02605 125.92801 37.03125 129.90625 C 37.03335 134.40886 37.02305 138.90366 37.03125 143.40625 C 37.117986 148.63031 36.910773 153.83793 36.34375 159.03125 C 35.666369 163.6327 35.378931 168.29378 35.21875 172.9375 C 34.747334 177.71931 34.594323 182.52958 34.15625 187.3125 C 33.600234 192.00182 33.543828 196.7049 33.15625 201.40625 C 32.859653 205.78263 32.354405 210.14531 31.84375 214.5 C 31.519891 217.89052 31.18183 221.27922 30.53125 224.625 C 29.812748 228.16907 29.09515 231.71616 28.6875 235.3125 C 28.059038 239.16185 27.857067 243.04154 27.375 246.90625 C 26.756644 250.88584 26.612686 254.91832 26.5 258.9375 C 26.39193 264.38672 26.40235 269.83116 26.40625 275.28125 C 26.40282 281.33665 26.40295 287.41335 26.40625 293.46875 C 26.275877 300.34973 26.720422 307.22202 27 314.09375 C 27.269344 320.70366 27.3237 327.29196 27.375 333.90625 C 27.40981 341.67842 27.41555 349.47778 27.40625 357.25 C 27.416023 364.59622 27.506147 371.91813 27 379.25 C 26.336434 387.01893 26.063032 394.79588 25.0625 402.53125 C 24.372828 408.41752 23.723598 414.3191 23.15625 420.21875 C 22.678634 425.91025 22.5947 431.636 22.53125 437.34375 C 22.49103 442.68728 22.52865 448.03138 22.53125 453.375 C 22.53529 458.41478 22.53305 463.42896 22.53125 468.46875 C 22.662565 473.03297 22.233801 477.64506 22.75 482.1875 C 23.672947 486.81791 23.913708 491.5326 24.375 496.21875 C 24.937819 501.33358 25.161776 506.45255 25.3125 511.59375 C 25.608082 515.33488 26.019162 519.06424 26.21875 522.8125 C 26.398641 527.24145 26.40125 531.69312 26.40625 536.125 C 26.228481 540.49292 26.674452 544.83717 26.96875 549.1875 C 27.268863 554.48206 27.31069 559.79216 27.34375 565.09375 C 27.36413 570.01235 27.3707 574.92514 27.375 579.84375 C 27.432601 585.15145 27.259422 590.44656 27.5 595.75 C 27.900965 601.67985 28.121913 607.62123 28.25 613.5625 C 28.351274 618.94099 28.185117 624.32096 28.59375 629.6875 C 28.880722 633.05961 29.025227 636.42954 29.5 639.78125 C 29.771258 642.66771 30.362708 645.5092 30.78125 648.375 C 31.084875 650.50694 31.14982 652.66245 31.1875 654.8125 C 31.20586 657.1672 31.21575 659.52023 31.21875 661.875 C 31.15877 665.42935 31.363416 668.98453 31.09375 672.53125 C 30.983712 673.91296 30.796875 675.27318 30.5 676.625 L 33.90625 674.96875 C 34.178798 673.60268 34.36996 672.2352 34.46875 670.84375 C 34.697018 667.2864 34.52625 663.71914 34.59375 660.15625 C 34.60213 657.7948 34.62657 655.42387 34.59375 653.0625 C 34.549193 650.89953 34.444921 648.73658 34.125 646.59375 C 33.691472 643.73233 33.11572 640.91577 32.84375 638.03125 C 32.374522 634.69133 32.236242 631.32739 31.9375 627.96875 C 31.518227 622.6194 31.63118 617.23733 31.53125 611.875 C 31.4187 605.92598 31.199487 600.00047 30.8125 594.0625 C 30.594501 588.76122 30.71852 583.42971 30.6875 578.125 C 30.696 573.20818 30.71731 568.29175 30.6875 563.375 C 30.648021 558.0625 30.601179 552.77497 30.3125 547.46875 C 30.037328 543.1267 29.574336 538.76551 29.75 534.40625 C 29.738223 529.96276 29.738694 525.53455 29.5625 521.09375 C 29.356946 517.3515 28.94018 513.61127 28.65625 509.875 C 28.474616 504.73004 28.234156 499.58964 27.6875 494.46875 C 27.228389 489.7783 27.008567 485.07319 26.09375 480.4375 C 25.605836 475.90795 25.966913 471.33022 25.84375 466.78125 C 25.83941 461.74259 25.84955 456.6949 25.84375 451.65625 C 25.83755 446.31579 25.83833 440.99663 25.875 435.65625 C 25.931878 429.95666 26.008465 424.24446 26.5 418.5625 C 27.066648 412.67269 27.688785 406.78304 28.375 400.90625 C 29.335578 393.16659 29.603514 385.39261 30.28125 377.625 C 30.790313 370.28314 30.71684 362.91903 30.6875 355.5625 C 30.68258 347.78884 30.67387 340.02364 30.65625 332.25 C 30.638026 325.63053 30.568431 318.98914 30.28125 312.375 C 29.994809 305.5057 29.583789 298.66011 29.71875 291.78125 C 29.71805 285.72436 29.72545 279.65063 29.71875 273.59375 C 29.726267 268.14182 29.714163 262.70077 29.84375 257.25 C 29.971793 253.23633 30.172465 249.2249 30.78125 245.25 C 31.239596 241.38118 31.427407 237.47466 32.0625 233.625 C 32.480449 230.03562 33.214575 226.50647 33.9375 222.96875 C 34.554855 219.61304 34.90886 216.23997 35.21875 212.84375 C 35.726598 208.48821 36.18829 204.12517 36.5 199.75 C 36.876484 195.04887 36.97097 190.31287 37.53125 185.625 C 37.947326 180.83499 38.114699 176.0388 38.5625 171.25 C 38.733131 166.61402 39.032115 161.97148 39.6875 157.375 C 40.22644 152.16846 40.45971 146.92204 40.375 141.6875 C 40.38861 137.18026 40.40195 132.69475 40.40625 128.1875 C 40.401161 124.20732 40.407685 120.22679 40.21875 116.25 C 39.939833 110.44786 39.463583 104.65095 38.84375 98.875 C 38.220636 94.690697 37.283502 90.545884 36.28125 86.4375 C 35.345709 82.77626 34.489939 79.136448 34.0625 75.375 C 33.748244 71.762623 33.703175 68.171434 34.1875 64.5625 C 34.592083 60.75472 35.213498 56.969082 35.5625 53.15625 z M 392.28125 664.71875 C 389.50741 664.7367 386.71195 664.83286 383.9375 665.03125 C 373.37032 665.60063 362.85861 666.55224 352.34375 667.75 C 340.38252 668.66411 328.44302 669.72377 316.53125 671.15625 C 304.38346 672.54943 292.19012 673.69438 280.1875 676.125 C 277.31362 676.60931 274.44758 677.15019 271.5625 677.5625 C 267.06601 678.20511 262.51527 678.36755 258.03125 679.125 C 251.12548 679.97837 244.30235 681.33974 237.375 682.03125 C 230.93522 682.86767 224.46279 683.1845 217.96875 683.1875 C 210.1937 683.40151 202.4021 683.80078 194.625 683.9375 C 190.64471 683.90936 189.36474 683.99683 185.46875 683.625 C 182.23283 683.31617 179.06232 682.56529 175.84375 682.15625 C 174.87519 682.03317 173.87882 681.99205 172.90625 681.90625 C 165.49778 681.29689 158.08356 680.95884 150.65625 680.6875 C 140.21216 680.27375 129.77105 679.68855 119.34375 678.96875 C 110.28905 678.14269 101.23193 677.08457 92.15625 676.5 C 82.506249 676.40785 72.887088 676.72253 63.25 677.21875 C 56.538502 677.50092 49.793838 677.47859 43.09375 678 L 40.03125 680.28125 C 46.763304 679.62965 53.528584 679.65906 60.28125 679.375 C 69.925878 678.88254 79.592265 678.50915 89.25 678.59375 C 98.31518 679.13895 107.33167 680.29301 116.375 681.09375 C 126.81284 681.80197 137.26621 682.33785 147.71875 682.78125 C 155.11808 683.05692 162.52489 683.46841 169.90625 684.0625 C 174.12981 684.29518 178.23068 685.35495 182.4375 685.75 C 186.28972 686.11178 187.76224 686.0303 191.6875 686.0625 C 199.44619 685.94843 207.21246 685.58533 214.96875 685.375 C 221.46968 685.36726 227.95688 685.0361 234.40625 684.21875 C 241.33256 683.51958 248.15877 682.17869 255.0625 681.3125 C 259.54527 680.55695 264.09836 680.42054 268.59375 679.78125 C 268.93227 679.73311 277.22015 678.3229 277.28125 678.3125 C 289.30264 675.848 301.51285 674.63115 313.6875 673.25 C 325.58789 671.82777 337.51983 670.78703 349.46875 669.875 C 359.96657 668.70032 370.48179 667.73244 381.03125 667.1875 C 388.41246 666.68113 395.77546 666.92516 403.15625 667.21875 C 410.36454 667.51403 417.56769 667.64025 424.78125 667.71875 C 432.39316 667.66156 439.97292 668.43563 447.5625 668.90625 C 455.70483 669.40024 463.86788 669.82324 472 670.46875 C 478.11575 670.986 484.18617 671.8461 490.25 672.78125 C 499.54219 673.97901 508.90115 674.6755 518.25 675.25 C 535.32419 676.24255 552.3984 677.3654 569.46875 678.4375 C 582.76807 679.34791 596.07969 679.93477 609.40625 680.21875 C 620.74543 680.83577 632.07238 681.64265 643.40625 682.34375 C 653.92615 683.06647 664.46462 683.04655 675 683.3125 C 688.37504 683.82907 701.74314 684.41011 715.125 684.75 C 726.5084 685.03226 737.89483 685.1498 749.28125 685.1875 C 758.56618 684.99525 767.85375 684.66273 777.125 684.125 C 784.18745 684.04361 791.15345 682.91924 798.15625 682.15625 C 804.53672 681.51775 810.96821 681.42115 817.375 681.34375 C 822.55726 681.21778 827.7083 681.62401 832.84375 682.28125 C 836.07945 682.7472 839.36076 683.05649 842.625 683.21875 C 845.24417 683.30775 847.84836 683.3145 850.46875 683.3125 C 853.41817 683.3037 856.36307 683.28525 859.3125 683.28125 C 863.32114 683.27025 867.33509 683.27725 871.34375 683.28125 C 874.81494 683.31201 878.27827 682.90224 881.71875 682.46875 C 886.27346 682.05863 890.77841 681.37978 895.28125 680.59375 C 899.30744 680.01203 903.32469 679.4133 907.34375 678.78125 C 911.85177 678.08637 916.41511 677.77693 920.96875 677.59375 C 925.21726 677.54539 929.43617 677.42964 933.65625 676.90625 C 937.72271 676.2182 941.82209 675.89046 945.9375 675.6875 C 949.07037 675.5511 952.20849 675.53225 955.34375 675.53125 C 958.35452 675.53025 961.36424 675.52725 964.375 675.53125 C 967.64985 675.52825 970.9439 675.52825 974.21875 675.53125 C 976.69681 675.60338 979.18623 675.42107 981.65625 675.65625 C 984.57072 676.10822 987.52511 676.28685 990.46875 676.40625 C 993.28225 676.48762 996.09176 676.4834 998.90625 676.5 L 1001.9688 674.28125 C 999.15357 674.27515 996.34529 674.2739 993.53125 674.1875 C 990.60105 674.07376 987.64772 673.91404 984.75 673.4375 C 982.27142 673.14302 979.7725 673.3888 977.28125 673.3125 C 974.00633 673.3145 970.74367 673.3205 967.46875 673.3125 C 964.45978 673.3114 961.44646 673.28525 958.4375 673.28125 C 955.29074 673.28757 952.14433 673.2981 949 673.4375 C 944.8769 673.63879 940.75932 673.94599 936.6875 674.65625 C 932.47758 675.22103 928.24276 675.29835 924 675.34375 C 919.43865 675.52053 914.89431 675.86441 910.375 676.53125 C 906.3507 677.16295 902.31366 677.76968 898.28125 678.34375 C 893.78748 679.12924 889.30069 679.84768 884.75 680.21875 C 881.31827 680.65985 877.86805 681.06269 874.40625 681.0625 C 870.40374 681.0665 866.3775 681.0695 862.375 681.0625 C 859.42881 681.0625 856.50869 681.06345 853.5625 681.0625 C 850.94606 681.0629 848.30298 681.0836 845.6875 681 C 842.41652 680.86063 839.18005 680.5853 835.9375 680.125 C 830.77984 679.46529 825.5802 679.0304 820.375 679.15625 C 813.96048 679.23508 807.51475 679.34857 801.125 679.96875 C 794.10714 680.71681 787.13967 681.89035 780.0625 681.96875 C 770.78807 682.52159 761.50759 682.82762 752.21875 683.03125 C 740.80134 683.0095 729.38378 682.97392 717.96875 682.71875 C 704.60495 682.38816 691.2625 681.74164 677.90625 681.21875 C 667.37768 680.92507 656.82838 680.92553 646.3125 680.25 C 634.97882 679.56657 623.67976 678.7406 612.34375 678.09375 C 598.96973 677.84522 585.59839 677.31938 572.25 676.4375 C 555.2121 675.38832 538.16106 674.21278 521.125 673.15625 C 511.82563 672.53941 502.52718 671.84283 493.28125 670.65625 C 487.21133 669.70711 481.12737 668.83494 475 668.34375 C 466.85379 667.69542 458.68645 667.29901 450.53125 666.78125 C 442.95441 666.30128 435.3818 665.5091 427.78125 665.5625 C 420.56342 665.49153 413.36847 665.37046 406.15625 665.0625 C 401.53249 664.86511 396.90432 664.68884 392.28125 664.71875 z "
       id="path3772" />
    <text
       xml:space="preserve"
       style="font-size:40px;font-style:normal;font-variant:normal;font-weight:normal;font-stretch:normal;line-height:125%;letter-spacing:0px;word-spacing:0px;fill:#000000;fill-opacity:1;stroke:none;font-family:Segoe Print;-inkscape-font-specification:Segoe Print"
       x="48.380653"
       y="98.696533"
       id="text3800"
       sodipodi:linespacing="125%"><tspan
         sodipodi:role="line"
         id="tspan3802"
         x="48.380653"
         y="98.696533">Conference</tspan><tspan
         sodipodi:role="line"
         x="48.380653"
         y="148.69653"
         id="tspan3804">Management</tspan><tspan
         sodipodi:role="line"
         x="48.380653"
         y="198.69653"
         id="tspan3806">(CRUD)</tspan></text>
    <text
       xml:space="preserve"
       style="font-size:40px;font-style:normal;font-variant:normal;font-weight:normal;font-stretch:normal;line-height:125%;letter-spacing:0px;word-spacing:0px;fill:#000000;fill-opacity:1;stroke:none;font-family:Segoe Print;-inkscape-font-specification:Segoe Print"
       x="707.3252"
       y="105.46983"
       id="text3808"
       sodipodi:linespacing="125%"><tspan
         sodipodi:role="line"
         id="tspan3810"
         x="707.3252"
         y="105.46983">Orders and</tspan><tspan
         sodipodi:role="line"
         x="707.3252"
         y="155.46983"
         id="tspan3812">Registrations</tspan><tspan
         sodipodi:role="line"
         x="707.3252"
         y="205.46983"
         id="tspan3814">(CQRS/ES)</tspan></text>
    <text
       xml:space="preserve"
       style="font-size:40px;font-style:normal;font-variant:normal;font-weight:normal;font-stretch:normal;line-height:125%;letter-spacing:0px;word-spacing:0px;fill:#000000;fill-opacity:1;stroke:none;font-family:Segoe Print;-inkscape-font-specification:Segoe Print"
       x="362.85495"
       y="445.10202"
       id="text3816"
       sodipodi:linespacing="125%"><tspan
         sodipodi:role="line"
         x="362.85495"
         y="445.10202"
         id="tspan7341">On-site</tspan><tspan
         sodipodi:role="line"
         x="362.85495"
         y="495.10202"
         id="tspan7353">Management</tspan><tspan
         sodipodi:role="line"
         x="362.85495"
         y="545.10199"
         id="tspan7343">App</tspan><tspan
         sodipodi:role="line"
         x="362.85495"
         y="595.10199"
         id="tspan7347">(CQRS/?)</tspan><tspan
         sodipodi:role="line"
         x="362.85495"
         y="645.10199"
         id="tspan7359"
         style="font-size:24px">Occasionally Disconnected</tspan></text>
    <text
       xml:space="preserve"
       style="font-size:40px;font-style:normal;font-variant:normal;font-weight:normal;font-stretch:normal;line-height:125%;letter-spacing:0px;word-spacing:0px;fill:#000000;fill-opacity:1;stroke:none;font-family:Segoe Print;-inkscape-font-specification:Segoe Print"
       x="792.47516"
       y="589.27637"
       id="text3826"
       sodipodi:linespacing="125%"><tspan
         sodipodi:role="line"
         id="tspan3828"
         x="792.47516"
         y="589.27637">Payments</tspan><tspan
         sodipodi:role="line"
         x="792.47516"
         y="639.27637"
         id="tspan3830">(CQRS)</tspan></text>
    <text
       xml:space="preserve"
       style="font-size:40px;font-style:normal;font-variant:normal;font-weight:normal;font-stretch:normal;line-height:125%;letter-spacing:0px;word-spacing:0px;fill:#808080;fill-opacity:1;stroke:none;font-family:Segoe Print;-inkscape-font-specification:Segoe Print"
       x="34.834072"
       y="593.14685"
       id="text3832"
       sodipodi:linespacing="125%"><tspan
         sodipodi:role="line"
         id="tspan3834"
         x="34.834072"
         y="593.14685">Feedback</tspan><tspan
         sodipodi:role="line"
         x="34.834072"
         y="643.14685"
         id="tspan3836">(Legacy/CQRS)</tspan></text>
    <path
       style="fill:#008000;stroke:none"
       d="m 297.5614,234.03125 -2.65515,1.54624 c 1.38621,2.43862 3.1615,4.5799 4.85942,6.79329 1.45267,1.9504 3.05856,3.77164 4.53379,5.70333 1.31849,1.4523 2.43077,3.08365 3.5569,4.6894 2.18204,2.74199 4.3811,5.46865 6.36233,8.36488 1.90543,3.03699 3.73013,6.11282 5.51069,9.22672 2.10974,3.52904 3.99937,7.20109 6.0367,10.77295 2.20858,3.89946 4.71873,7.59322 7.13884,11.35596 2.03776,3.43061 3.47554,7.15282 5.13496,10.77295 2.3238,4.87123 5.06966,9.53513 7.94039,14.09355 2.53353,3.7382 4.8155,7.58393 6.91341,11.58409 2.54742,4.44119 5.18358,8.85141 8.06563,13.07963 2.51494,3.66436 5.24457,7.14568 7.74001,10.82365 2.50317,3.79904 5.08561,7.56712 7.81515,11.20387 2.12018,2.99118 4.55994,5.73078 6.83826,8.59301 2.02925,2.8624 3.93053,5.82102 5.91146,8.71976 1.7863,2.37561 3.45987,4.82905 5.18506,7.24956 1.29364,1.97814 2.83787,3.72872 4.38349,5.50054 0.37494,0.54123 0.78242,1.06673 1.20234,1.57159 -1.89845,-0.98188 -3.85889,-1.67658 -5.96156,-2.02785 -1.38365,-0.19643 -2.79696,-0.21586 -4.18311,-0.38023 l -2.47981,1.77437 c 1.3847,0.18694 2.77128,0.20108 4.15806,0.38022 2.13472,0.32848 4.13394,1.00831 6.06175,2.00251 1.03427,0.61657 1.92083,1.38752 2.83049,2.17993 0.1893,0.16489 0.30478,0.54898 0.55107,0.50697 0.17708,-0.0302 0.35333,-0.0794 0.52602,-0.12674 -0.029,0.12673 -0.0742,0.2236 -0.12524,0.27883 0.16598,-0.13702 0.34835,-0.25444 0.52602,-0.38023 0.77081,-0.2593 1.5127,-0.63727 2.27942,-0.91253 0.34648,-1.54375 -0.17007,-3.25217 -0.0501,-4.81614 -0.18709,-2.20101 -0.61208,-4.3708 -1.40272,-6.43842 -0.87831,-2.3321 -1.6729,-4.70948 -2.83049,-6.92004 l -2.65515,1.54623 c 1.17995,2.17978 1.95519,4.55457 2.83049,6.86934 0.33307,0.8734 0.57088,1.75755 0.77651,2.66156 -1.35151,-1.55065 -2.69256,-3.11133 -3.83243,-4.84149 -1.73076,-2.41486 -3.38271,-4.86222 -5.18506,-7.22422 -1.99414,-2.89887 -3.90273,-5.85938 -5.91146,-8.7451 -2.29645,-2.84695 -4.73815,-5.57977 -6.8633,-8.56766 -2.73215,-3.62794 -5.29286,-7.38217 -7.79011,-11.17853 -2.49209,-3.68373 -5.27013,-7.15955 -7.7901,-10.82364 -2.8728,-4.22036 -5.46831,-8.61213 -7.99049,-13.05429 -2.0992,-4.01073 -4.44696,-7.86649 -6.98855,-11.60943 -2.86154,-4.54863 -5.60691,-9.19117 -7.8903,-14.06821 -1.65594,-3.63769 -3.10286,-7.38733 -5.16001,-10.82365 -2.41672,-3.75833 -4.93726,-7.43308 -7.13884,-11.33061 -2.03299,-3.57443 -3.89936,-7.24521 -6.01165,-10.77295 -1.78623,-3.12032 -3.61377,-6.21558 -5.53573,-9.25206 -1.98834,-2.88937 -4.15916,-5.62691 -6.31224,-8.39023 -1.12012,-1.61501 -2.2485,-3.24497 -3.58195,-4.6894 -1.47963,-1.9298 -3.07489,-3.75621 -4.53379,-5.70333 -1.69186,-2.19802 -3.4702,-4.31851 -4.80932,-6.76795 z m 103.90144,161.67031 c -0.007,0.21803 2.8e-4,0.50847 0.025,0.91254 -0.1246,-0.0993 -0.24861,-0.2126 -0.37573,-0.30418 -0.10063,-0.0725 -0.22006,-0.11251 -0.32563,-0.17744 l 0.67631,-0.43092 z"
       id="path3843"
       inkscape:connector-curvature="0" />
    <path
       style="fill:#008000;stroke:none"
       d="M 81.8125 248.65625 L 78.34375 250.3125 C 77.423694 254.01586 77.128934 257.82836 76.90625 261.625 C 76.643741 265.63424 76.83454 269.65001 76.5625 273.65625 C 76.054322 278.68675 75.96859 283.7301 75.875 288.78125 C 75.951875 295.98038 75.531104 303.17639 74.90625 310.34375 C 74.360493 316.49082 74.1331 322.63144 73.3125 328.75 C 72.69106 334.28906 71.920906 339.82435 71.40625 345.375 C 70.920885 349.88316 70.099778 354.33366 69.40625 358.8125 C 68.48431 364.25425 67.912251 369.73961 67.28125 375.21875 C 66.821066 379.41369 66.03173 383.56312 65.15625 387.6875 C 64.390444 391.00176 64.24972 394.39612 64.15625 397.78125 C 64.282771 401.73318 63.82304 405.66421 63.5 409.59375 C 63.067552 412.76253 62.453671 415.88158 61.90625 419.03125 C 61.567374 421.30926 60.965484 423.54096 60.59375 425.8125 C 59.163104 424.70189 58.559818 422.58872 57.3125 421.34375 C 55.743792 419.08556 54.153945 416.836 52.4375 414.6875 L 49.125 416.65625 C 50.878949 418.76475 52.470385 421.02735 54.03125 423.28125 C 55.384294 424.7066 56.014689 426.98657 57.71875 428.09375 C 58.008868 428.28225 58.334813 428.34077 58.65625 428.46875 C 59.244312 428.3849 59.808111 428.24944 60.34375 428.0625 C 60.334545 428.18867 60.328195 428.16608 60.3125 428.375 L 63.75 426.6875 C 63.786489 426.23373 63.800591 426.14673 63.8125 426 C 65.245473 424.76935 66.468336 423.24688 67.53125 421.71875 C 68.655619 419.82552 70.036092 418.22806 71.75 416.90625 C 71.750187 416.90409 71.778578 416.91001 71.78125 416.90625 C 71.981845 416.82625 72.727112 416.40569 73.03125 416.25 C 74.175922 415.66401 75.296247 415.06163 76.46875 414.53125 L 79.4375 412.15625 C 75.850902 413.70876 72.493815 415.78386 69.09375 417.6875 C 67.12434 419.11472 65.541613 420.85172 64.25 422.90625 C 64.611507 421.0604 65.048103 419.24037 65.3125 417.375 C 65.859707 414.21762 66.512523 411.08851 66.90625 407.90625 C 67.231471 403.97251 67.61653 400.01688 67.53125 396.0625 C 67.638217 392.69449 67.805818 389.32869 68.5625 386.03125 C 69.430709 381.90667 70.177024 377.7563 70.625 373.5625 C 71.245165 368.08173 71.819188 362.59663 72.75 357.15625 C 73.466667 352.67664 74.284663 348.20244 74.75 343.6875 C 75.261398 338.14432 76.028758 332.65551 76.65625 327.125 C 77.458619 321.00561 77.657473 314.83446 78.1875 308.6875 C 78.798152 301.50962 79.20761 294.33283 79.15625 287.125 C 79.265987 282.06708 79.43132 277.00564 79.9375 271.96875 C 80.184349 267.963 80.018415 263.94477 80.28125 259.9375 C 80.514881 256.15242 80.811235 252.33002 81.8125 248.65625 z "
       id="path3848" />
    <path
       style="fill:#008000;stroke:none"
       d="M 685.40625 270.75 L 681.875 272.25 C 678.73009 276.37874 675.90925 280.72712 673.0625 285.0625 C 668.85084 291.75375 664.83381 298.59016 660.9375 305.46875 C 655.53547 314.1373 651.57826 323.56212 647.3125 332.8125 C 644.22792 339.2431 641.3483 345.79473 638.25 352.21875 C 636.12567 357.23072 633.49588 361.97412 630.53125 366.53125 C 627.32239 371.49859 624.03606 376.38453 620.5 381.125 C 618.69072 383.7579 616.72825 386.28109 614.59375 388.65625 C 612.82991 390.47115 611.16244 392.37914 609.6875 394.4375 C 609.04816 395.42165 608.32273 396.32499 607.53125 397.1875 L 611.03125 395.6875 C 611.79918 394.8005 612.53486 393.88321 613.1875 392.90625 C 614.68988 390.87753 616.34115 389.00337 618.09375 387.1875 C 620.2051 384.80482 622.13553 382.2815 623.9375 379.65625 C 627.43351 374.8933 630.72674 369.99078 633.9375 365.03125 C 636.90134 360.45692 639.51946 355.67687 641.65625 350.65625 C 644.71541 344.24433 647.56786 337.72551 650.625 331.3125 C 654.87161 322.05339 658.82534 312.62541 664.25 303.96875 C 668.16716 297.09239 672.21407 290.28723 676.4375 283.59375 C 679.31593 279.23832 682.17624 274.85747 685.40625 270.75 z M 606.375 375.40625 L 602.9375 377.09375 C 602.68717 380.26756 602.02879 383.37643 601.625 386.53125 C 601.30404 389.1342 601.1776 391.75492 601.125 394.375 C 601.01576 396.25104 600.97478 397.93772 602.625 399.09375 C 604.68609 399.97737 606.88708 399.47379 609.03125 399.25 C 612.29215 399.00071 615.51664 398.38133 618.6875 397.59375 C 621.28818 396.79571 623.95172 396.31238 626.65625 396.0625 C 628.19959 395.83229 627.43553 395.95572 628.9375 395.6875 L 632 393.375 C 630.50506 393.65365 631.24612 393.52038 629.71875 393.78125 C 626.99513 394.01098 624.33071 394.48192 621.71875 395.3125 C 618.57298 396.135 615.33706 396.71555 612.09375 396.96875 C 610.01711 397.17274 607.87717 397.72173 605.84375 397.03125 C 604.2333 396.0622 604.47795 394.34303 604.53125 392.65625 C 604.58172 390.05283 604.67786 387.42986 605 384.84375 C 605.41562 381.6846 606.06063 378.57876 606.375 375.40625 z "
       id="path3860" />
    <path
       style="fill:#008000;stroke:none"
       id="path3865"
       d="m 666.94047,274.226 c 2.51373,-1.15276 5.20756,-1.82199 7.80351,-2.75394 2.32483,-0.70006 4.54232,-1.77044 6.97284,-2.02665 2.30804,0.11339 3.72193,1.70384 4.76705,3.60278 0.98752,3.17871 1.83324,6.39814 2.7889,9.59293 0.53282,2.19179 1.28666,4.3139 2.07805,6.42199 0,0 -3.33138,1.85027 -3.33138,1.85027 l 0,0 c -0.78797,-2.1204 -1.54759,-4.252 -2.06591,-6.45853 -0.93405,-3.17027 -1.8081,-6.3524 -2.77515,-9.50722 -0.98574,-1.79059 -2.32821,-3.25257 -4.52056,-3.22079 -2.3918,0.35051 -4.60516,1.38176 -6.90851,2.08022 -2.61027,0.90577 -5.30471,1.60512 -7.80045,2.81195 0,0 2.99161,-2.39301 2.99161,-2.39301 z"
       inkscape:connector-curvature="0" />
    <path
       style="fill:#008000;stroke:none"
       d="M 858.875 270.6875 C 858.59439 270.71484 858.30041 270.78821 858 270.875 C 856.60197 271.65235 855.17164 272.34399 853.8125 273.1875 C 852.2187 274.17664 851.63535 276.42197 850.6875 277.90625 C 849.47537 280.10428 848.24607 282.28602 847.1875 284.5625 L 850.6875 283 C 851.71996 280.7246 852.93479 278.52455 854.15625 276.34375 C 854.75161 275.21151 855.30568 274.01852 856.09375 273 C 857.8479 272.81844 859.26461 273.82418 860.75 274.90625 C 861.29174 275.30322 861.81097 275.71638 862.34375 276.125 L 861.40625 276.59375 C 861.68608 282.97371 862.79552 289.28539 863.71875 295.59375 C 864.53915 301.78572 865.4326 307.95985 865.9375 314.1875 C 866.317 319.79666 866.2939 325.41209 866.3125 331.03125 C 866.3266 337.66953 866.30185 344.29925 866.28125 350.9375 C 866.26825 355.64383 866.28625 360.35615 866.28125 365.0625 C 866.46517 370.057 867.02564 375.03153 867.53125 380 C 867.81888 383.72159 868.23126 387.41648 868.875 391.09375 C 869.45203 394.45435 869.98325 397.84306 870.46875 401.21875 C 870.75069 404.28396 871.28927 407.32033 871.65625 410.375 C 871.75933 414.02422 872.59609 417.54823 873.25 421.125 C 873.46173 422.21848 873.61091 423.33223 873.71875 424.4375 C 873.61532 424.59659 873.51485 424.75074 873.40625 424.90625 C 873.30806 424.88186 873.1979 424.85285 873.09375 424.8125 C 871.68209 424.26562 870.73864 422.90593 869.59375 422 C 866.85338 419.57836 863.96877 417.31491 860.78125 415.5 L 857.59375 417.59375 C 860.80092 419.32752 863.65605 421.59239 866.375 424 C 867.73208 425.06703 869.07216 427.09265 871 427.15625 C 871.76781 427.18159 872.85383 426.67746 873.84375 426.09375 C 873.90519 427.04972 873.94111 428.01101 873.96875 428.96875 C 873.99385 430.03965 873.997 431.11639 874 432.1875 L 877.40625 430.4375 C 877.40095 429.36427 877.4053 428.29165 877.375 427.21875 C 877.32834 425.83687 877.22302 424.46957 877.09375 423.09375 C 878.23519 421.18329 879.14141 419.16628 880.15625 417.1875 C 881.26016 414.9339 882.64184 412.92978 884.375 411.125 C 885.24212 410.33856 885.96327 409.42089 886.71875 408.53125 L 883.21875 410.03125 C 882.45914 410.91419 881.69404 411.79473 880.84375 412.59375 C 879.13237 414.4302 877.83297 416.49793 876.71875 418.75 C 876.66034 418.86538 876.58897 418.97768 876.53125 419.09375 C 875.86869 415.61077 875.11843 412.15282 875.03125 408.59375 C 874.65732 405.53894 874.1089 402.50223 873.8125 399.4375 C 873.31623 396.06025 872.81161 392.70486 872.21875 389.34375 C 871.59086 385.67651 871.15565 381.95711 870.84375 378.25 C 870.31969 373.29314 869.7805 368.36091 869.625 363.375 C 869.622 358.67439 869.629 353.95062 869.625 349.25 C 869.61715 342.61557 869.621 335.97819 869.625 329.34375 C 869.61587 323.70922 869.6615 318.06086 869.25 312.4375 C 868.7106 306.21357 867.78596 300.06663 866.96875 293.875 C 866.20611 288.6463 865.31706 283.43055 864.96875 278.15625 C 865.88976 278.88209 866.81681 279.60281 867.75 280.3125 C 869.39932 281.767 871.311 282.59062 873.40625 283.15625 L 876.53125 281 C 874.45998 280.48619 872.59218 279.71681 870.96875 278.28125 C 868.60572 276.51063 866.31267 274.60018 863.9375 272.84375 C 862.34225 271.65809 860.83924 270.4961 858.875 270.6875 z "
       id="path3867" />
    <path
       style="fill:#008000;stroke:none"
       d="m 580.95114,244.49828 -3.25,2 c 2.41609,2.69437 4.81924,5.40977 7.28125,8.0625 0.52423,0.56275 0.9064,1.03928 1.1875,1.5 -1.07088,0.16362 -2.12632,0.26765 -3.21875,0.1875 -2.06794,0.003 -4.15081,0.0342 -6.21875,0.0312 -3.04355,-0.01 -6.08378,-0.0576 -9.125,-0.1875 -3.35097,-0.17077 -6.68922,-0.49709 -10.03125,-0.78125 -3.95384,0.002 -7.88991,0.002 -11.84375,0 -4.38233,0.002 -8.77392,0.003 -13.15625,0 -3.63863,-0.003 -7.26762,9.1e-4 -10.90625,0 -3.53614,0 -7.08885,-0.004 -10.625,0 -3.97064,0.002 -7.93561,-0.004 -11.90625,0 -4.45964,-0.006 -8.91616,0.002 -13.375,-0.0937 -4.91539,-0.12249 -9.81843,-0.33098 -14.71875,-0.75 -3.94358,-0.23757 -7.89458,-0.0863 -11.84375,-0.125 -4.49656,0.004 -9.00393,0.0128 -13.5,-0.0625 -3.82122,-0.0886 -7.63041,-0.2735 -11.4375,-0.625 -4.3586,-0.33717 -8.72307,-0.35215 -13.09375,-0.28125 -4.02612,0.0328 -8.05652,0.0527 -12.0625,0.5 -2.92695,0.37639 -5.84336,1.01506 -8.78125,1.28125 0.4218,-0.45976 0.78015,-0.85717 0.96875,-1.15625 2.2976,-2.91679 4.27843,-6.03156 6.28125,-9.15625 l -3.5,1.53125 c -1.34835,1.89666 -2.42937,3.99488 -3.75,5.90625 -0.24679,0.35719 -2.20748,2.85019 -2.5,3.21875 -0.0414,0.0616 -0.1086,0.12407 -0.15625,0.1875 l -2.53125,1.84375 c 0.30273,-0.003 0.60459,-0.0176 0.90625,-0.0312 -1.13754,1.25689 -2.15571,2.66289 -1.25,4.0625 1.8477,0.92469 3.84007,1.52595 5.6875,2.46875 2.26128,1.23982 4.06654,3.08425 6.03125,4.71875 1.11767,1.02097 0.57659,0.53058 1.6875,1.46875 l 3.25,-2.03125 c -1.11297,-0.92324 -0.55977,-0.43702 -1.6875,-1.46875 -1.99428,-1.63786 -3.82319,-3.50753 -6.09375,-4.78125 -1.78199,-0.93822 -3.66894,-1.63278 -5.5625,-2.3125 -0.45572,-0.63913 -0.13891,-1.48596 0.4375,-2.34375 2.50779,-0.29681 4.99121,-0.79214 7.5,-1.125 4.00003,-0.47612 8.0399,-0.5161 12.0625,-0.5625 4.36162,-0.0588 8.71164,-0.0758 13.0625,0.25 3.80973,0.3543 7.64459,0.56525 11.46875,0.65625 4.49879,0.0707 9.00077,0.0565 13.5,0.0625 3.94465,0.0421 7.87199,-0.0797 11.8125,0.125 4.9101,0.39929 9.82636,0.59055 14.75,0.71875 4.45639,0.11148 8.91751,0.122 13.375,0.125 3.96763,0.006 7.93862,0.002 11.90625,0 3.53314,5.6e-4 7.06061,-2.6e-4 10.59375,0 3.64204,-0.001 7.29546,0.003 10.9375,0 4.38371,-0.003 8.77255,-0.002 13.15625,0 3.94951,-0.002 7.89425,-0.002 11.84375,0 3.34107,0.2403 6.65362,0.60321 10,0.78125 3.03885,0.134 6.08361,0.1686 9.125,0.1875 2.06561,0.009 4.15313,0.0332 6.21875,0.0312 1.96001,0.14064 3.8573,-0.26717 5.78125,-0.5625 0.66516,-0.0848 0.83308,-0.097 1,-0.125 -0.10068,0.78533 -0.62226,1.58475 -1.59375,2.59375 -1.71088,1.98096 -3.758,3.60301 -5.75,5.28125 -1.08153,0.88706 -2.07906,1.85348 -3.03125,2.875 l 3.53125,-1.46875 c 0.96518,-0.9977 1.95538,-1.9637 3.03125,-2.84375 2.0079,-1.67428 4.03069,-3.3309 5.75,-5.3125 1.07394,-1.2323 1.54474,-2.23264 1.46875,-3.21875 l 0.59375,-0.4375 c -0.43188,0.0996 -0.51493,0.1238 -0.65625,0.15625 -0.16187,-0.89378 -0.73495,-1.78946 -1.75,-2.875 -2.47052,-2.64832 -4.91067,-5.35545 -7.28125,-8.09375 z"
       id="path3038"
       inkscape:connector-curvature="0" />
    <path
       style="fill:#000000;stroke:none"
       id="path5404"
       d="m 343.27203,363.87994 c -0.28277,3.29858 -0.54865,6.59311 -1.0682,9.86357 -0.51429,2.85699 -0.70007,5.75455 -0.81338,8.65052 0.0529,2.63047 -0.21419,5.23016 -0.50384,7.83961 -0.35095,2.97749 -0.43944,5.9756 -0.4997,8.97026 -0.0541,3.49542 -0.0439,6.99144 -0.0376,10.48716 3.1e-4,3.04506 0.008,6.0901 0.006,9.13516 0.002,3.30264 -9.4e-4,6.60528 -0.007,9.90791 0.003,3.44452 0.10643,6.87825 -0.2568,10.30697 -0.43352,3.20463 -0.4766,6.44078 -0.75625,9.65779 -0.37657,3.60976 -0.65829,7.22668 -0.81042,10.85266 -0.39038,3.25746 -0.71662,6.51713 -0.90141,9.7932 -0.14609,3.01766 -0.16561,6.03946 -0.17456,9.06003 0.005,2.80847 0.004,5.61689 -0.003,8.42535 0.0266,3.75387 0.0599,7.49575 -0.2655,11.23734 -0.35178,3.04338 -0.53651,6.09809 -0.62919,9.15905 -0.0702,2.85915 -0.0649,5.71941 -0.0696,8.57921 -0.002,2.89548 0.002,5.79098 0.007,8.68646 -0.0245,2.64811 -0.0621,5.27936 0.26727,7.90985 0.39117,2.69504 0.54158,5.41275 0.6352,8.13154 0.68802,3.1029 1.30644,6.19017 1.63988,9.35509 0.48372,2.95228 0.93126,5.90537 1.15636,8.88974 0.40701,2.87505 0.78055,5.75194 1.23106,8.6204 0.99792,3.7748 2.02296,7.53804 2.81354,11.36344 0.44283,3.07564 1.09065,6.11964 1.52308,9.19679 0.25348,3.15802 0.70753,6.29143 0.97601,9.44853 0.50315,4.02089 0.91807,8.04931 1.17365,12.09352 0.16778,3.16455 0.19066,6.33421 0.20425,9.5024 0.004,2.86381 -0.004,5.72761 -0.006,8.59142 0.005,2.77728 -0.005,5.55455 -0.005,8.33183 -0.005,3.31111 -0.45214,6.60421 -0.69663,9.90435 -0.0538,2.43883 -0.2814,4.83719 -0.68359,7.2402 -0.34783,1.96269 -0.45369,3.95295 -0.51578,5.94139 -0.034,1.47822 -0.0354,2.9569 -0.0376,4.43542 0,0 -3.4028,1.73307 -3.4028,1.73307 l 0,0 c 0.003,-1.48138 0.006,-2.96284 0.0329,-4.44403 0.047,-2.00378 0.14781,-4.00984 0.49069,-5.98842 0.40629,-2.3974 0.68342,-4.78321 0.72204,-7.22015 0.2499,-3.29071 0.69027,-6.57619 0.70602,-9.87729 6.5e-4,-2.77678 -0.009,-5.55356 0.002,-8.33033 0.004,-2.86338 0.008,-5.72677 0.007,-8.59015 -0.006,-3.16423 -0.0199,-6.32997 -0.17879,-9.49097 -0.23471,-4.04332 -0.63148,-8.07201 -1.1655,-12.08717 -0.27108,-3.14812 -0.74832,-6.26892 -0.98904,-9.41917 -0.42181,-3.07444 -1.06243,-6.11495 -1.48556,-9.18933 -0.7761,-3.83275 -1.80817,-7.59923 -2.83609,-11.37063 -0.45908,-2.8761 -0.83982,-5.75999 -1.25625,-8.6428 -0.21739,-2.98355 -0.64349,-5.93816 -1.13482,-8.88825 -0.32612,-3.17279 -0.94461,-6.26735 -1.66797,-9.37063 -0.087,-2.70744 -0.23315,-5.41445 -0.62383,-8.0979 -0.33596,-2.64481 -0.32538,-5.28947 -0.28662,-7.95342 0.002,-2.89621 7.2e-4,-5.79243 -0.004,-8.68864 -0.003,-2.86406 0.005,-5.72831 0.0694,-8.5918 0.0915,-3.06947 0.2486,-6.13495 0.62955,-9.18444 0.34504,-3.73047 0.32157,-7.46168 0.27971,-11.2063 -0.0113,-2.80681 -0.0222,-5.61363 -0.01,-8.42047 0.0108,-3.0279 0.0244,-6.05666 0.17272,-9.08172 0.18534,-3.27346 0.47595,-6.53617 0.90278,-9.78752 0.14882,-3.63347 0.44669,-7.25579 0.81449,-10.87354 0.27442,-3.21649 0.30572,-6.4524 0.73429,-9.65672 0.38722,-3.41797 0.31312,-6.84271 0.29428,-10.27949 -0.006,-3.29979 -0.009,-6.59958 -0.009,-9.89938 -0.004,-3.04539 -5e-5,-6.09078 -0.004,-9.13618 0.003,-3.4981 0.006,-6.99625 0.0356,-10.49424 0.0514,-3.00365 0.13083,-6.01195 0.47858,-8.99868 0.28824,-2.60098 0.56263,-5.19019 0.50937,-7.81221 0.11628,-2.91014 0.28684,-5.82576 0.80442,-8.69691 0.52755,-3.24762 0.81776,-6.51439 1.06732,-9.79528 0,0 3.4092,-1.73707 3.4092,-1.73707 z"
       inkscape:connector-curvature="0" />
    <path
       style="fill:#000000;stroke:none"
       d="M 707.09375 360.875 L 703.6875 362.59375 C 703.7142 366.394 703.70975 370.19966 703.71875 374 C 703.78439 378.36198 704.32131 382.65923 704.9375 386.96875 C 705.19203 390.04001 705.78667 393.07299 706.1875 396.125 C 706.50833 398.72482 706.55975 401.35301 706.59375 403.96875 C 706.61695 407.09825 706.62537 410.21418 706.625 413.34375 C 706.63057 417.2344 706.632 421.1406 706.625 425.03125 C 706.6236 428.00145 706.59875 430.96731 706.59375 433.9375 C 706.59125 436.66911 706.58975 439.39339 706.59375 442.125 C 706.59234 445.39566 706.59175 448.66683 706.59375 451.9375 C 706.61175 456.19925 706.627 460.45698 706.625 464.71875 C 706.5448 469.13238 706.82987 473.57352 706.375 477.96875 C 705.75258 481.79039 705.18144 485.60804 704.875 489.46875 C 704.82055 492.6445 704.35971 495.78042 704.0625 498.9375 C 703.93827 502.28442 703.4311 505.6057 703.125 508.9375 C 702.8818 512.07638 702.83053 515.21556 702.46875 518.34375 C 702.05125 521.18247 702.01316 524.06039 701.6875 526.90625 C 701.23987 530.19724 701.04105 533.49624 700.90625 536.8125 C 700.79121 540.04865 700.78162 543.29356 700.78125 546.53125 C 700.78559 549.92485 700.78325 553.32515 700.78125 556.71875 C 700.81821 559.69717 700.84206 562.63289 700.5 565.59375 C 700.13253 568.11799 699.9612 570.67128 699.875 573.21875 C 699.55127 576.03116 699.23711 578.83226 699.03125 581.65625 C 698.87376 584.60111 698.84975 587.55177 698.84375 590.5 C 698.84375 593.4286 698.84575 596.35265 698.84375 599.28125 C 698.84494 601.57649 698.84475 603.89226 698.84375 606.1875 C 698.84675 608.59701 698.83875 610.99674 698.84375 613.40625 C 698.84675 615.89736 698.84075 618.38389 698.84375 620.875 C 698.70752 623.34338 698.97746 625.77929 699.3125 628.21875 C 699.76281 632.00333 699.7615 635.81878 699.8125 639.625 C 700.0333 643.83592 699.61769 648.03138 699.25 652.21875 C 698.83966 654.68591 698.32443 657.1357 698.0625 659.625 C 697.88823 661.57066 697.884 663.51692 697.875 665.46875 C 697.872 667.39663 697.872 669.32212 697.875 671.25 C 697.87724 673.18451 697.87469 675.12799 697.875 677.0625 C 697.87693 677.96551 697.94073 678.871 697.875 679.75 C 697.87422 679.76037 697.87581 679.77089 697.875 679.78125 L 695.8125 680.90625 C 696.92268 683.7768 697.40204 682.9956 700.625 680.6875 C 701.46752 678.98785 701.30055 677.16293 701.28125 675.3125 C 701.28025 673.37783 701.28425 671.43467 701.28125 669.5 C 701.27825 667.57281 701.27725 665.64595 701.28125 663.71875 C 701.29186 661.7789 701.3173 659.83923 701.5 657.90625 C 701.77146 655.4228 702.26193 653.0014 702.625 650.53125 C 702.97661 646.33661 703.36003 642.12192 703.15625 637.90625 C 703.10651 634.07863 703.12845 630.24443 702.6875 626.4375 C 702.35225 624.01374 702.12511 621.60776 702.25 619.15625 C 702.253 616.66617 702.247 614.17759 702.25 611.6875 C 702.25461 609.27616 702.247 606.84884 702.25 604.4375 C 702.248 602.14298 702.253 599.85702 702.25 597.5625 C 702.2422 594.63733 702.241 591.70643 702.25 588.78125 C 702.26254 585.83815 702.26133 582.90771 702.4375 579.96875 C 702.64241 577.14069 702.97115 574.31778 703.28125 571.5 C 703.37909 568.96229 703.55226 566.4227 703.90625 563.90625 C 704.22805 560.9331 704.2195 557.95694 704.1875 554.96875 C 704.1814 551.5772 704.15225 548.20406 704.15625 544.8125 C 704.16211 541.57831 704.1727 538.32652 704.28125 535.09375 C 704.41511 531.78338 704.63965 528.50263 705.09375 525.21875 C 705.4067 522.37277 705.42901 519.4941 705.84375 516.65625 C 706.19967 513.52747 706.24861 510.38796 706.5 507.25 C 706.81745 503.91862 707.32951 500.59684 707.46875 497.25 C 707.77429 494.09292 708.21985 490.95724 708.28125 487.78125 C 708.58586 483.92868 709.16407 480.09972 709.75 476.28125 C 710.17393 471.87134 709.89355 467.45737 709.96875 463.03125 C 709.96665 458.76676 709.95085 454.48322 709.96875 450.21875 C 709.97131 446.94789 709.96975 443.67711 709.96875 440.40625 C 709.97215 437.67107 710.003 434.95392 710 432.21875 C 709.9944 429.25373 709.96914 426.27752 709.96875 423.3125 C 709.96375 419.42015 709.987 415.51733 710 411.625 C 710.0058 408.49284 709.98865 405.38213 709.96875 402.25 C 709.94089 399.61913 709.90424 396.95673 709.5625 394.34375 C 709.15366 391.29361 708.54334 388.28869 708.28125 385.21875 C 707.64877 380.933 707.1149 376.65374 707.0625 372.3125 C 707.0714 368.50003 707.06715 364.68738 707.09375 360.875 z "
       id="path5409" />
    <path
       style="fill:#000000;stroke:none"
       id="path5416"
       d="m 386.81462,53.276126 c -0.0207,3.531828 -0.0247,7.063796 -0.0219,10.595687 0.24894,4.055713 0.56992,8.105932 1.05408,12.14056 0.34129,3.358059 0.7957,6.696423 1.25686,10.039124 0.42423,3.04217 0.51209,6.11574 0.57771,9.182282 0.0415,3.280526 0.0309,6.561491 0.028,9.842221 -0.004,3.28802 -0.004,6.57606 -0.006,9.86409 -0.008,3.58563 -0.007,7.1713 -0.003,10.75694 -0.005,3.71766 -0.001,7.43532 -0.005,11.15297 0.001,3.48742 0.004,6.97484 0.007,10.46225 0.006,2.5913 0.0102,5.18257 0.006,7.77387 -0.093,3.88505 0.31288,7.75601 0.55688,11.62889 0.0488,3.71463 0.59132,7.38427 0.96539,11.07202 0.14016,2.79603 0.46481,5.56156 0.83085,8.33442 0.40413,2.33705 0.28443,4.73156 0.63363,7.06923 0.0921,0.23818 0.12529,0.50864 0.27635,0.71454 0.81637,1.11265 5.34344,0.31312 6.5134,0.20318 4.58655,-0.41351 9.15187,-1.01396 13.74515,-1.37157 3.17637,-0.16393 6.30222,-0.77158 9.46876,-1.05278 4.28099,-0.23364 8.57115,-0.22119 12.85719,-0.23841 4.7172,-0.28605 9.29214,0.75078 13.8891,1.60739 4.30589,0.79949 8.6768,1.08043 13.04562,1.23424 3.74935,0.0329 7.51361,0.23089 11.20216,0.92097 5.73335,1.28891 11.61148,1.50434 17.44698,1.96238 5.88977,0.49003 11.79161,0.80561 17.69899,0.96798 4.22386,0.0972 8.44904,0.0868 12.6737,0.0923 4.37383,0.0574 8.7341,0.008 13.0978,-0.29027 4.75882,-0.38862 9.53152,-0.53029 14.30363,-0.62529 4.81454,-0.0255 9.61758,-0.0155 14.42162,-0.35195 2.95202,-0.3431 5.94913,-0.2251 8.90277,-0.51364 0.94068,-0.0919 3.22514,-0.51656 4.14889,-0.68061 3.18331,-0.66201 6.39582,-1.10287 9.63791,-1.32238 2.18696,-0.15485 4.41136,-0.44367 6.54189,-0.97966 1.30414,-0.31974 2.60871,-0.63427 3.8716,-1.09812 1.35616,-0.49811 2.49578,-1.26432 -1.48403,0.97348 1.59456,-1.08888 1.98797,-2.80396 2.21522,-4.60603 0.16667,-2.034 0.59713,-4.02936 0.80504,-6.06106 0.22377,-2.61097 0.23507,-5.23412 0.25204,-7.85277 0.0141,-3.19746 0.008,-6.39496 0.008,-9.59245 0.004,-3.94607 0.004,-7.89215 0.003,-11.83823 -0.007,-3.45938 -0.006,-6.91878 -0.01,-10.37816 0.005,-3.0104 -0.005,-6.0208 -0.005,-9.03119 0.004,-2.62028 -0.002,-5.24055 -0.005,-7.86082 -0.002,-2.06666 -0.005,-4.13332 -0.001,-6.19998 0.0227,-2.86705 -0.11037,-5.72753 0.23709,-8.5766 0.7092,-4.00759 1.17703,-8.04919 1.48699,-12.105528 0.19044,-2.65269 0.21587,-5.312855 0.22466,-7.971117 0.008,-2.691152 -0.004,-5.382286 0.001,-8.073441 0.006,-3.605975 5.7e-4,-7.21195 4.4e-4,-10.817927 0.004,-3.065579 -0.0106,-6.131141 -0.01,-9.196716 0.004,-2.568305 -0.001,-5.136614 -0.004,-7.704919 -3.6e-4,-0.358944 -7.1e-4,-0.717888 -0.001,-1.076832 0,0 3.40275,-1.733787 3.40275,-1.733787 l 0,0 c -3.6e-4,0.359308 -7.1e-4,0.718615 -0.001,1.077923 -0.003,2.569738 -0.008,5.139482 -0.004,7.709222 4.7e-4,3.068922 -0.0142,6.13783 -0.01,9.206757 6.2e-4,3.604273 -0.004,7.208554 0.009,10.812814 0.0108,2.688596 0.014,5.377217 0.0184,8.065829 -0.0137,2.670646 -0.0403,5.343774 -0.23649,8.008454 -0.32348,4.060568 -0.78495,8.110228 -1.48504,12.124638 -0.36819,2.82675 -0.20339,5.67048 -0.22588,8.51767 0.004,2.06702 6.5e-4,4.13404 -0.001,6.20105 -0.003,2.622 -0.009,5.244 -0.005,7.86599 5.6e-4,3.012 -0.009,6.024 -0.005,9.036 -0.004,3.46254 -0.002,6.9251 -0.009,10.38764 -8e-5,3.94361 0.002,7.88722 0.0106,11.83082 0.005,3.19646 0.0102,6.39293 0.003,9.5894 -0.0155,2.62652 -0.0106,5.25751 -0.22265,7.87738 -0.1943,2.03497 -0.61418,4.03074 -0.7932,6.06279 -0.20083,1.85937 -0.5355,3.6896 -2.07542,4.93078 -3.41965,1.95533 -5.30533,3.11769 -8.99529,3.81435 -2.15511,0.47465 -4.36344,0.80549 -6.56684,0.92113 -3.22351,0.23057 -6.41578,0.69257 -9.58459,1.33169 -4.3287,0.74721 -8.68605,0.88115 -13.06635,1.15586 -4.80789,0.3201 -9.61636,0.29352 -14.43326,0.33797 -4.76827,0.095 -9.53572,0.25307 -14.2908,0.63805 -4.37261,0.29181 -8.74317,0.32798 -13.12516,0.27876 -4.2219,0.004 -8.44429,-0.009 -12.66516,-0.11179 -5.89831,-0.17611 -11.78873,-0.53301 -17.67031,-1.01084 -5.86166,-0.44572 -11.76008,-0.68353 -17.52151,-1.95594 -3.68867,-0.63838 -7.43798,-0.82618 -11.17855,-0.87269 -4.3742,-0.17588 -8.74908,-0.47733 -13.0582,-1.29315 -4.58339,-0.85718 -9.15147,-1.82839 -13.85207,-1.5468 -4.29132,0.0168 -8.58856,0.005 -12.87235,0.29077 -3.15381,0.30117 -6.27551,0.88306 -9.44362,1.02772 -4.59585,0.36221 -9.16417,0.95961 -13.75313,1.38445 -1.56544,0.14498 -5.73564,0.97539 -6.82195,-0.58925 -0.16164,-0.23282 -0.20677,-0.52782 -0.31015,-0.79173 -0.36701,-2.34034 -0.21555,-4.74281 -0.6195,-7.0855 -0.36849,-2.77866 -0.71059,-5.5464 -0.82545,-8.35065 -0.36897,-3.69662 -0.90572,-7.37576 -0.94417,-11.09883 -0.2466,-3.87387 -0.67633,-7.74377 -0.60882,-11.62912 -0.005,-2.59319 -2.4e-4,-5.18636 0.006,-7.77955 0.004,-3.48991 0.006,-6.97982 0.007,-10.46973 -0.003,-3.71606 2.5e-4,-7.43212 -0.005,-11.14817 0.004,-3.58497 0.005,-7.16996 -0.001,-10.75493 8.4e-4,-3.28855 0.005,-6.57709 0.008,-9.86563 0.003,-3.27713 0.0126,-6.55446 -0.0318,-9.831386 -0.0568,-3.053858 -0.14352,-6.11394 -0.55403,-9.144732 -0.45795,-3.348604 -0.92246,-6.690354 -1.23731,-10.056902 -0.48192,-4.04797 -0.8248,-8.108314 -1.08145,-12.176937 0.003,-3.524461 -0.001,-7.048999 -0.0219,-10.573396 0,0 3.4092,-1.737071 3.4092,-1.737071 z"
       inkscape:connector-curvature="0" />
    <path
       style="fill:#000000;stroke:none"
       id="path5418"
       d="m 494.87478,205.14491 c -1.21946,3.07966 -1.81397,6.35324 -2.53614,9.57352 -0.54262,2.87676 -0.99864,5.77268 -1.41766,8.67061 -0.5032,4.03658 -0.53017,8.11327 -0.57886,12.17504 -0.0268,3.01314 -0.0151,6.0264 -0.005,9.03958 0.006,2.03162 0.0118,4.06326 0.008,6.09489 0.0258,2.24361 -0.0803,4.48973 0.10457,6.72713 0.32899,2.97034 0.56733,5.94478 1.00784,8.9011 0.45035,2.89052 0.64219,5.80952 0.75962,8.72962 0.0965,2.96235 0.58524,5.90143 1.0198,8.82973 0.54665,3.60633 0.77506,7.24569 0.90042,10.88742 0.0736,2.97599 0.0903,5.95308 0.0828,8.92985 -0.007,3.2524 -0.016,6.50477 -0.0147,9.75718 -5.1e-4,3.23099 -0.001,6.46198 -1.6e-4,9.69297 -0.0681,2.77102 0.1434,5.55492 -0.0989,8.31824 -0.43029,2.51592 -0.63896,5.05091 -0.75537,7.59821 -0.0979,2.67262 -0.10691,5.3473 -0.10955,8.02136 5.6e-4,1.68968 0.004,3.37936 0.006,5.06904 0,0 -3.40692,1.73638 -3.40692,1.73638 l 0,0 c -0.001,-1.69115 -0.004,-3.38229 -4.7e-4,-5.07344 0.009,-2.68181 0.0288,-5.36397 0.12102,-8.04445 0.10111,-2.55021 0.2662,-5.09456 0.73059,-7.6089 0.29425,-2.75072 0.0473,-5.53192 0.13247,-8.29386 0.001,-3.2316 8.1e-4,-6.4632 0.003,-9.6948 0.005,-3.25053 0.001,-6.50105 0.004,-9.75158 -0.004,-2.97494 0.0139,-5.9504 -0.0647,-8.92465 -0.11694,-3.62944 -0.32577,-7.25834 -0.8729,-10.85241 -0.44548,-2.93606 -0.96869,-5.88258 -1.0639,-8.85434 -0.10252,-2.90931 -0.28131,-5.81814 -0.72994,-8.69775 -0.44253,-2.96191 -0.68905,-5.93922 -1.02909,-8.91429 -0.22568,-2.24419 -0.0947,-4.5003 -0.12863,-6.75375 -0.005,-2.032 -0.004,-4.06401 -0.006,-6.09602 0.001,-3.02246 0.01,-6.04497 0.0478,-9.06724 0.0565,-4.07033 0.0565,-8.15583 0.52905,-12.20435 0.40619,-2.90885 0.87399,-5.81258 1.40945,-8.69974 0.71834,-3.23192 1.34271,-6.5018 2.47293,-9.62176 0,0 3.47864,-1.59854 3.47864,-1.59854 z"
       inkscape:connector-curvature="0" />
    <text
       xml:space="preserve"
       style="font-size:40px;font-style:normal;font-variant:normal;font-weight:normal;font-stretch:normal;line-height:125%;letter-spacing:0px;word-spacing:0px;fill:#000000;fill-opacity:1;stroke:none;font-family:Segoe Print;-inkscape-font-specification:Segoe Print"
       x="404.46228"
       y="108.37267"
       id="text5420"
       sodipodi:linespacing="125%"><tspan
         sodipodi:role="line"
         id="tspan5422"
         x="404.46228"
         y="108.37267">Discounts</tspan><tspan
         sodipodi:role="line"
         x="404.46228"
         y="158.37267"
         id="tspan5424">CQRS/?</tspan></text>
    <path
       style="fill:#008000;stroke:none"
       d="m 409.49318,167.23636 -3.3125,1.9375 c 1.67663,2.71517 3.62567,5.2191 5.03125,8.09375 0.0532,0.14919 0.0855,0.26748 0.125,0.40625 -0.16084,0.0233 -0.15389,0.017 -0.46875,0.0625 -2.21999,0.25755 -4.45939,0.12034 -6.6875,0.3125 -2.06919,0.15653 -4.11863,0.45205 -6.15625,0.84375 -2.38885,0.1025 -4.76864,0.32999 -7.125,0.75 -2.98548,0.48845 -5.99399,0.72285 -8.96875,1.28125 -3.70931,0.57933 -7.45324,0.88457 -11.1875,1.25 -2.7599,0.30475 -5.51344,0.82794 -8.28125,1.0625 -3.02814,0.37189 -6.03845,0.606 -9.09375,0.46875 -3.60586,-0.002 -7.20664,-0.004 -10.8125,0 -3.82967,0.009 -7.67293,-0.002 -11.5,0.15625 -3.93055,0.20949 -7.82681,0.59852 -11.75,0.90625 -4.05864,0.1133 -8.12124,0.23528 -12.15625,0.71875 l -3.0625,2.28125 c 4.04031,-0.55091 8.11654,-0.66344 12.1875,-0.78125 3.91906,-0.27234 7.82682,-0.65786 11.75,-0.875 3.82629,-0.1751 7.63929,-0.1774 11.46875,-0.1875 3.60143,-0.004 7.21108,-0.003 10.8125,0 3.05607,0.11815 6.09247,-0.0476 9.125,-0.40625 2.76928,-0.23573 5.49179,-0.76744 8.25,-1.09375 3.74043,-0.37553 7.49661,-0.68509 11.21875,-1.21875 2.97238,-0.55308 5.98514,-0.80389 8.96875,-1.28125 2.34311,-0.41476 4.7189,-0.66726 7.09375,-0.78125 2.05291,-0.30599 4.0859,-0.66756 6.15625,-0.84375 2.2297,-0.19293 4.46041,-0.0804 6.6875,-0.28125 1.54136,-0.20662 0.79417,-0.0955 2.3125,-0.3125 l 1.4375,-1.0625 c 0.0828,1.2978 -0.60878,2.04932 -1.65625,2.75 0.0927,-0.074 0.19828,-0.16409 0.28125,-0.25 0.34607,-0.35836 -0.91849,0.42555 -1.375,0.625 -0.49575,0.2166 -1.00005,0.4183 -1.5,0.625 -1.43312,0.59253 -2.85071,1.17247 -4.25,1.84375 -2.28979,1.26438 -4.52403,2.61618 -6.78125,3.9375 l 3.34375,-1.28125 c 0.14912,-0.0875 0.37741,-0.22512 0.46875,-0.28125 3.85226,-1.91554 8.04621,-3.07606 11.625,-5.5625 2.49882,-1.49979 3.96211,-2.60669 2.8125,-5.6875 -1.42703,-2.8715 -3.39657,-5.37521 -5.03125,-8.125 z m -9.875,19.65625 c -1.31018,0.76857 -4.20664,2.39974 0.21875,-0.0937 l -0.21875,0.0937 z"
       id="path5426"
       inkscape:connector-curvature="0" />
    <path
       style="fill:#008000;stroke:none"
       d="m 677.41307,158.54658 -3.34375,1.875 c 1.27614,2.51122 2.72052,4.94071 4.1875,7.34375 0.47161,1.13644 1.3744,2.15154 2.125,3.21875 -0.23977,0.0378 -0.47874,0.0878 -0.71875,0.125 -2.21769,-0.001 -4.43857,-0.007 -6.65625,0 -2.85318,0.013 -5.71239,0.009 -8.5625,0.15625 -2.62753,0.18451 -5.2277,0.51579 -7.84375,0.8125 -2.63356,0.0288 -5.25275,0.10881 -7.875,0.375 -3.82909,0.37494 -7.67641,0.78955 -11.53125,0.71875 -3.72225,0.12264 -7.44638,0.24785 -11.125,0.875 -2.77021,0.4046 -5.56748,0.56379 -8.34375,0.9375 -5.60311,0.0404 -11.21222,0.1256 -16.8125,0.3125 -7.58373,0.2827 -15.17356,0.65529 -22.71875,1.5 l 0,-0.0312 -3.0625,2.3125 c 7.56932,-0.97792 15.19132,-1.30703 22.8125,-1.59375 5.56594,-0.18567 11.15002,-0.26915 16.71875,-0.28125 2.79123,-0.27382 5.59338,-0.51126 8.375,-0.875 3.67993,-0.63099 7.40056,-0.80537 11.125,-0.9375 3.84949,0.0468 7.67369,-0.32341 11.5,-0.6875 2.61458,-0.26605 5.24911,-0.3351 7.875,-0.375 2.62398,-0.2328 5.21547,-0.58683 7.84375,-0.78125 2.84548,-0.17168 5.71287,-0.1775 8.5625,-0.1875 2.21278,-0.003 4.41222,-0.003 6.625,0 1.58846,-0.16816 3.16653,-0.45381 4.75,-0.65625 0.11484,0.3142 0.21281,0.62862 0.25,0.96875 0.0327,0.29931 -0.0889,0.60733 -0.125,0.90625 -1.82621,2.40062 -4.51712,4.02063 -6.875,5.875 -1.57699,1.12369 -0.82503,0.54387 -2.25,1.6875 l 3.53125,-1.40625 c 1.42687,-1.11962 0.69036,-0.55023 2.25,-1.6875 1.87371,-1.4656 4.77983,-3.26452 6.1875,-5.125 0.24732,-0.32688 0.39926,-0.70168 0.59375,-1.0625 0.0224,-0.69033 -0.0852,-1.32368 -0.28125,-1.90625 l 0.875,-0.65625 c -0.36778,0.033 -0.72764,0.11351 -1.09375,0.15625 -0.69441,-1.59833 -1.97736,-2.92877 -2.84375,-4.59375 -1.46157,-2.38486 -2.89673,-4.79651 -4.125,-7.3125 z"
       id="path5431"
       inkscape:connector-curvature="0" />
  </g>
  <g
     inkscape:groupmode="layer"
     id="layer3"
     inkscape:label="Numbers"
     style="display:inline">
    <text
       xml:space="preserve"
       style="font-size:40px;font-style:normal;font-variant:normal;font-weight:normal;font-stretch:normal;line-height:125%;letter-spacing:0px;word-spacing:0px;fill:#008000;fill-opacity:1;stroke:none;display:inline;font-family:Segoe Print;-inkscape-font-specification:Segoe Print"
       x="444.1344"
       y="279.6402"
       id="text3875"
       sodipodi:linespacing="125%"><tspan
         sodipodi:role="line"
         id="tspan3877"
         x="444.1344"
         y="279.6402">1</tspan></text>
    <text
       xml:space="preserve"
       style="font-size:40px;font-style:normal;font-variant:normal;font-weight:normal;font-stretch:normal;line-height:125%;letter-spacing:0px;word-spacing:0px;fill:#008000;fill-opacity:1;stroke:none;display:inline;font-family:Segoe Print;-inkscape-font-specification:Segoe Print"
       x="270.93167"
       y="297.05722"
       id="text3879"
       sodipodi:linespacing="125%"><tspan
         sodipodi:role="line"
         id="tspan3881"
         x="270.93167"
         y="297.05722">2</tspan></text>
    <text
       xml:space="preserve"
       style="font-size:40px;font-style:normal;font-variant:normal;font-weight:normal;font-stretch:normal;line-height:125%;letter-spacing:0px;word-spacing:0px;fill:#008000;fill-opacity:1;stroke:none;display:inline;font-family:Segoe Print;-inkscape-font-specification:Segoe Print"
       x="106.43744"
       y="300.92767"
       id="text3883"
       sodipodi:linespacing="125%"><tspan
         sodipodi:role="line"
         id="tspan3885"
         x="106.43744"
         y="300.92767">3</tspan></text>
    <text
       xml:space="preserve"
       style="font-size:40px;font-style:normal;font-variant:normal;font-weight:normal;font-stretch:normal;line-height:125%;letter-spacing:0px;word-spacing:0px;fill:#008000;fill-opacity:1;stroke:none;display:inline;font-family:Segoe Print;-inkscape-font-specification:Segoe Print"
       x="683.13489"
       y="317.37711"
       id="text3887"
       sodipodi:linespacing="125%"><tspan
         sodipodi:role="line"
         id="tspan3889"
         x="683.13489"
         y="317.37711">4</tspan></text>
    <text
       xml:space="preserve"
       style="font-size:40px;font-style:normal;font-variant:normal;font-weight:normal;font-stretch:normal;line-height:125%;letter-spacing:0px;word-spacing:0px;fill:#008000;fill-opacity:1;stroke:none;display:inline;font-family:Segoe Print;-inkscape-font-specification:Segoe Print"
       x="900.84784"
       y="314.47427"
       id="text3891"
       sodipodi:linespacing="125%"><tspan
         sodipodi:role="line"
         id="tspan3893"
         x="900.84784"
         y="314.47427">5</tspan></text>
    <path
       style="fill:#008000;stroke:none;display:inline"
       id="path3895"
       d="m 916.07458,283.11915 c -2.46608,0.99362 -4.91021,2.03846 -7.36103,3.06972 3.02755,-2.04663 -6.54627,3.61614 -3.2709,1.55446 0.72941,-0.45913 2.99375,-1.70965 2.24556,-1.2818 -3.92662,2.24548 -6.26793,3.57696 -1.98653,1.13943 -2.76208,2.10005 -6.10965,3.02422 -9.07391,4.72386 0.76458,-0.41978 1.48867,-0.92368 2.29374,-1.25933 0.36979,-0.15418 -0.66797,0.44623 -0.9713,0.70797 -1.27669,1.10165 -2.26198,2.59119 -3.19572,3.97733 -1.62363,2.15893 -2.22478,4.73676 -2.6118,7.35469 -0.30674,2.39168 -0.33533,4.78435 -0.006,7.17051 0.50789,2.47287 1.92049,4.59359 3.2418,6.69857 1.41527,2.18118 3.59088,3.35146 5.85627,4.4702 2.38113,1.20675 4.92117,1.88449 7.49282,2.55034 2.46975,0.65267 5.01739,0.83118 7.55849,0.93573 2.36043,0.10356 4.69473,0.11776 7.02911,-0.25171 0.38191,-0.0977 0.76805,-0.18013 1.14574,-0.29302 0.93746,-0.28021 1.70558,-0.57351 2.58885,-1.00217 0.43629,-0.21173 1.70291,-0.92869 1.28224,-0.68739 -0.66336,0.38051 -1.28542,0.86209 -2.01052,1.10514 -0.45684,0.15313 0.78975,-0.5522 1.18462,-0.8283 2.18042,-1.4423 3.75122,-3.30324 4.97161,-5.57786 0.83642,-2.26397 2.02517,-4.36659 2.97372,-6.58141 0.75415,-2.27794 1.48649,-4.57707 1.94526,-6.93567 0.40874,-2.58824 0.90696,-5.15256 1.16296,-7.76269 0.18578,-2.54932 0.4343,-5.096 -0.10209,-7.61113 -0.91612,-2.67337 -2.98702,-4.15371 -5.26779,-5.58312 -2.18028,-1.36887 -4.47651,-2.27682 -6.99306,-2.77257 -1.7772,-0.30053 -3.58097,-0.34578 -5.37866,-0.3751 0,0 3.09373,-2.23857 3.09373,-2.23857 l 0,0 c 1.81009,0.0407 3.62622,0.10453 5.41096,0.4379 2.53745,0.54288 4.86242,1.4991 7.06248,2.8902 2.36231,1.48907 4.45263,3.09294 5.42648,5.83938 0.5817,2.55068 0.33719,5.12802 0.14745,7.72079 -0.23549,2.62104 -0.73355,5.19082 -1.13633,7.78816 -0.428,2.38904 -1.19558,4.6977 -1.91574,7.01081 -0.91445,2.23828 -2.16503,4.31663 -2.95024,6.60911 -1.21706,2.31835 -2.69299,4.27505 -4.91919,5.74768 -3.25324,2.35251 -6.80973,4.53528 -10.77509,5.38819 -2.34767,0.33599 -4.70235,0.27856 -7.06908,0.18919 -2.55575,-0.12351 -5.11536,-0.33104 -7.59435,-1.00845 -2.58927,-0.68106 -5.14793,-1.3756 -7.53814,-2.61491 -2.31762,-1.16882 -4.53608,-2.38947 -5.97093,-4.64414 -1.34715,-2.15053 -2.78311,-4.31882 -3.32531,-6.83594 -0.33959,-2.41791 -0.34519,-4.84205 -0.0372,-7.2686 0.37259,-2.64929 0.91828,-5.30823 2.5416,-7.50743 2.41128,-3.70281 4.08796,-5.24938 8.32671,-7.34846 1.06159,-0.57696 8.46688,-4.14053 2.54918,-0.95697 1.41598,-0.82306 2.8288,-1.65158 4.24794,-2.46918 0.75701,-0.43614 -3.02325,1.75268 -2.26155,1.32476 2.50288,-1.40609 4.90648,-2.91614 7.56864,-3.99616 2.45248,-1.04301 4.92331,-2.04277 7.36656,-3.10505 0,0 -2.99161,2.39301 -2.99161,2.39301 z"
       inkscape:connector-curvature="0" />
    <path
       style="fill:#008000;stroke:none;display:inline"
       id="path3897"
       d="m 708.02004,282.98275 c -2.50621,0.76321 -4.96509,1.67641 -7.4687,2.45023 -2.98794,0.90634 -5.83272,2.20748 -8.61337,3.61358 -0.44497,0.25271 -1.79333,0.98549 -1.33489,0.75814 0.66868,-0.3316 1.25139,-0.8567 1.96627,-1.07126 0.4714,-0.14148 -0.81401,0.55383 -1.2111,0.84462 -1.12367,0.82287 -2.22376,1.67966 -3.29253,2.57196 -1.96719,1.7142 -3.76445,3.61492 -4.96726,5.94252 -0.84372,2.25232 -1.37248,4.61636 -1.74902,6.98891 -0.42902,2.37895 0.95575,4.45387 2.47325,6.15767 2.5037,2.18356 5.24567,3.99317 8.27645,5.34645 2.6917,1.41841 5.66858,1.91206 8.60233,2.53665 2.54898,0.53657 5.14048,0.79509 7.73776,0.93432 2.46029,0.20765 4.75131,0.14707 7.00172,-0.92312 -0.67967,0.37358 -1.29944,0.88724 -2.03903,1.12075 -0.46328,0.14627 0.80467,-0.54648 1.18352,-0.85063 0.35666,-0.28635 0.69082,-0.60029 1.01968,-0.91818 0.91246,-0.88204 1.77593,-1.81659 2.68975,-2.69907 1.71291,-1.62613 2.86846,-3.65132 3.76812,-5.81143 0.73457,-1.94054 0.88992,-4.00641 0.97359,-6.05891 0.0483,-1.93972 0.0273,-3.88034 0.0185,-5.82042 0.23673,-2.11544 -0.36634,-3.86287 -1.26763,-5.72849 -0.97745,-2.00708 -2.44689,-3.59572 -4.35029,-4.73792 -1.78719,-0.68315 -3.48621,-1.56751 -5.26489,-2.26529 0,0 3.17907,-2.1291 3.17907,-2.1291 l 0,0 c 1.78202,0.73245 3.51873,1.57306 5.29329,2.3245 1.93124,1.2206 3.45024,2.8582 4.46123,4.92409 0.92493,1.90905 1.60026,3.70504 1.35319,5.87584 0.009,1.94511 0.0294,3.89063 -0.012,5.8355 -0.0752,2.08958 -0.21519,4.19425 -0.92386,6.18207 -0.8716,2.20237 -2.00378,4.28312 -3.7068,5.95918 -2.93195,2.8012 -5.36305,5.63187 -9.35458,7.15787 -2.30823,0.9507 -4.64917,0.99897 -7.11994,0.78606 -2.60626,-0.15982 -5.2039,-0.44652 -7.76171,-0.98714 -2.95545,-0.61215 -5.92352,-1.20476 -8.62989,-2.61793 -3.05787,-1.4043 -5.86007,-3.23928 -8.38898,-5.46514 -1.55795,-1.78443 -3.04048,-3.97934 -2.63174,-6.45169 0.36763,-2.40693 0.90447,-4.7917 1.70051,-7.09415 1.13293,-2.39969 2.94397,-4.33091 4.91313,-6.08772 3.14681,-2.72957 6.65279,-4.98313 10.35558,-6.8987 2.7963,-1.39418 5.66112,-2.66712 8.65793,-3.57107 2.50473,-0.80168 4.98407,-1.67946 7.49038,-2.47525 0,0 -3.02705,2.3517 -3.02705,2.3517 z"
       inkscape:connector-curvature="0" />
    <path
       style="fill:#008000;stroke:none;display:inline"
       id="path3899"
       d="m 469.98418,257.80665 c -1.84195,-1.81232 -4.10316,-2.94085 -6.56153,-3.64011 -2.19549,-0.59228 -4.36491,-0.48997 -6.54873,0.0571 -2.2206,0.47805 -4.39846,1.1467 -6.50998,1.98408 -1.54678,0.38738 -2.93333,1.1273 -4.30526,1.91034 -0.3539,0.20199 -1.42124,0.79794 -1.06781,0.59513 0.73535,-0.42197 1.47574,-0.8351 2.21362,-1.25264 -2.54744,1.33068 -4.6001,3.34142 -6.76796,5.18709 -2.13174,1.82191 -3.54538,4.17354 -4.4909,6.78109 -0.57531,2.25866 -1.02004,4.55751 -1.35847,6.86466 -0.37258,2.05844 -0.03,3.89324 1.66841,5.19033 2.07589,1.04875 4.3972,1.23877 6.61602,1.79244 1.8318,0.62865 3.77567,0.69968 5.65116,1.1002 2.09554,0.51844 4.2506,0.70255 6.3994,0.82763 2.01933,0.095 4.04145,0.0939 6.0625,0.0954 2.34981,0.0242 4.64915,-0.8071 6.77926,-1.73665 0.99612,-0.39915 5.18499,-2.50658 0.26336,0.0941 -0.41258,0.21801 0.80376,-0.47454 1.19931,-0.72212 1.14674,-0.71779 1.28446,-0.83887 2.39022,-1.6216 2.0863,-1.43351 3.69189,-3.33494 4.71833,-5.63785 0.74627,-2.4068 1.08448,-4.93227 0.57969,-7.41212 -0.71151,-2.24192 -2.04918,-4.12251 -3.53185,-5.91075 -1.02445,-1.1783 -1.97122,-2.38733 -3.15635,-3.40903 0,0 3.242,-2.0159 3.242,-2.0159 l 0,0 c 1.17991,1.05285 2.14271,2.27528 3.17906,3.46605 1.5218,1.83776 2.88516,3.77221 3.62518,6.07058 0.54547,2.54879 0.22757,5.11992 -0.47587,7.61846 -0.95366,2.37347 -2.5537,4.35325 -4.64915,5.83546 -3.23357,2.33929 -6.68914,4.43735 -10.36633,5.99972 -2.18395,0.89723 -4.49711,1.69928 -6.88812,1.62699 -2.02426,-0.004 -4.04977,-0.007 -6.07167,-0.11724 -2.16189,-0.14136 -4.32455,-0.35425 -6.43506,-0.86618 -1.88789,-0.35413 -3.81563,-0.51013 -5.65287,-1.11786 -2.26875,-0.53726 -4.6389,-0.77411 -6.71735,-1.92391 -1.72955,-1.42741 -2.24577,-3.3432 -1.85032,-5.54446 0.33206,-2.33011 0.79159,-4.64482 1.33088,-6.93412 0.91321,-2.65764 2.29127,-5.0814 4.41769,-6.96776 2.17173,-1.8434 4.19959,-3.89216 6.73689,-5.24116 3.14017,-1.83296 6.21201,-3.90516 9.71773,-4.98078 2.13368,-0.79194 4.30511,-1.47356 6.53548,-1.93722 2.23461,-0.47992 4.44566,-0.54396 6.66395,0.10212 2.49634,0.76547 4.78175,1.96395 6.68004,3.78996 0,0 -3.2646,2.00055 -3.2646,2.00055 z"
       inkscape:connector-curvature="0" />
    <path
       style="fill:#008000;stroke:none;display:inline"
       id="path3901"
       d="m 288.87675,266.11342 c -2.71819,-0.39784 -5.45805,-0.60867 -8.20067,-0.73669 -2.74406,-0.14349 -5.46596,-0.15521 -8.19183,0.18694 -1.19176,0.30474 -2.42734,0.50124 -3.55613,1.01548 -0.33219,0.15134 -1.27908,0.70394 -0.95485,0.53624 2.54097,-1.3142 3.13479,-1.89255 1.51057,-0.56416 -2.04536,1.78332 -3.73493,3.92398 -5.3889,6.06308 -1.70125,2.16656 -3.18535,4.49502 -4.50557,6.91025 -1.05823,2.03516 -1.28571,4.32067 -1.43143,6.57212 -0.24733,3.39588 1.68734,6.37751 3.53702,9.05904 1.92874,2.71757 4.38479,4.98205 6.58226,7.46699 1.9319,2.64494 3.63657,3.30098 6.59432,4.3883 2.30327,0.87435 4.71798,1.26915 7.16271,1.43799 3.26247,0.1699 6.48888,-0.53112 9.68944,-1.06979 3.01796,-0.23024 5.66924,-1.4273 8.28927,-2.8312 -0.75044,0.45367 2.8865,-1.46778 2.16823,-1.09428 -0.7469,0.38839 -1.42781,0.94124 -2.23775,1.17084 -0.41501,0.11765 0.68235,-0.52942 1.00095,-0.82024 0.84157,-0.76819 0.90041,-0.92788 1.57158,-1.81514 1.38457,-1.89777 2.2873,-4.03194 3.02077,-6.24475 0.83631,-2.45983 1.15728,-5.02558 1.33584,-7.60337 0.32585,-2.4253 0.69424,-4.84158 0.89782,-7.28122 0.12811,-2.00245 -0.85033,-3.49606 -1.86589,-5.11208 -1.00145,-2.33699 -3.07375,-3.52734 -5.19637,-4.72549 -1.94482,-1.30143 -4.00698,-2.36353 -6.11518,-3.36229 -1.25394,-0.52359 -0.62293,-0.28595 -1.89232,-0.7148 0,0 3.16303,-2.14046 3.16303,-2.14046 l 0,0 c 1.28454,0.45717 0.64667,0.20754 1.91312,0.75016 2.11593,0.99613 4.15667,2.11059 6.11365,3.39822 2.16273,1.24384 4.28847,2.48071 5.31288,4.87333 1.05914,1.68118 2.08431,3.2471 1.98013,5.32957 -0.19844,2.4401 -0.55797,4.85749 -0.90718,7.2797 -0.17256,2.60425 -0.4682,5.1996 -1.29807,7.68999 -0.72261,2.24405 -1.58024,4.4159 -2.9648,6.35079 -2.18956,3.11144 -5.57131,4.85284 -8.96368,6.45424 -2.63372,1.39255 -5.34284,2.46866 -8.34929,2.72265 -3.22523,0.53824 -6.47938,1.22088 -9.76624,1.01307 -2.4649,-0.19527 -4.89156,-0.64077 -7.20871,-1.53534 -2.99915,-1.10958 -4.75072,-1.88113 -6.69987,-4.54371 -2.19964,-2.50037 -4.65462,-4.78486 -6.57981,-7.52118 -1.88233,-2.73756 -3.89305,-5.7985 -3.69775,-9.2587 0.13672,-2.29173 0.34043,-4.63079 1.36574,-6.72363 1.30251,-2.44228 2.80082,-4.78378 4.49709,-6.97221 1.63598,-2.15907 3.32895,-4.30342 5.3374,-6.13124 2.77721,-2.40768 5.98309,-4.08879 9.58606,-4.68918 2.73791,-0.31638 5.47564,-0.26392 8.22718,-0.13351 2.75725,0.13827 5.50811,0.37781 8.24442,0.74933 0,0 -3.12919,2.20634 -3.12919,2.20634 z"
       inkscape:connector-curvature="0" />
    <path
       style="fill:#008000;stroke:none;display:inline"
       id="path3903"
       d="m 126.33338,265.28376 c -3.12537,-0.0185 -6.25082,-0.0145 -9.37623,-0.0106 -2.34856,0.004 -4.69711,0.006 -7.04567,0.008 -0.97489,-0.0223 -2.00653,0.008 -2.9102,0.43376 -0.33281,0.1569 -1.27238,0.73251 -0.93363,0.58888 2.2435,-0.95126 3.08651,-1.94582 1.43194,-0.32383 -1.79609,1.85319 -3.08824,4.07028 -4.10042,6.42714 -0.85828,2.1915 -1.45497,4.42559 -1.76319,6.75612 -0.25447,2.81001 -0.35256,5.63739 -0.18975,8.45416 0.33102,3.71437 2.19512,7.00697 3.50652,10.43393 0.93809,2.53823 1.75459,3.63827 3.80205,5.33387 1.99613,1.60347 4.45456,1.8923 6.91686,2.11261 2.97559,0.41591 5.67318,-0.11994 8.38342,-1.32481 0.42949,-0.23996 1.72916,-0.93856 1.28846,-0.71988 -0.68407,0.33946 -1.28175,0.88386 -2.01913,1.08245 -0.46427,0.12505 0.78323,-0.55831 1.16385,-0.85209 1.0841,-0.83677 1.99993,-1.76266 2.9225,-2.76888 1.58647,-1.74748 3.23594,-3.41151 4.54797,-5.38234 1.36714,-2.2608 2.30537,-4.76016 2.96405,-7.31081 0.7596,-3.01919 0.5725,-5.99332 -0.33034,-8.9405 -0.92524,-2.30975 -2.58287,-4.2073 -3.92607,-6.27655 -1.32049,-1.87982 -2.4272,-3.90885 -3.9385,-5.64566 0,0 3.26612,-1.96855 3.26612,-1.96855 l 0,0 c 1.50764,1.76256 2.64015,3.79215 3.96315,5.69173 1.3585,2.10112 3.03569,4.02734 3.97054,6.37214 0.92874,2.99951 1.14745,6.04076 0.42087,9.12616 -0.62406,2.58763 -1.57144,5.10967 -2.90216,7.42097 -1.27607,2.01599 -2.91386,3.69608 -4.52778,5.43982 -2.74511,3.07493 -6.07064,5.33568 -9.8407,7.08524 -2.75808,1.14343 -5.5132,1.59539 -8.50016,1.17518 -2.53016,-0.25169 -5.02669,-0.62043 -7.05453,-2.29459 -2.02028,-1.68181 -3.00165,-2.99515 -3.88529,-5.51259 -1.29835,-3.47121 -3.167083,-6.79632 -3.553429,-10.53599 -0.209634,-2.83426 -0.08343,-5.67793 0.139501,-8.50992 0.281842,-2.36482 0.858997,-4.62469 1.716591,-6.84902 0.986197,-2.39578 2.263177,-4.65494 4.041497,-6.55814 2.34207,-2.48681 5.54328,-4.51082 9.01872,-4.40455 2.34167,10e-4 4.68334,0.004 7.02501,0.008 3.13516,0.004 6.27035,0.008 9.40548,-0.0106 0,0 -3.09792,2.25076 -3.09792,2.25076 z"
       inkscape:connector-curvature="0" />
    <text
       xml:space="preserve"
       style="font-size:40px;font-style:normal;font-variant:normal;font-weight:normal;font-stretch:normal;line-height:125%;letter-spacing:0px;word-spacing:0px;fill:#008000;fill-opacity:1;stroke:none;display:inline;font-family:Segoe Print;-inkscape-font-specification:Segoe Print"
       x="337.07364"
       y="163.15468"
       id="text3879-1"
       sodipodi:linespacing="125%"><tspan
         sodipodi:role="line"
         id="tspan3881-7"
         x="337.07364"
         y="163.15468">6</tspan></text>
    <text
       xml:space="preserve"
       style="font-size:40px;font-style:normal;font-variant:normal;font-weight:normal;font-stretch:normal;line-height:125%;letter-spacing:0px;word-spacing:0px;fill:#008000;fill-opacity:1;stroke:none;display:inline;font-family:Segoe Print;-inkscape-font-specification:Segoe Print"
       x="627.3576"
       y="158.3166"
       id="text3879-4"
       sodipodi:linespacing="125%"><tspan
         sodipodi:role="line"
         id="tspan3881-0"
         x="627.3576"
         y="158.3166">7</tspan></text>
    <path
       style="fill:#008000;stroke:none"
       id="path3072"
       d="m 346.94816,133.68912 c -2.78923,-0.1064 -5.51887,0.60482 -8.04954,1.72881 -0.39052,0.22075 -1.5793,0.84929 -1.17157,0.66223 0.76623,-0.35155 1.43517,-0.9371 2.24912,-1.1566 0.39077,-0.10538 -0.6268,0.51386 -0.91594,0.79707 -0.80426,0.78778 -1.31304,1.63873 -1.79868,2.63957 -0.79445,2.03922 -1.22493,4.16704 -1.49561,6.33039 -0.21843,2.04907 -0.23555,4.1116 -0.2477,6.16997 -0.0105,2.24448 0.003,4.48897 0.003,6.73346 0.10149,2.41554 1.19152,4.60248 2.42142,6.63278 1.29506,1.79964 3.05276,3.11778 5.04025,4.05784 2.43752,1.28644 4.98663,2.28686 7.63965,3.02248 2.64641,0.8912 5.3781,1.35482 8.15138,1.58835 2.44629,0.22495 4.8597,0.24197 7.23504,-0.42272 2.05833,-0.61659 4.01752,-1.54933 5.91933,-2.54227 -0.76828,0.43427 -1.51099,0.91727 -2.30484,1.30283 -0.35096,0.17045 0.65321,-0.42728 0.97026,-0.65466 1.36048,-0.97569 2.6022,-2.08472 3.76231,-3.28778 1.91958,-2.15358 2.49581,-4.87074 2.91031,-7.63666 0.33593,-2.65149 0.35907,-5.32684 0.36824,-7.99514 -0.0518,-2.26412 -1.43879,-3.90652 -2.86099,-5.52318 -1.60536,-1.5031 -3.08319,-3.11656 -4.98411,-4.2491 -2.09253,-1.32382 -4.41962,-2.10259 -6.73012,-2.93254 -2.15065,-0.65971 -4.32282,-1.29598 -6.52266,-1.77504 -1.51934,-0.25597 -0.75935,-0.14388 -2.27991,-0.33675 0,0 3.11596,-2.20193 3.11596,-2.20193 l 0,0 c 1.53289,0.21054 0.76637,0.0894 2.29947,0.36416 2.20535,0.50405 4.39374,1.11939 6.54461,1.817 2.33564,0.82885 4.66603,1.66407 6.77804,2.99403 1.90782,1.18486 3.42965,2.80159 5.04249,4.34885 1.47982,1.68426 2.91619,3.41388 2.99376,5.7655 -0.0111,2.68659 -0.0269,5.37966 -0.3585,8.05027 -0.39944,2.81168 -0.92003,5.5978 -2.79982,7.84158 -2.5388,2.75672 -5.57136,4.80246 -8.92405,6.49675 -1.92418,0.9676 -3.88511,1.91023 -5.97051,2.47577 -2.4091,0.57668 -4.84221,0.5477 -7.3013,0.3098 -2.78824,-0.25643 -5.52691,-0.76292 -8.1908,-1.64813 -2.6625,-0.77056 -5.23147,-1.7872 -7.69253,-3.06803 -2.02652,-1.01236 -3.83102,-2.37923 -5.14857,-4.24811 -1.26422,-2.08641 -2.38058,-4.33704 -2.52221,-6.81373 -0.007,-2.24393 -0.008,-4.48789 -0.0123,-6.73183 0.0107,-2.07232 0.0257,-4.14845 0.23377,-6.2124 0.26016,-2.19631 0.68015,-4.35224 1.44047,-6.43586 1.53652,-3.49581 4.67401,-5.26932 8.09909,-6.88748 2.59176,-1.06903 5.34253,-1.72049 8.16407,-1.6218 0,0 -3.09995,2.25225 -3.09995,2.25225 z"
       inkscape:connector-curvature="0" />
    <path
       style="fill:#008000;stroke:none"
       id="path3074"
       d="m 641.10254,125.94821 c -2.71978,-0.0873 -5.41639,-0.0462 -8.07281,0.58052 -2.29791,0.47488 -4.33258,1.59478 -6.36883,2.69988 0.76319,-0.43453 1.50609,-0.90684 2.28959,-1.30359 0.34634,-0.17537 -0.66297,0.40608 -0.97453,0.63767 -1.41658,1.05295 -2.52368,2.37945 -3.61048,3.75261 -1.62071,2.0277 -2.9804,4.26606 -4.09099,6.6098 -0.91195,2.03071 -1.11786,4.22362 -1.22274,6.41711 -0.0103,2.13861 -0.16277,4.29283 0.0752,6.42206 0.50548,2.24862 1.81818,4.07391 3.45236,5.64342 1.74991,1.73786 3.80791,2.93251 6.07059,3.85984 2.33487,0.89304 4.83226,1.01859 7.30123,1.11688 2.29258,0.064 4.58635,0.0455 6.87949,0.0355 2.11507,0.15096 4.17339,-0.20256 6.25976,-0.46999 2.37325,-0.51521 4.79015,-0.90579 7.02432,-1.88809 0.29426,-0.1315 0.5942,-0.25097 0.88279,-0.3945 0.5735,-0.28522 1.13633,-0.5915 1.70088,-0.89405 0.29093,-0.15592 1.14967,-0.64913 0.86025,-0.49044 -2.57895,1.41404 -3.17497,1.89066 -1.47301,0.67603 1.83073,-1.39615 2.92636,-3.15483 3.52895,-5.34347 0.45745,-2.09889 0.4798,-4.2546 0.49775,-6.39262 0.12999,-1.98151 -0.11263,-3.90915 -0.44721,-5.85428 -0.50099,-2.09479 -1.55717,-3.98096 -2.78406,-5.72959 -1.1614,-1.95998 -2.67831,-3.62973 -4.44046,-5.0605 -1.64704,-1.34764 -3.5997,-2.26658 -5.60031,-2.95888 -1.91415,-0.58068 -3.81323,-1.13723 -5.79617,-1.4284 -1.28039,-0.16373 -2.57118,-0.20184 -3.85995,-0.23605 0,0 3.10047,-2.23866 3.10047,-2.23866 l 0,0 c 1.29843,0.0423 2.59898,0.0906 3.88686,0.27481 1.99243,0.32143 3.91023,0.89181 5.83541,1.48904 2.02588,0.74015 4.0012,1.68351 5.66879,3.07193 1.77116,1.47154 3.31518,3.15911 4.49144,5.15058 1.25976,1.79452 2.34017,3.7283 2.87468,5.87207 0.33862,1.96625 0.61931,3.91052 0.47714,5.91546 -0.0151,2.16616 -0.0354,4.34757 -0.46122,6.48036 -0.56252,2.26139 -1.5783,4.09347 -3.42333,5.58252 -2.62272,1.95187 -5.55547,3.50413 -8.51989,4.87422 -2.27677,0.89101 -4.68407,1.338 -7.07734,1.80259 -2.09584,0.28427 -4.17355,0.56768 -6.29703,0.43706 -2.29296,0.007 -4.58671,0.0197 -6.87875,-0.058 -2.50293,-0.11506 -5.02837,-0.27711 -7.38083,-1.22485 -2.28993,-0.97009 -4.3727,-2.21025 -6.14854,-3.97988 -1.68038,-1.64708 -3.03879,-3.53703 -3.58943,-5.86474 -0.27134,-2.14592 -0.0968,-4.32178 -0.0983,-6.48028 0.0922,-2.23388 0.26811,-4.47118 1.16264,-6.5536 1.08408,-2.37349 2.44461,-4.63864 4.05808,-6.69075 2.4319,-3.13373 5.0347,-5.30804 8.76803,-6.98081 2.04151,-1.11412 4.12631,-2.14821 6.42863,-2.61086 2.68804,-0.55648 5.40342,-0.58046 8.14079,-0.52734 0,0 -3.09996,2.25225 -3.09996,2.25225 z"
       inkscape:connector-curvature="0" />
  </g>
</svg>
