<?xml version="1.0" encoding="UTF-8" standalone="no"?>
<!-- Created with Inkscape (http://www.inkscape.org/) -->

<svg
   xmlns:dc="http://purl.org/dc/elements/1.1/"
   xmlns:cc="http://creativecommons.org/ns#"
   xmlns:rdf="http://www.w3.org/1999/02/22-rdf-syntax-ns#"
   xmlns:svg="http://www.w3.org/2000/svg"
   xmlns="http://www.w3.org/2000/svg"
   xmlns:sodipodi="http://sodipodi.sourceforge.net/DTD/sodipodi-0.dtd"
   xmlns:inkscape="http://www.inkscape.org/namespaces/inkscape"
   width="1052.3622"
   height="744.09448"
   id="svg2"
   version="1.1"
   inkscape:version="0.48.2 r9819"
   sodipodi:docname="Journey_02_BCs.svg">
  <title
     id="title3798">Bounded Contexts</title>
  <defs
     id="defs4" />
  <sodipodi:namedview
     id="base"
     pagecolor="#ffffff"
     bordercolor="#666666"
     borderopacity="1.0"
     inkscape:pageopacity="0.0"
     inkscape:pageshadow="2"
     inkscape:zoom="1.0334709"
     inkscape:cx="526.18109"
     inkscape:cy="372.53105"
     inkscape:document-units="px"
     inkscape:current-layer="layer2"
     showgrid="false"
     inkscape:window-width="1680"
     inkscape:window-height="988"
     inkscape:window-x="-8"
     inkscape:window-y="1042"
     inkscape:window-maximized="1" />
  <metadata
     id="metadata7">
    <rdf:RDF>
      <cc:Work
         rdf:about="">
        <dc:format>image/svg+xml</dc:format>
        <dc:type
           rdf:resource="http://purl.org/dc/dcmitype/StillImage" />
        <dc:title>Bounded Contexts</dc:title>
      </cc:Work>
    </rdf:RDF>
  </metadata>
  <g
     inkscape:label="Template"
     inkscape:groupmode="layer"
     id="layer1"
     transform="translate(0,-308.2677)"
     style="display:none"
     sodipodi:insensitive="true">
    <rect
       style="fill:none;stroke:#800000;stroke-width:1px;stroke-linecap:butt;stroke-linejoin:miter;stroke-opacity:1"
       id="rect3754"
       width="965.67786"
       height="629.91614"
       x="38.704525"
       y="48.380657"
       transform="translate(0,308.2677)" />
    <path
       style="fill:none;stroke:#800000;stroke-width:1px;stroke-linecap:butt;stroke-linejoin:miter;stroke-opacity:1"
       d="M 37.736911,360.91969 1004.3824,355.11401"
       id="path3756"
       inkscape:connector-curvature="0"
       transform="translate(0,308.2677)" />
    <path
       style="fill:none;stroke:#800000;stroke-width:1px;stroke-linecap:butt;stroke-linejoin:miter;stroke-opacity:1"
       d="m 341.56743,360.91969 1.93522,317.3771"
       id="path3758"
       inkscape:connector-curvature="0"
       transform="translate(0,308.2677)" />
    <path
       style="fill:none;stroke:#800000;stroke-width:1px;stroke-linecap:butt;stroke-linejoin:miter;stroke-opacity:1"
       d="m 708.2928,357.04924 0.96761,322.21516"
       id="path3760"
       inkscape:connector-curvature="0"
       transform="translate(0,308.2677)" />
  </g>
  <g
     inkscape:groupmode="layer"
     id="layer2"
     inkscape:label="Drawing"
     style="display:inline">
    <path
       style="fill:#000000;stroke:none"
       d="M 1001.3438 43.46875 L 997.96875 45.25 C 998.06514 46.16955 998.19102 47.084883 998.3125 48 C 997.73527 48.088352 997.16851 48.174794 996.59375 48.28125 C 993.66511 48.843701 990.74902 49.44975 987.75 49.375 C 984.41463 49.607224 981.11862 49.983688 977.78125 50.1875 C 974.88282 50.18358 971.95994 50.21555 969.0625 50.125 C 965.29603 49.963891 961.56499 49.5864 957.84375 48.96875 C 951.70484 48.058616 945.56158 47.33236 939.34375 47.28125 C 935.73848 47.27087 932.13654 47.247 928.53125 47.25 C 925.4775 47.2552 922.42875 47.27895 919.375 47.28125 C 916.1471 47.2805 912.91473 47.29411 909.6875 47.21875 C 906.69055 47.119921 903.70063 46.915731 900.71875 46.59375 C 896.7127 46.227005 892.67728 46.27984 888.65625 46.3125 C 883.4948 46.3192 878.34896 46.3106 873.1875 46.3125 C 865.93054 46.32173 858.66322 46.344167 851.40625 46.34375 C 843.49509 46.351282 835.59636 46.310253 827.6875 46.53125 C 821.79727 46.786738 815.934 47.287588 810.0625 47.8125 C 804.79849 48.093117 799.52458 48.390942 794.25 48.25 C 788.52203 48.257491 782.79047 48.26511 777.0625 48.25 C 770.87309 48.24918 764.68938 48.26282 758.5 48.28125 C 747.18899 48.304449 735.87353 48.33484 724.5625 48.3125 C 716.2717 48.28219 707.97835 48.22879 699.6875 48.25 C 690.14897 48.26402 680.63228 48.27045 671.09375 48.28125 C 665.75138 48.30144 660.38707 48.290002 655.0625 48.78125 C 650.44913 49.241243 645.82061 49.568846 641.1875 49.75 C 635.72431 50.118577 630.29082 50.334771 624.8125 50.09375 C 614.96772 49.936812 605.12376 49.664387 595.28125 49.40625 C 581.25275 49.161556 567.21758 49.33419 553.1875 49.28125 C 539.82663 49.27362 526.4546 49.26596 513.09375 49.25 C 504.04539 49.23481 495.01712 49.2579 485.96875 49.25 C 478.75611 49.238665 471.52182 49.245622 464.3125 49 C 456.62192 48.658846 448.94604 48.068557 441.25 47.84375 C 426.10206 47.631786 410.94899 47.675237 395.8125 48.40625 C 386.71461 48.82588 377.64355 49.416874 368.53125 49.21875 C 363.25371 49.22545 357.96502 49.24016 352.6875 49.21875 C 342.15711 49.152356 331.61827 48.999885 321.09375 48.625 C 307.96321 48.128095 294.83757 47.649644 281.71875 46.90625 C 280.03624 46.795706 274.00991 46.39915 272.1875 46.34375 C 267.08789 46.188735 261.97561 46.460679 256.875 46.34375 C 249.01231 46.34255 241.14394 46.33565 233.28125 46.34375 C 224.73302 46.33944 216.17323 46.34765 207.625 46.34375 C 199.64105 46.33934 191.67145 46.3113 183.6875 46.3125 C 176.63221 46.30891 169.55529 46.34175 162.5 46.34375 C 154.09253 46.336429 145.68872 46.34005 137.28125 46.34375 C 130.36625 46.360168 123.47463 46.372812 116.5625 46.59375 C 107.9004 46.883332 99.232345 47.40685 90.5625 47.3125 C 80.358163 47.269495 70.138572 47.225657 59.9375 46.9375 C 53.964661 46.742478 48.00604 46.33779 42.03125 46.28125 L 38.9375 48.53125 C 44.962923 48.503791 50.976944 48.890083 57 49.0625 C 67.20675 49.316169 77.415463 49.40179 87.625 49.4375 C 96.278429 49.529148 104.91606 49.060388 113.5625 48.78125 C 120.47264 48.567782 127.39969 48.52722 134.3125 48.5 C 142.73154 48.47442 151.14343 48.47175 159.5625 48.46875 C 166.59926 48.47474 173.65073 48.5024 180.6875 48.5 C 188.69573 48.50209 196.67928 48.47315 204.6875 48.46875 C 213.22209 48.46486 221.77792 48.5043 230.3125 48.5 C 238.17936 48.50811 246.0394 48.5012 253.90625 48.5 C 262.20948 48.383337 270.49429 48.517023 278.78125 49.03125 C 291.92538 49.725393 305.06662 50.160486 318.21875 50.6875 C 328.70477 51.030171 339.19665 51.253324 349.6875 51.375 C 354.95077 51.43292 360.23652 51.4394 365.5 51.4375 C 374.67777 51.607633 383.80767 50.918128 392.96875 50.46875 C 408.0933 49.67706 423.23755 49.670049 438.375 49.9375 C 446.01883 50.182143 453.6439 50.818555 461.28125 51.1875 C 468.51956 51.448549 475.75829 51.39795 483 51.40625 C 492.05448 51.40874 501.13304 51.39562 510.1875 51.375 C 523.58603 51.3523 536.97645 51.35205 550.375 51.34375 C 564.38734 51.413792 578.3956 51.216941 592.40625 51.46875 C 602.20767 51.740863 612.00956 52.036764 621.8125 52.25 C 627.27996 52.482061 632.73338 52.336603 638.1875 51.96875 C 642.81449 51.761991 647.42085 51.474984 652.03125 51.03125 C 657.37535 50.518355 662.76166 50.53048 668.125 50.46875 C 677.6652 50.39635 687.17837 50.38689 696.71875 50.40625 C 705.03494 50.43556 713.37135 50.43482 721.6875 50.40625 C 732.97617 50.38545 744.27387 50.38288 755.5625 50.40625 C 761.73167 50.42475 767.89331 50.438355 774.0625 50.4375 C 779.7831 50.42234 785.49815 50.43 791.21875 50.4375 C 796.50681 50.573601 801.78531 50.286969 807.0625 50 C 812.92977 49.481743 818.80287 48.987706 824.6875 48.71875 C 832.61943 48.46221 840.53352 48.47855 848.46875 48.46875 C 855.69679 48.46034 862.92824 48.482 870.15625 48.5 C 875.31593 48.5081 880.49657 48.4925 885.65625 48.5 C 889.6591 48.489762 893.63528 48.430716 897.625 48.78125 C 900.6055 49.099127 903.59855 49.329227 906.59375 49.4375 C 909.82779 49.51043 913.07783 49.499064 916.3125 49.5 C 919.36235 49.499864 922.38765 49.4979 925.4375 49.5 C 929.06003 49.50001 932.68999 49.47925 936.3125 49.46875 C 942.52139 49.487117 948.65411 50.195815 954.78125 51.125 C 958.4903 51.761012 962.24359 52.156027 966 52.34375 C 968.90457 52.44954 971.81281 52.41771 974.71875 52.40625 C 978.05643 52.230681 981.35371 51.857557 984.6875 51.625 C 987.69517 51.670809 990.62219 51.125876 993.5625 50.5625 C 995.21893 50.245612 996.88716 50.044383 998.5625 49.875 C 998.75357 51.181236 998.94777 52.475825 999.15625 53.78125 C 999.62077 56.518849 999.6906 59.293102 999.75 62.0625 C 1000.139 66.041696 1000.7893 70.021033 1001.4375 73.96875 C 1002.1825 78.565942 1002.6267 83.207025 1003.3125 87.8125 C 1004.0902 92.212988 1004.3756 96.666429 1004.5312 101.125 C 1004.683 107.19224 1004.6662 113.24385 1004.6562 119.3125 C 1004.7663 124.40218 1004.6205 129.49476 1003.6562 134.5 C 1002.4359 139.46074 1000.9339 144.32509 999.6875 149.28125 C 998.64258 153.30958 997.60176 157.35322 996.65625 161.40625 C 995.75184 164.40663 995.47764 167.52962 994.71875 170.5625 C 992.97519 176.36331 992.27861 182.39779 991.71875 188.40625 C 991.18076 194.87121 991.10995 201.36073 991.09375 207.84375 C 991.09175 214.93392 991.09875 222.00359 991.09375 229.09375 C 991.03114 234.81821 991.03008 240.52378 991.65625 246.21875 C 992.23091 251.45958 992.80712 256.69688 993.625 261.90625 C 994.5058 267.43986 995.18978 273.00322 996.28125 278.5 C 997.4709 284.16309 998.4477 289.89065 999.59375 295.5625 C 1000.6295 301.56067 1001.8628 307.50355 1002.9062 313.5 C 1003.6663 319.16406 1004.6365 324.81088 1005.4375 330.46875 C 1006.1873 337.10118 1007.1858 343.69241 1008.2188 350.28125 C 1008.0371 350.29273 1008.0706 350.28837 1007.6875 350.3125 C 1004.209 350.59957 1000.7501 351.0488 997.3125 351.65625 C 994.70443 351.9867 992.11378 352.43059 989.5 352.71875 C 986.80967 353.06504 984.11676 353.0483 981.40625 353 C 978.00545 352.99808 974.58609 353.02347 971.1875 353.15625 C 966.74232 353.35695 962.29811 353.67485 957.96875 354.78125 C 954.3097 355.72632 950.83152 356.3016 947.03125 356.3125 C 939.96775 356.76397 932.89437 357.10075 925.8125 356.9375 C 916.14 356.94913 906.45304 356.93286 896.78125 357.0625 C 892.79121 357.18449 888.77972 357.22878 884.84375 357.96875 C 881.40112 358.23215 878.03842 358.919 874.65625 359.59375 C 866.87583 361.00769 858.98161 361.45401 851.09375 361.90625 C 840.52135 362.50756 829.93748 362.96934 819.34375 362.78125 C 810.11152 362.78395 800.88843 362.7942 791.65625 362.75 C 780.43974 362.67218 769.19713 362.5312 758 361.8125 C 747.80171 361.04371 737.63367 359.87725 727.5 358.5 C 719.01712 357.30959 710.55104 356.24481 702 355.6875 C 693.78726 354.80827 685.55036 354.0264 677.40625 352.625 C 673.61885 351.94487 669.8039 351.23451 665.96875 350.875 C 661.33734 350.44085 656.67253 350.54055 652.03125 350.3125 C 640.86226 350.07858 629.67091 350.24275 618.5 350.21875 C 608.40068 350.28275 598.31421 350.41962 588.21875 350.71875 C 577.04887 351.02689 565.89388 351.23175 554.71875 351.15625 C 542.94603 351.24934 531.16227 351.4077 519.40625 352.09375 C 506.78023 352.87037 494.17377 353.92477 481.5625 354.90625 C 469.74462 355.41299 457.91357 355.78858 446.09375 356.25 C 435.0994 356.53798 424.11535 357.04981 413.15625 358 C 403.22768 358.58346 393.32473 359.14586 383.375 358.625 C 374.69396 358.40155 365.997 357.91525 357.3125 357.90625 C 348.32853 357.90635 339.35888 357.8892 330.375 357.9375 C 321.16611 358.00427 311.94705 358.07725 302.75 358.59375 C 292.98448 359.16605 283.22412 359.8033 273.4375 359.875 C 263.11906 359.8627 252.81845 359.867 242.5 359.875 C 231.16739 359.885 219.8326 359.8942 208.5 359.875 C 198.39504 359.87338 188.29148 359.87819 178.1875 359.71875 C 168.86739 359.52896 159.54525 359.20708 150.25 358.46875 C 140.46035 357.84652 130.65115 357.7468 120.84375 357.6875 C 109.01935 357.50765 97.197912 357.07695 85.375 357.4375 C 75.673033 357.87005 65.962253 358.56397 56.25 358.75 C 49.971128 358.8924 43.686516 358.88135 37.40625 358.84375 L 34.34375 361.0625 C 40.67621 361.03128 46.981908 361.07641 53.3125 360.90625 C 63.026339 360.70827 72.733653 360.02826 82.4375 359.59375 C 94.273278 359.17986 106.13111 359.58271 117.96875 359.78125 C 127.75268 359.88209 137.51379 359.98756 147.28125 360.59375 C 156.57985 361.33001 165.89538 361.64904 175.21875 361.84375 C 185.32804 361.98221 195.45247 361.995 205.5625 362 C 216.90195 361.9766 228.25428 361.96475 239.59375 361.96875 C 249.91287 361.97175 260.21212 361.98125 270.53125 361.96875 C 280.3056 361.90327 290.05838 361.34507 299.8125 360.78125 C 309.01227 360.25869 318.22551 360.16565 327.4375 360.09375 C 336.41185 360.04505 345.40056 360.0555 354.375 360.0625 C 363.0649 360.06495 371.75092 360.53397 380.4375 360.75 C 390.40104 361.25657 400.30781 360.75455 410.25 360.15625 C 421.21319 359.2113 432.22107 358.64745 443.21875 358.34375 C 455.04267 357.87379 466.86529 357.54112 478.6875 357.03125 C 491.3079 356.06349 503.92848 354.96593 516.5625 354.1875 C 528.30212 353.50463 540.05629 353.36525 551.8125 353.28125 C 562.99435 353.37374 574.1672 353.1119 585.34375 352.8125 C 595.42202 352.52694 605.48074 352.40755 615.5625 352.34375 C 626.7423 352.32885 637.94704 352.16521 649.125 352.40625 C 653.74716 352.63814 658.38761 352.57048 663 353 C 666.82103 353.35582 670.60128 354.04434 674.375 354.71875 C 682.52972 356.13323 690.77662 356.91713 699 357.8125 C 707.55017 358.41248 716.04346 359.41424 724.53125 360.59375 C 734.68332 361.96815 744.8761 363.1548 755.09375 363.90625 C 766.28731 364.61988 777.50614 364.77342 788.71875 364.875 C 797.94423 364.9295 807.18067 364.91995 816.40625 364.90625 C 827.01344 365.05317 837.60077 364.63496 848.1875 364.03125 C 856.0441 363.58031 863.92811 363.2022 871.6875 361.84375 C 875.04402 361.19486 878.37221 360.51174 881.78125 360.21875 C 885.7431 359.51527 889.7691 359.414 893.78125 359.28125 C 903.4836 359.0658 913.20198 359.0655 922.90625 359.0625 C 929.94998 359.23652 936.97109 358.94163 944 358.53125 C 947.73875 358.52041 951.35884 357.98421 954.96875 357.0625 C 959.28483 355.93049 963.74894 355.58924 968.1875 355.375 C 971.56843 355.23694 974.9294 355.24914 978.3125 355.25 C 981.02716 355.27672 983.73853 355.3178 986.4375 355 C 989.0568 354.71565 991.6708 354.28699 994.28125 353.9375 C 997.71554 353.34103 1001.1516 352.8547 1004.625 352.5625 C 1006.2784 352.45534 1005.5135 352.5133 1006.9375 352.4375 L 1008.4062 351.34375 C 1008.5505 352.26045 1008.6676 353.17671 1008.8125 354.09375 C 1010.0386 361.23098 1011.0236 368.40462 1011.5938 375.625 C 1012.3519 386.99867 1012.3727 398.38791 1012.4688 409.78125 C 1012.5845 423.11271 1011.0313 436.39536 1009.5625 449.625 C 1008.9225 456.57271 1007.7998 463.43604 1007.0938 470.375 C 1006.2763 475.38839 1005.976 480.46299 1005.7812 485.53125 C 1005.389 491.25417 1004.5521 496.93799 1004.0938 502.65625 C 1003.7707 506.89601 1003.6735 511.12469 1003.6562 515.375 C 1003.6562 519.75245 1003.6563 524.1538 1003.6562 528.53125 C 1003.5974 532.50946 1003.6422 536.47027 1003.9375 540.4375 C 1004.3539 544.60041 1004.3436 548.77178 1004.6875 552.9375 C 1005.2473 560.44807 1005.4054 568.00321 1005.5312 575.53125 C 1005.5326 583.3935 1005.6961 591.24809 1006.2188 599.09375 C 1006.736 605.49696 1007.0893 611.88532 1007.6875 618.28125 C 1008.1729 623.54426 1008.3673 628.84287 1008.4688 634.125 C 1008.5317 638.02368 1008.512 641.91347 1008.5 645.8125 C 1008.2486 648.36078 1007.8892 650.88356 1007.6875 653.4375 C 1007.2273 655.62618 1006.9026 657.83399 1006.7188 660.0625 C 1006.2409 662.60253 1005.2216 665.05096 1004.3125 667.46875 C 1003.5593 669.9124 1002.9361 672.38629 1002.3438 674.875 L 1005.7812 673.21875 C 1006.38 670.74613 1006.991 668.26161 1007.7812 665.84375 C 1008.6812 663.39253 1009.7224 660.9631 1010.125 658.375 C 1010.3187 656.14698 1010.6892 653.94799 1011.0938 651.75 C 1011.2985 649.19204 1011.679 646.65159 1011.875 644.09375 C 1011.868 640.19722 1011.8765 636.30235 1011.8125 632.40625 C 1011.6873 627.12017 1011.4727 621.83058 1011 616.5625 C 1010.4018 610.17991 1010.005 603.79475 1009.4688 597.40625 C 1008.9511 589.56148 1008.8325 581.70408 1008.8125 573.84375 C 1008.6632 566.29682 1008.4624 558.75564 1008.0312 551.21875 C 1007.6998 547.05426 1007.6934 542.84834 1007.2812 538.6875 C 1006.9956 534.72547 1006.9882 530.7842 1007.0312 526.8125 C 1007.0213 522.43831 1006.9992 518.06167 1007.0312 513.6875 C 1007.0743 509.45015 1007.1232 505.19644 1007.4375 500.96875 C 1007.8973 495.2476 1008.7308 489.56914 1009.125 483.84375 C 1009.322 478.78007 1009.6686 473.73232 1010.4375 468.71875 C 1011.1331 461.80639 1012.1748 454.95421 1012.7812 448.03125 C 1014.2071 434.79518 1015.649 421.51606 1015.625 408.1875 C 1015.5906 396.77364 1015.5511 385.33195 1014.8125 373.9375 C 1014.2909 366.69497 1013.3748 359.51781 1012.0625 352.375 C 1010.7855 344.51213 1009.5741 336.6443 1008.75 328.71875 C 1007.9647 323.0583 1006.9802 317.44085 1006.1875 311.78125 C 1005.149 305.77811 1003.9545 299.80829 1002.875 293.8125 C 1001.7477 288.13771 1000.7604 282.41065 999.5625 276.75 C 998.48814 271.25209 997.83038 265.68585 996.9375 260.15625 C 996.11165 254.95265 995.56292 249.73386 994.96875 244.5 C 994.35903 238.82162 994.33045 233.11347 994.40625 227.40625 C 994.38385 220.31961 994.37635 213.24291 994.40625 206.15625 C 994.45681 199.68331 994.49425 193.20544 995.03125 186.75 C 995.59577 180.73513 996.32906 174.72988 998.125 168.9375 C 998.86465 165.89886 999.19579 162.75386 1000.0938 159.75 C 1001.0249 155.70907 1002.0215 151.70139 1003.0625 147.6875 C 1004.3158 142.72227 1005.8456 137.82449 1007.0312 132.84375 C 1007.9556 127.81753 1008.1097 122.72828 1008 117.625 C 1007.9912 111.55057 1007.9882 105.47979 1007.875 99.40625 C 1007.7311 94.931063 1007.4246 90.476509 1006.625 86.0625 C 1005.9379 81.453327 1005.4799 76.790311 1004.75 72.1875 C 1004.1114 68.25323 1003.4532 64.314011 1003.125 60.34375 C 1003.0699 57.556506 1003.0208 54.752317 1002.5312 52 C 1002.4001 51.195377 1002.2799 50.398698 1002.1562 49.59375 C 1002.2708 49.587669 1002.3855 49.568133 1002.5 49.5625 L 1003.7812 49.4375 L 1006.8125 47.15625 L 1005.5625 47.3125 C 1004.3187 47.3658 1003.0824 47.476325 1001.8438 47.59375 C 1001.6526 46.221978 1001.4724 44.850511 1001.3438 43.46875 z M 35.5625 53.15625 L 32.15625 54.90625 C 31.821899 58.695514 31.206846 62.434544 30.8125 66.21875 C 30.321583 69.856506 30.365375 73.484354 30.6875 77.125 C 31.12895 80.902976 32.045956 84.575293 33 88.25 C 33.996385 92.348868 34.928167 96.448355 35.53125 100.625 C 36.255573 106.37533 36.626065 112.18041 36.875 117.96875 C 37.025784 121.94472 37.02605 125.92801 37.03125 129.90625 C 37.03335 134.40886 37.02305 138.90366 37.03125 143.40625 C 37.117986 148.63031 36.910773 153.83793 36.34375 159.03125 C 35.666369 163.6327 35.378931 168.29378 35.21875 172.9375 C 34.747334 177.71931 34.594323 182.52958 34.15625 187.3125 C 33.600234 192.00182 33.543828 196.7049 33.15625 201.40625 C 32.859653 205.78263 32.354405 210.14531 31.84375 214.5 C 31.519891 217.89052 31.18183 221.27922 30.53125 224.625 C 29.812748 228.16907 29.09515 231.71616 28.6875 235.3125 C 28.059038 239.16185 27.857067 243.04154 27.375 246.90625 C 26.756644 250.88584 26.612686 254.91832 26.5 258.9375 C 26.39193 264.38672 26.40235 269.83116 26.40625 275.28125 C 26.40282 281.33665 26.40295 287.41335 26.40625 293.46875 C 26.275877 300.34973 26.720422 307.22202 27 314.09375 C 27.269344 320.70366 27.3237 327.29196 27.375 333.90625 C 27.40981 341.67842 27.41555 349.47778 27.40625 357.25 C 27.416023 364.59622 27.506147 371.91813 27 379.25 C 26.336434 387.01893 26.063032 394.79588 25.0625 402.53125 C 24.372828 408.41752 23.723598 414.3191 23.15625 420.21875 C 22.678634 425.91025 22.5947 431.636 22.53125 437.34375 C 22.49103 442.68728 22.52865 448.03138 22.53125 453.375 C 22.53529 458.41478 22.53305 463.42896 22.53125 468.46875 C 22.662565 473.03297 22.233801 477.64506 22.75 482.1875 C 23.672947 486.81791 23.913708 491.5326 24.375 496.21875 C 24.937819 501.33358 25.161776 506.45255 25.3125 511.59375 C 25.608082 515.33488 26.019162 519.06424 26.21875 522.8125 C 26.398641 527.24145 26.40125 531.69312 26.40625 536.125 C 26.228481 540.49292 26.674452 544.83717 26.96875 549.1875 C 27.268863 554.48206 27.31069 559.79216 27.34375 565.09375 C 27.36413 570.01235 27.3707 574.92514 27.375 579.84375 C 27.432601 585.15145 27.259422 590.44656 27.5 595.75 C 27.900965 601.67985 28.121913 607.62123 28.25 613.5625 C 28.351274 618.94099 28.185117 624.32096 28.59375 629.6875 C 28.880722 633.05961 29.025227 636.42954 29.5 639.78125 C 29.771258 642.66771 30.362708 645.5092 30.78125 648.375 C 31.084875 650.50694 31.14982 652.66245 31.1875 654.8125 C 31.20586 657.1672 31.21575 659.52023 31.21875 661.875 C 31.15877 665.42935 31.363416 668.98453 31.09375 672.53125 C 30.983712 673.91296 30.796875 675.27318 30.5 676.625 L 33.90625 674.96875 C 34.178798 673.60268 34.36996 672.2352 34.46875 670.84375 C 34.697018 667.2864 34.52625 663.71914 34.59375 660.15625 C 34.60213 657.7948 34.62657 655.42387 34.59375 653.0625 C 34.549193 650.89953 34.444921 648.73658 34.125 646.59375 C 33.691472 643.73233 33.11572 640.91577 32.84375 638.03125 C 32.374522 634.69133 32.236242 631.32739 31.9375 627.96875 C 31.518227 622.6194 31.63118 617.23733 31.53125 611.875 C 31.4187 605.92598 31.199487 600.00047 30.8125 594.0625 C 30.594501 588.76122 30.71852 583.42971 30.6875 578.125 C 30.696 573.20818 30.71731 568.29175 30.6875 563.375 C 30.648021 558.0625 30.601179 552.77497 30.3125 547.46875 C 30.037328 543.1267 29.574336 538.76551 29.75 534.40625 C 29.738223 529.96276 29.738694 525.53455 29.5625 521.09375 C 29.356946 517.3515 28.94018 513.61127 28.65625 509.875 C 28.474616 504.73004 28.234156 499.58964 27.6875 494.46875 C 27.228389 489.7783 27.008567 485.07319 26.09375 480.4375 C 25.605836 475.90795 25.966913 471.33022 25.84375 466.78125 C 25.83941 461.74259 25.84955 456.6949 25.84375 451.65625 C 25.83755 446.31579 25.83833 440.99663 25.875 435.65625 C 25.931878 429.95666 26.008465 424.24446 26.5 418.5625 C 27.066648 412.67269 27.688785 406.78304 28.375 400.90625 C 29.335578 393.16659 29.603514 385.39261 30.28125 377.625 C 30.790313 370.28314 30.71684 362.91903 30.6875 355.5625 C 30.68258 347.78884 30.67387 340.02364 30.65625 332.25 C 30.638026 325.63053 30.568431 318.98914 30.28125 312.375 C 29.994809 305.5057 29.583789 298.66011 29.71875 291.78125 C 29.71805 285.72436 29.72545 279.65063 29.71875 273.59375 C 29.726267 268.14182 29.714163 262.70077 29.84375 257.25 C 29.971793 253.23633 30.172465 249.2249 30.78125 245.25 C 31.239596 241.38118 31.427407 237.47466 32.0625 233.625 C 32.480449 230.03562 33.214575 226.50647 33.9375 222.96875 C 34.554855 219.61304 34.90886 216.23997 35.21875 212.84375 C 35.726598 208.48821 36.18829 204.12517 36.5 199.75 C 36.876484 195.04887 36.97097 190.31287 37.53125 185.625 C 37.947326 180.83499 38.114699 176.0388 38.5625 171.25 C 38.733131 166.61402 39.032115 161.97148 39.6875 157.375 C 40.22644 152.16846 40.45971 146.92204 40.375 141.6875 C 40.38861 137.18026 40.40195 132.69475 40.40625 128.1875 C 40.401161 124.20732 40.407685 120.22679 40.21875 116.25 C 39.939833 110.44786 39.463583 104.65095 38.84375 98.875 C 38.220636 94.690697 37.283502 90.545884 36.28125 86.4375 C 35.345709 82.77626 34.489939 79.136448 34.0625 75.375 C 33.748244 71.762623 33.703175 68.171434 34.1875 64.5625 C 34.592083 60.75472 35.213498 56.969082 35.5625 53.15625 z M 392.28125 664.71875 C 389.50741 664.7367 386.71195 664.83286 383.9375 665.03125 C 373.37032 665.60063 362.85861 666.55224 352.34375 667.75 C 340.38252 668.66411 328.44302 669.72377 316.53125 671.15625 C 304.38346 672.54943 292.19012 673.69438 280.1875 676.125 C 277.31362 676.60931 274.44758 677.15019 271.5625 677.5625 C 267.06601 678.20511 262.51527 678.36755 258.03125 679.125 C 251.12548 679.97837 244.30235 681.33974 237.375 682.03125 C 230.93522 682.86767 224.46279 683.1845 217.96875 683.1875 C 210.1937 683.40151 202.4021 683.80078 194.625 683.9375 C 190.64471 683.90936 189.36474 683.99683 185.46875 683.625 C 182.23283 683.31617 179.06232 682.56529 175.84375 682.15625 C 174.87519 682.03317 173.87882 681.99205 172.90625 681.90625 C 165.49778 681.29689 158.08356 680.95884 150.65625 680.6875 C 140.21216 680.27375 129.77105 679.68855 119.34375 678.96875 C 110.28905 678.14269 101.23193 677.08457 92.15625 676.5 C 82.506249 676.40785 72.887088 676.72253 63.25 677.21875 C 56.538502 677.50092 49.793838 677.47859 43.09375 678 L 40.03125 680.28125 C 46.763304 679.62965 53.528584 679.65906 60.28125 679.375 C 69.925878 678.88254 79.592265 678.50915 89.25 678.59375 C 98.31518 679.13895 107.33167 680.29301 116.375 681.09375 C 126.81284 681.80197 137.26621 682.33785 147.71875 682.78125 C 155.11808 683.05692 162.52489 683.46841 169.90625 684.0625 C 174.12981 684.29518 178.23068 685.35495 182.4375 685.75 C 186.28972 686.11178 187.76224 686.0303 191.6875 686.0625 C 199.44619 685.94843 207.21246 685.58533 214.96875 685.375 C 221.46968 685.36726 227.95688 685.0361 234.40625 684.21875 C 241.33256 683.51958 248.15877 682.17869 255.0625 681.3125 C 259.54527 680.55695 264.09836 680.42054 268.59375 679.78125 C 268.93227 679.73311 277.22015 678.3229 277.28125 678.3125 C 289.30264 675.848 301.51285 674.63115 313.6875 673.25 C 325.58789 671.82777 337.51983 670.78703 349.46875 669.875 C 359.96657 668.70032 370.48179 667.73244 381.03125 667.1875 C 388.41246 666.68113 395.77546 666.92516 403.15625 667.21875 C 410.36454 667.51403 417.56769 667.64025 424.78125 667.71875 C 432.39316 667.66156 439.97292 668.43563 447.5625 668.90625 C 455.70483 669.40024 463.86788 669.82324 472 670.46875 C 478.11575 670.986 484.18617 671.8461 490.25 672.78125 C 499.54219 673.97901 508.90115 674.6755 518.25 675.25 C 535.32419 676.24255 552.3984 677.3654 569.46875 678.4375 C 582.76807 679.34791 596.07969 679.93477 609.40625 680.21875 C 620.74543 680.83577 632.07238 681.64265 643.40625 682.34375 C 653.92615 683.06647 664.46462 683.04655 675 683.3125 C 688.37504 683.82907 701.74314 684.41011 715.125 684.75 C 726.5084 685.03226 737.89483 685.1498 749.28125 685.1875 C 758.56618 684.99525 767.85375 684.66273 777.125 684.125 C 784.18745 684.04361 791.15345 682.91924 798.15625 682.15625 C 804.53672 681.51775 810.96821 681.42115 817.375 681.34375 C 822.55726 681.21778 827.7083 681.62401 832.84375 682.28125 C 836.07945 682.7472 839.36076 683.05649 842.625 683.21875 C 845.24417 683.30775 847.84836 683.3145 850.46875 683.3125 C 853.41817 683.3037 856.36307 683.28525 859.3125 683.28125 C 863.32114 683.27025 867.33509 683.27725 871.34375 683.28125 C 874.81494 683.31201 878.27827 682.90224 881.71875 682.46875 C 886.27346 682.05863 890.77841 681.37978 895.28125 680.59375 C 899.30744 680.01203 903.32469 679.4133 907.34375 678.78125 C 911.85177 678.08637 916.41511 677.77693 920.96875 677.59375 C 925.21726 677.54539 929.43617 677.42964 933.65625 676.90625 C 937.72271 676.2182 941.82209 675.89046 945.9375 675.6875 C 949.07037 675.5511 952.20849 675.53225 955.34375 675.53125 C 958.35452 675.53025 961.36424 675.52725 964.375 675.53125 C 967.64985 675.52825 970.9439 675.52825 974.21875 675.53125 C 976.69681 675.60338 979.18623 675.42107 981.65625 675.65625 C 984.57072 676.10822 987.52511 676.28685 990.46875 676.40625 C 993.28225 676.48762 996.09176 676.4834 998.90625 676.5 L 1001.9688 674.28125 C 999.15357 674.27515 996.34529 674.2739 993.53125 674.1875 C 990.60105 674.07376 987.64772 673.91404 984.75 673.4375 C 982.27142 673.14302 979.7725 673.3888 977.28125 673.3125 C 974.00633 673.3145 970.74367 673.3205 967.46875 673.3125 C 964.45978 673.3114 961.44646 673.28525 958.4375 673.28125 C 955.29074 673.28757 952.14433 673.2981 949 673.4375 C 944.8769 673.63879 940.75932 673.94599 936.6875 674.65625 C 932.47758 675.22103 928.24276 675.29835 924 675.34375 C 919.43865 675.52053 914.89431 675.86441 910.375 676.53125 C 906.3507 677.16295 902.31366 677.76968 898.28125 678.34375 C 893.78748 679.12924 889.30069 679.84768 884.75 680.21875 C 881.31827 680.65985 877.86805 681.06269 874.40625 681.0625 C 870.40374 681.0665 866.3775 681.0695 862.375 681.0625 C 859.42881 681.0625 856.50869 681.06345 853.5625 681.0625 C 850.94606 681.0629 848.30298 681.0836 845.6875 681 C 842.41652 680.86063 839.18005 680.5853 835.9375 680.125 C 830.77984 679.46529 825.5802 679.0304 820.375 679.15625 C 813.96048 679.23508 807.51475 679.34857 801.125 679.96875 C 794.10714 680.71681 787.13967 681.89035 780.0625 681.96875 C 770.78807 682.52159 761.50759 682.82762 752.21875 683.03125 C 740.80134 683.0095 729.38378 682.97392 717.96875 682.71875 C 704.60495 682.38816 691.2625 681.74164 677.90625 681.21875 C 667.37768 680.92507 656.82838 680.92553 646.3125 680.25 C 634.97882 679.56657 623.67976 678.7406 612.34375 678.09375 C 598.96973 677.84522 585.59839 677.31938 572.25 676.4375 C 555.2121 675.38832 538.16106 674.21278 521.125 673.15625 C 511.82563 672.53941 502.52718 671.84283 493.28125 670.65625 C 487.21133 669.70711 481.12737 668.83494 475 668.34375 C 466.85379 667.69542 458.68645 667.29901 450.53125 666.78125 C 442.95441 666.30128 435.3818 665.5091 427.78125 665.5625 C 420.56342 665.49153 413.36847 665.37046 406.15625 665.0625 C 401.53249 664.86511 396.90432 664.68884 392.28125 664.71875 z "
       id="path3772" />
    <path
       style="fill:#000000;stroke:none"
       d="M 516.375 54.15625 L 512.9375 55.84375 C 512.39852 59.393076 511.37569 62.850497 510.8125 66.40625 C 510.3984 70.395684 509.94259 74.378451 509.59375 78.375 C 509.22051 81.81859 508.53586 85.212171 507.96875 88.625 C 507.37702 92.621768 507.3698 96.656334 507.3125 100.6875 C 507.2781 106.03826 507.28153 111.39916 507.28125 116.75 C 507.29495 122.13135 507.3045 127.52489 507.3125 132.90625 C 507.3207 139.06226 507.31345 145.21899 507.3125 151.375 C 507.28211 157.46273 508.22824 163.50042 508.71875 169.5625 C 509.16841 175.5046 509.2081 181.45043 509.25 187.40625 C 509.2696 194.53612 508.79565 201.65599 508.5625 208.78125 C 508.09198 215.27921 507.70114 221.80026 507.5 228.3125 C 507.34356 233.88818 507.29695 239.45375 507.28125 245.03125 C 507.27025 249.40381 507.27825 253.78368 507.28125 258.15625 C 507.28845 263.24613 507.3115 268.3476 507.3125 273.4375 C 507.24546 278.50673 507.36955 283.56008 508 288.59375 C 508.5314 292.85212 509.35179 297.07268 510 301.3125 C 510.62398 306.82343 512.00418 312.16657 513.34375 317.53125 C 514.6738 322.02275 515.4819 326.64879 516.46875 331.21875 C 517.04399 334.44833 517.83049 337.6458 518.40625 340.875 C 518.85269 343.51786 518.87725 346.20311 518.90625 348.875 L 518.90625 350.53125 L 522.28125 348.78125 C 522.27825 348.22991 522.28425 347.70759 522.28125 347.15625 C 522.25071 344.46246 522.26598 341.72327 521.78125 339.0625 C 521.18149 335.83742 520.36827 332.66537 519.78125 329.4375 C 518.77634 324.86984 517.98943 320.24174 516.65625 315.75 C 515.30994 310.39929 513.87142 305.06758 513.28125 299.5625 C 512.65993 295.31847 511.88711 291.10053 511.34375 286.84375 C 510.70401 281.82852 510.5523 276.77086 510.625 271.71875 C 510.6256 266.62377 510.623 261.53246 510.625 256.4375 C 510.623 252.06771 510.629 247.71354 510.625 243.34375 C 510.63002 237.77563 510.63079 232.19147 510.78125 226.625 C 510.99103 220.11707 511.41248 213.62147 511.84375 207.125 C 512.0803 199.99259 512.55125 192.88738 512.53125 185.75 C 512.49322 179.78266 512.50885 173.79607 512.03125 167.84375 C 511.52034 161.79583 510.5961 155.76314 510.625 149.6875 C 510.624 143.52768 510.62 137.37857 510.625 131.21875 C 510.6297 125.83665 510.621 120.4446 510.625 115.0625 C 510.6165 109.71109 510.59465 104.35116 510.65625 99 C 510.71932 94.979082 510.76145 90.952127 511.375 86.96875 C 511.95171 83.552404 512.61121 80.137713 512.96875 76.6875 C 513.31018 72.697738 513.78858 68.730237 514.21875 64.75 C 514.79967 61.184778 515.80063 57.715656 516.375 54.15625 z M 709.59375 360.75 L 706.0625 362.25 C 704.20984 364.61312 703.59174 367.47529 703.15625 370.375 C 702.72007 373.83414 702.74045 377.33214 702.71875 380.8125 C 702.88684 384.04294 703.21482 387.19917 704.09375 390.3125 C 705.22582 393.16489 705.94359 396.11649 706.3125 399.15625 C 706.94169 402.423 707.26075 405.71359 707.4375 409.03125 C 707.41478 412.30504 707.877 415.56138 708.1875 418.8125 C 708.45685 421.90178 708.49505 424.99479 708.53125 428.09375 C 708.56625 432.23854 708.5635 436.38636 708.5625 440.53125 C 708.5685 445.95976 708.5615 451.38398 708.5625 456.8125 C 708.56337 462.77183 708.5665 468.72816 708.5625 474.6875 C 708.5597 480.11855 708.5695 485.56896 708.5625 491 C 708.5708 495.61396 708.5675 500.19855 708.5625 504.8125 C 708.56026 508.67597 708.5575 512.54278 708.5625 516.40625 C 708.58883 520.45798 708.08 524.48943 707.84375 528.53125 C 707.63239 532.57557 707.61175 536.63863 707.59375 540.6875 C 707.57485 544.46961 707.5655 548.24911 707.5625 552.03125 C 707.56195 555.29671 707.56154 558.57829 707.5625 561.84375 C 707.6196 565.44352 708.07635 568.99725 708.28125 572.59375 C 708.47314 576.33833 708.50385 580.09517 708.53125 583.84375 C 708.54089 587.48971 708.5595 591.13528 708.5625 594.78125 C 708.5634 598.75196 708.54135 602.71681 708.53125 606.6875 C 708.52485 609.2121 708.52825 611.75664 708.53125 614.28125 C 708.67506 617.32742 708.38493 620.34797 708.09375 623.375 C 707.94514 626.35369 707.06495 629.19733 706.4375 632.09375 C 705.76873 635.17037 704.77881 638.16554 703.71875 641.125 C 702.8012 644.2351 701.41153 647.17244 700.59375 650.3125 C 699.92935 653.27448 699.87081 656.30449 699.53125 659.3125 C 699.21998 661.84038 698.81846 664.37707 699.46875 666.875 C 700.45845 668.78248 701.57633 670.50204 702.15625 672.59375 C 702.66017 674.7587 702.715 676.97621 702.75 679.1875 C 702.7761 680.77449 702.72675 682.38184 702.71875 683.96875 C 702.71932 684.3166 702.76515 684.71141 702.65625 685.0625 L 701.3125 686 C 701.50653 685.9204 701.68594 685.84931 701.875 685.78125 C 701.88007 685.77556 701.86392 685.75899 701.875 685.75 C 702.10777 685.5611 702.35476 685.39968 702.59375 685.21875 C 702.55844 685.29258 702.52432 685.37062 702.46875 685.4375 C 702.39578 685.52533 702.18547 685.6406 702.03125 685.71875 C 704.3464 684.91019 706.21715 684.80176 706.15625 682.21875 C 706.16815 680.63384 706.1372 679.05365 706.125 677.46875 C 706.08654 675.22624 706.03403 672.97241 705.5 670.78125 C 704.90872 668.69813 703.83583 666.93177 702.84375 665.03125 C 702.23663 662.5781 702.65107 660.10239 702.9375 657.625 C 703.26994 654.63152 703.34827 651.59902 704.03125 648.65625 C 704.87904 645.53717 706.19871 642.59563 707.125 639.5 C 708.18248 636.52455 709.21123 633.52984 709.875 630.4375 C 710.51241 627.53271 711.33693 624.67862 711.46875 621.6875 C 711.76294 618.64663 712.0572 615.59095 711.9375 612.53125 C 711.9408 610.0111 711.91225 607.48889 711.90625 604.96875 C 711.89725 601.00034 711.90025 597.03091 711.90625 593.0625 C 711.91325 589.41427 711.92405 585.77323 711.90625 582.125 C 711.88799 578.37239 711.81716 574.62328 711.625 570.875 C 711.42136 567.28213 710.9862 563.69026 710.9375 560.09375 C 710.9375 556.82972 710.9425 553.57651 710.9375 550.3125 C 710.93016 546.53329 710.9305 542.74795 710.9375 538.96875 C 710.96281 534.9253 710.99997 530.88244 711.21875 526.84375 C 711.46208 522.79649 711.93855 518.77692 711.90625 514.71875 C 711.91102 510.85501 711.90825 506.98874 711.90625 503.125 C 711.90155 498.51468 711.89825 493.89158 711.90625 489.28125 C 711.89835 483.85388 711.878 478.42738 711.875 473 C 711.871 467.04043 711.873 461.08458 711.875 455.125 C 711.8778 449.69179 711.89425 444.2457 711.90625 438.8125 C 711.90923 434.66086 711.92305 430.5266 711.90625 426.375 C 711.87266 423.26586 711.8048 420.16152 711.53125 417.0625 C 711.21732 413.81838 710.76905 410.57937 710.78125 407.3125 C 710.60205 403.98533 710.30966 400.65253 709.6875 397.375 C 709.30765 394.31762 708.56252 391.37379 707.4375 388.5 C 706.57214 385.42201 706.25472 382.2852 706.09375 379.09375 C 706.11054 375.6296 706.11344 372.1286 706.5625 368.6875 C 707.02532 365.82053 707.69316 363.0401 709.59375 360.75 z M 345.21875 360.96875 L 341.8125 362.71875 C 341.82969 366.91752 341.91908 371.11752 341.71875 375.3125 C 341.42321 380.58648 341.13275 385.8451 340.96875 391.125 C 340.84947 394.80877 340.84675 398.50227 340.84375 402.1875 C 340.84375 406.20827 340.84275 410.22923 340.84375 414.25 C 340.84675 418.32256 340.866 422.39619 340.875 426.46875 C 340.87875 430.97113 340.87 435.46636 340.875 439.96875 C 340.75268 444.65142 341.07264 449.34655 341.5625 454 C 342.1602 459.14615 342.49788 464.29348 342.6875 469.46875 C 342.697 472.51471 342.95262 475.58756 342.65625 478.625 C 341.97288 482.40588 341.04769 486.11682 340.53125 489.9375 C 340.03474 494.36444 339.9378 498.83149 339.875 503.28125 C 339.8403 506.76597 339.867 510.2652 339.875 513.75 C 339.898 518.05515 339.90225 522.35106 339.90625 526.65625 C 339.91605 530.68634 339.88 534.71991 339.875 538.75 C 339.8685 542.34088 339.879 545.90912 339.875 549.5 C 339.87178 553.23159 339.88 556.98717 339.875 560.71875 C 339.8696 564.66334 339.90661 568.58667 339.90625 572.53125 C 339.91005 576.35084 339.87 580.18042 339.875 584 C 339.877 587.64943 339.869 591.28807 339.875 594.9375 C 340.39432 600.98443 341.44652 606.96729 342.09375 613 C 342.56849 618.36564 343.02335 623.72859 343.78125 629.0625 C 344.12994 632.12964 344.68432 635.16557 345.125 638.21875 C 345.7543 641.19598 346.18927 644.22911 346.75 647.21875 C 347.30649 650.32326 347.46061 653.47861 347.5625 656.625 C 347.6363 659.83744 347.62406 663.03691 347.625 666.25 C 347.622 669.36675 347.634 672.47701 347.625 675.59375 C 347.624 675.98669 347.62591 676.3883 347.625 676.78125 L 351 675.0625 C 350.999 674.6703 351.00051 674.2672 351 673.875 C 350.99601 670.7625 350.996 667.64376 351 664.53125 C 351.0051 661.3113 351.0203 658.09424 350.9375 654.875 C 350.81935 651.71217 350.65285 648.55856 350.09375 645.4375 C 349.53596 642.45262 349.0882 639.44257 348.46875 636.46875 C 348.02978 633.41941 347.48259 630.36976 347.09375 627.3125 C 346.30821 621.99176 345.85001 616.63751 345.375 611.28125 C 344.7114 605.2571 343.66092 599.30067 343.25 593.25 C 343.256 589.59933 343.249 585.93192 343.25 582.28125 C 343.2554 578.46481 343.246 574.6602 343.25 570.84375 C 343.249 566.89601 343.255 562.94774 343.25 559 C 343.245 555.26958 343.254 551.54291 343.25 547.8125 C 343.246 544.21953 343.256 540.62421 343.25 537.03125 C 343.2457 533.00538 343.242 528.96338 343.25 524.9375 C 343.25166 520.62859 343.241 516.34016 343.25 512.03125 C 343.245 508.54979 343.2287 505.04392 343.25 501.5625 C 343.29794 497.1282 343.38847 492.69033 343.90625 488.28125 C 344.44117 484.44909 345.40803 480.73844 346.0625 476.9375 C 346.31638 473.88775 346.06725 470.80508 346.03125 467.75 C 345.80395 462.57263 345.48411 457.40165 344.90625 452.25 C 344.45094 447.60335 344.09327 442.95414 344.21875 438.28125 C 344.22275 433.77766 344.21575 429.25359 344.21875 424.75 C 344.22813 420.67656 344.21975 416.6047 344.21875 412.53125 C 344.21646 408.50902 344.21675 404.49098 344.21875 400.46875 C 344.22499 396.78962 344.2216 393.11572 344.3125 389.4375 C 344.46302 384.16057 344.72147 378.89317 345.0625 373.625 C 345.26842 369.41311 345.14815 365.18457 345.21875 360.96875 z "
       id="path3789" />
    <text
       xml:space="preserve"
       style="font-size:40px;font-style:normal;font-variant:normal;font-weight:normal;font-stretch:normal;line-height:125%;letter-spacing:0px;word-spacing:0px;fill:#000000;fill-opacity:1;stroke:none;font-family:Segoe Print;-inkscape-font-specification:Segoe Print"
       x="48.380653"
       y="98.696533"
       id="text3800"
       sodipodi:linespacing="125%"><tspan
         sodipodi:role="line"
         id="tspan3802"
         x="48.380653"
         y="98.696533">Conference</tspan><tspan
         sodipodi:role="line"
         x="48.380653"
         y="148.69653"
         id="tspan3804">Management</tspan><tspan
         sodipodi:role="line"
         x="48.380653"
         y="198.69653"
         id="tspan3806">(CRUD)</tspan></text>
    <text
       xml:space="preserve"
       style="font-size:40px;font-style:normal;font-variant:normal;font-weight:normal;font-stretch:normal;line-height:125%;letter-spacing:0px;word-spacing:0px;fill:#000000;fill-opacity:1;stroke:none;font-family:Segoe Print;-inkscape-font-specification:Segoe Print"
       x="707.3252"
       y="105.46983"
       id="text3808"
       sodipodi:linespacing="125%"><tspan
         sodipodi:role="line"
         id="tspan3810"
         x="707.3252"
         y="105.46983">Orders and</tspan><tspan
         sodipodi:role="line"
         x="707.3252"
         y="155.46983"
         id="tspan3812">Registrations</tspan><tspan
         sodipodi:role="line"
         x="707.3252"
         y="205.46983"
         id="tspan3814">(CQRS/ES)</tspan></text>
    <text
       xml:space="preserve"
       style="font-size:40px;font-style:normal;font-variant:normal;font-weight:normal;font-stretch:normal;line-height:125%;letter-spacing:0px;word-spacing:0px;fill:#000000;fill-opacity:1;stroke:none;font-family:Segoe Print;-inkscape-font-specification:Segoe Print"
       x="411.2356"
       y="499.28836"
       id="text3816"
       sodipodi:linespacing="125%"><tspan
         sodipodi:role="line"
         id="tspan3818"
         x="411.2356"
         y="499.28836">Occasionally</tspan><tspan
         sodipodi:role="line"
         x="411.2356"
         y="549.28839"
         id="tspan3820">Disconnected</tspan><tspan
         sodipodi:role="line"
         x="411.2356"
         y="599.28839"
         id="tspan3822">Client</tspan><tspan
         sodipodi:role="line"
         x="411.2356"
         y="649.28839"
         id="tspan3824">(CQRS/ES)</tspan></text>
    <text
       xml:space="preserve"
       style="font-size:40px;font-style:normal;font-variant:normal;font-weight:normal;font-stretch:normal;line-height:125%;letter-spacing:0px;word-spacing:0px;fill:#000000;fill-opacity:1;stroke:none;font-family:Segoe Print;-inkscape-font-specification:Segoe Print"
       x="792.47516"
       y="589.27637"
       id="text3826"
       sodipodi:linespacing="125%"><tspan
         sodipodi:role="line"
         id="tspan3828"
         x="792.47516"
         y="589.27637">Payments</tspan><tspan
         sodipodi:role="line"
         x="792.47516"
         y="639.27637"
         id="tspan3830">(CQRS)</tspan></text>
    <text
       xml:space="preserve"
       style="font-size:40px;font-style:normal;font-variant:normal;font-weight:normal;font-stretch:normal;line-height:125%;letter-spacing:0px;word-spacing:0px;fill:#808080;fill-opacity:1;stroke:none;font-family:Segoe Print;-inkscape-font-specification:Segoe Print"
       x="34.834072"
       y="593.14685"
       id="text3832"
       sodipodi:linespacing="125%"><tspan
         sodipodi:role="line"
         id="tspan3834"
         x="34.834072"
         y="593.14685">Feedback</tspan><tspan
         sodipodi:role="line"
         x="34.834072"
         y="643.14685"
         id="tspan3836">(Legacy/CQRS)</tspan></text>
    <path
       style="fill:#008000;stroke:none"
       d="M 615.59375 82.09375 L 612.28125 84 C 614.17169 86.825977 615.74238 89.836915 617.59375 92.6875 C 617.80296 93.056251 618.29484 93.728531 618.8125 94.4375 C 615.96916 94.233662 613.15176 93.946689 610.3125 93.6875 C 604.98296 93.265917 599.62788 93.114429 594.3125 92.5 C 590.96037 92.316539 587.63281 91.87649 584.28125 91.78125 C 581.94426 91.776605 579.58699 91.77995 577.25 91.78125 C 574.08521 91.78256 570.94585 91.77288 567.78125 91.8125 C 564.75354 91.860858 561.6904 91.873479 558.6875 92.3125 C 555.62571 92.727819 552.5798 93.021379 549.5 93.25 C 547.25512 93.566125 545.05208 93.987502 542.78125 94.09375 C 538.43734 94.60578 534.06891 95.07444 529.6875 95.125 C 523.44598 95.486145 517.23038 95.91785 511 96.4375 C 505.3934 96.960838 499.77722 97.176265 494.15625 97.5 C 489.02494 97.73358 483.8787 97.645649 478.75 97.96875 C 475.07986 98.224146 471.40319 98.642646 467.71875 98.53125 C 464.17147 98.534965 460.64 98.56224 457.09375 98.65625 C 453.33706 98.781244 449.57525 98.961225 445.84375 99.4375 C 442.57861 99.765164 439.28393 99.763001 436.03125 100.25 C 432.23006 100.72592 428.40718 100.83071 424.59375 101.1875 C 420.74909 101.544 416.87727 101.66175 413.03125 102 C 409.28333 102.35959 405.54243 102.74048 401.78125 102.9375 C 398.51274 103.23487 395.2572 103.55887 391.96875 103.40625 C 388.93582 103.40632 385.90793 103.41325 382.875 103.40625 C 380.15727 103.39562 377.43357 103.36024 374.71875 103.21875 C 371.47165 103.03212 368.24142 102.69403 365 102.4375 C 361.43613 102.40514 357.87414 102.39219 354.34375 101.84375 C 350.788 101.21829 347.34906 100.20574 343.96875 98.9375 L 340.78125 101.0625 C 344.20147 102.30268 347.63999 103.36983 351.21875 104.03125 C 354.75871 104.62009 358.39025 104.61965 361.96875 104.65625 C 365.20238 104.88178 368.42025 105.23523 371.65625 105.4375 C 374.374 105.59454 377.0911 105.615 379.8125 105.625 C 382.8481 105.629 385.87064 105.629 388.90625 105.625 C 392.2019 105.7585 395.47338 105.49491 398.75 105.1875 C 402.513 104.9684 406.28034 104.61617 410.03125 104.25 C 413.87683 103.90446 417.71709 103.78561 421.5625 103.4375 C 425.36982 103.06547 429.20103 102.95244 433 102.5 C 436.25133 102.02078 439.51471 101.98474 442.78125 101.6875 C 446.51297 101.22066 450.27483 101.0041 454.03125 100.875 C 457.5702 100.77273 461.11616 100.78525 464.65625 100.78125 C 468.35197 100.89766 472.03814 100.45021 475.71875 100.1875 C 480.85768 99.841105 486.01314 99.914859 491.15625 99.6875 C 496.77144 99.353626 502.36576 99.162013 507.96875 98.65625 C 514.20917 98.122946 520.46562 97.698603 526.71875 97.34375 C 531.07349 97.279361 535.39711 96.83812 539.71875 96.34375 C 541.98485 96.212311 544.22798 95.869648 546.46875 95.53125 C 549.54324 95.239873 552.59279 95.001289 555.65625 94.59375 C 558.65527 94.154692 561.69397 94.08432 564.71875 94.03125 C 567.87665 93.99047 571.02942 93.9935 574.1875 94 C 576.52307 94.007389 578.85192 94.0027 581.1875 94 C 584.54886 94.055286 587.89072 94.507341 591.25 94.6875 C 596.57484 95.263174 601.9447 95.433329 607.28125 95.84375 C 610.93832 96.178423 614.58358 96.592893 618.25 96.8125 C 618.92651 96.849878 619.6041 96.857437 620.28125 96.875 C 620.35955 97.100623 620.39889 97.306034 620.40625 97.5 C 618.88192 97.943479 617.32312 98.314936 615.8125 98.8125 C 611.86785 99.789091 609.27674 101.44883 605.75 103.59375 L 609.3125 102.1875 C 609.05463 102.32471 608.78778 102.45394 608.53125 102.59375 C 609.91911 101.99736 611.40299 101.69466 612.8125 101.15625 C 616.47028 99.887595 620.20235 99.518224 623.34375 96.9375 C 623.37501 96.937677 623.40624 96.937328 623.4375 96.9375 L 626.53125 94.6875 C 625.49942 94.684131 624.46916 94.676899 623.4375 94.65625 C 622.80056 93.253328 621.37389 91.722586 620.84375 90.78125 C 618.98868 87.94224 617.42604 84.946648 615.59375 82.09375 z M 608.53125 102.59375 C 608.38496 102.65662 608.2374 102.71114 608.09375 102.78125 C 607.73008 102.95873 606.66845 103.58551 607.03125 103.40625 C 607.5386 103.15555 608.03424 102.86462 608.53125 102.59375 z "
       id="path3838" />
    <path
       style="fill:#008000;stroke:none"
       d="M 298.21875 234.03125 L 294.90625 235.9375 C 296.63565 238.94392 298.85046 241.58376 300.96875 244.3125 C 302.78106 246.71702 304.78454 248.9623 306.625 251.34375 C 308.26992 253.13419 309.65757 255.14538 311.0625 257.125 C 313.78477 260.50541 316.52826 263.86693 319 267.4375 C 321.37717 271.1816 323.65362 274.97359 325.875 278.8125 C 328.50707 283.16322 330.86452 287.69024 333.40625 292.09375 C 336.16162 296.90113 339.29322 301.45493 342.3125 306.09375 C 344.85476 310.32313 346.6485 314.91199 348.71875 319.375 C 351.61787 325.38042 355.04354 331.13022 358.625 336.75 C 361.78577 341.35857 364.6327 346.09971 367.25 351.03125 C 370.4281 356.50649 373.71692 361.94355 377.3125 367.15625 C 380.45008 371.67379 383.8555 375.96567 386.96875 380.5 C 390.09164 385.18358 393.31343 389.82899 396.71875 394.3125 C 399.36383 398.00012 402.40762 401.37759 405.25 404.90625 C 407.78164 408.43511 410.15364 412.08259 412.625 415.65625 C 414.85354 418.58498 416.94145 421.60966 419.09375 424.59375 C 420.70767 427.03247 422.63422 429.19064 424.5625 431.375 C 425.03026 432.04224 425.53862 432.6901 426.0625 433.3125 C 423.69405 432.10201 421.24824 431.24556 418.625 430.8125 C 416.89879 430.57034 415.13558 430.54639 413.40625 430.34375 L 410.3125 432.53125 C 412.04002 432.76171 413.76988 432.77914 415.5 433 C 418.16323 433.40495 420.6574 434.24307 423.0625 435.46875 C 424.35283 436.22888 425.45888 437.17934 426.59375 438.15625 C 426.82991 438.35953 426.97399 438.83305 427.28125 438.78125 C 427.50217 438.74402 427.72206 438.68333 427.9375 438.625 C 427.90129 438.78124 427.84495 438.90067 427.78125 438.96875 C 427.98833 438.79983 428.21585 438.65507 428.4375 438.5 C 429.39915 438.18032 430.32471 437.71435 431.28125 437.375 C 431.71351 435.47181 431.06908 433.36562 431.21875 431.4375 C 430.98534 428.72402 430.45513 426.04904 429.46875 423.5 C 428.37299 420.62492 427.38168 417.694 425.9375 414.96875 L 422.625 416.875 C 424.09707 419.5623 425.06424 422.49002 426.15625 425.34375 C 426.57178 426.4205 426.86846 427.51051 427.125 428.625 C 425.43889 426.71331 423.76583 424.78925 422.34375 422.65625 C 420.1845 419.67913 418.12357 416.66195 415.875 413.75 C 413.38716 410.17618 411.00604 406.52636 408.5 402.96875 C 405.635 399.45894 402.58879 396.08983 399.9375 392.40625 C 396.52894 387.93361 393.33426 383.30527 390.21875 378.625 C 387.10968 374.08357 383.64386 369.79846 380.5 365.28125 C 376.91597 360.07825 373.67787 354.66393 370.53125 349.1875 C 367.91234 344.24293 364.98333 339.48943 361.8125 334.875 C 358.24252 329.26731 354.81745 323.54383 351.96875 317.53125 C 349.90284 313.04659 348.0977 308.42391 345.53125 304.1875 C 342.5162 299.55411 339.37163 295.02375 336.625 290.21875 C 334.08868 285.81207 331.76024 281.28661 329.125 276.9375 C 326.89655 273.09067 324.61655 269.27473 322.21875 265.53125 C 319.73815 261.96915 317.02988 258.59422 314.34375 255.1875 C 312.94632 253.19647 311.53858 251.187 309.875 249.40625 C 308.02905 247.02714 306.03884 244.77547 304.21875 242.375 C 302.10802 239.66521 299.88941 237.051 298.21875 234.03125 z M 427.84375 433.34375 C 427.83462 433.61254 427.84409 433.9706 427.875 434.46875 C 427.71955 434.34628 427.56484 434.20666 427.40625 434.09375 C 427.2807 434.00437 427.1317 433.95505 427 433.875 L 427.84375 433.34375 z "
       id="path3843" />
    <path
       style="fill:#008000;stroke:none"
       d="M 81.8125 248.65625 L 78.34375 250.3125 C 77.423694 254.01586 77.128934 257.82836 76.90625 261.625 C 76.643741 265.63424 76.83454 269.65001 76.5625 273.65625 C 76.054322 278.68675 75.96859 283.7301 75.875 288.78125 C 75.951875 295.98038 75.531104 303.17639 74.90625 310.34375 C 74.360493 316.49082 74.1331 322.63144 73.3125 328.75 C 72.69106 334.28906 71.920906 339.82435 71.40625 345.375 C 70.920885 349.88316 70.099778 354.33366 69.40625 358.8125 C 68.48431 364.25425 67.912251 369.73961 67.28125 375.21875 C 66.821066 379.41369 66.03173 383.56312 65.15625 387.6875 C 64.390444 391.00176 64.24972 394.39612 64.15625 397.78125 C 64.282771 401.73318 63.82304 405.66421 63.5 409.59375 C 63.067552 412.76253 62.453671 415.88158 61.90625 419.03125 C 61.567374 421.30926 60.965484 423.54096 60.59375 425.8125 C 59.163104 424.70189 58.559818 422.58872 57.3125 421.34375 C 55.743792 419.08556 54.153945 416.836 52.4375 414.6875 L 49.125 416.65625 C 50.878949 418.76475 52.470385 421.02735 54.03125 423.28125 C 55.384294 424.7066 56.014689 426.98657 57.71875 428.09375 C 58.008868 428.28225 58.334813 428.34077 58.65625 428.46875 C 59.244312 428.3849 59.808111 428.24944 60.34375 428.0625 C 60.334545 428.18867 60.328195 428.16608 60.3125 428.375 L 63.75 426.6875 C 63.786489 426.23373 63.800591 426.14673 63.8125 426 C 65.245473 424.76935 66.468336 423.24688 67.53125 421.71875 C 68.655619 419.82552 70.036092 418.22806 71.75 416.90625 C 71.750187 416.90409 71.778578 416.91001 71.78125 416.90625 C 71.981845 416.82625 72.727112 416.40569 73.03125 416.25 C 74.175922 415.66401 75.296247 415.06163 76.46875 414.53125 L 79.4375 412.15625 C 75.850902 413.70876 72.493815 415.78386 69.09375 417.6875 C 67.12434 419.11472 65.541613 420.85172 64.25 422.90625 C 64.611507 421.0604 65.048103 419.24037 65.3125 417.375 C 65.859707 414.21762 66.512523 411.08851 66.90625 407.90625 C 67.231471 403.97251 67.61653 400.01688 67.53125 396.0625 C 67.638217 392.69449 67.805818 389.32869 68.5625 386.03125 C 69.430709 381.90667 70.177024 377.7563 70.625 373.5625 C 71.245165 368.08173 71.819188 362.59663 72.75 357.15625 C 73.466667 352.67664 74.284663 348.20244 74.75 343.6875 C 75.261398 338.14432 76.028758 332.65551 76.65625 327.125 C 77.458619 321.00561 77.657473 314.83446 78.1875 308.6875 C 78.798152 301.50962 79.20761 294.33283 79.15625 287.125 C 79.265987 282.06708 79.43132 277.00564 79.9375 271.96875 C 80.184349 267.963 80.018415 263.94477 80.28125 259.9375 C 80.514881 256.15242 80.811235 252.33002 81.8125 248.65625 z "
       id="path3848" />
    <path
       style="fill:#008000;stroke:none"
       d="M 685.40625 270.75 L 681.875 272.25 C 678.73009 276.37874 675.90925 280.72712 673.0625 285.0625 C 668.85084 291.75375 664.83381 298.59016 660.9375 305.46875 C 655.53547 314.1373 651.57826 323.56212 647.3125 332.8125 C 644.22792 339.2431 641.3483 345.79473 638.25 352.21875 C 636.12567 357.23072 633.49588 361.97412 630.53125 366.53125 C 627.32239 371.49859 624.03606 376.38453 620.5 381.125 C 618.69072 383.7579 616.72825 386.28109 614.59375 388.65625 C 612.82991 390.47115 611.16244 392.37914 609.6875 394.4375 C 609.04816 395.42165 608.32273 396.32499 607.53125 397.1875 L 611.03125 395.6875 C 611.79918 394.8005 612.53486 393.88321 613.1875 392.90625 C 614.68988 390.87753 616.34115 389.00337 618.09375 387.1875 C 620.2051 384.80482 622.13553 382.2815 623.9375 379.65625 C 627.43351 374.8933 630.72674 369.99078 633.9375 365.03125 C 636.90134 360.45692 639.51946 355.67687 641.65625 350.65625 C 644.71541 344.24433 647.56786 337.72551 650.625 331.3125 C 654.87161 322.05339 658.82534 312.62541 664.25 303.96875 C 668.16716 297.09239 672.21407 290.28723 676.4375 283.59375 C 679.31593 279.23832 682.17624 274.85747 685.40625 270.75 z M 606.375 375.40625 L 602.9375 377.09375 C 602.68717 380.26756 602.02879 383.37643 601.625 386.53125 C 601.30404 389.1342 601.1776 391.75492 601.125 394.375 C 601.01576 396.25104 600.97478 397.93772 602.625 399.09375 C 604.68609 399.97737 606.88708 399.47379 609.03125 399.25 C 612.29215 399.00071 615.51664 398.38133 618.6875 397.59375 C 621.28818 396.79571 623.95172 396.31238 626.65625 396.0625 C 628.19959 395.83229 627.43553 395.95572 628.9375 395.6875 L 632 393.375 C 630.50506 393.65365 631.24612 393.52038 629.71875 393.78125 C 626.99513 394.01098 624.33071 394.48192 621.71875 395.3125 C 618.57298 396.135 615.33706 396.71555 612.09375 396.96875 C 610.01711 397.17274 607.87717 397.72173 605.84375 397.03125 C 604.2333 396.0622 604.47795 394.34303 604.53125 392.65625 C 604.58172 390.05283 604.67786 387.42986 605 384.84375 C 605.41562 381.6846 606.06063 378.57876 606.375 375.40625 z "
       id="path3860" />
    <path
       style="fill:#008000;stroke:none"
       id="path3865"
       d="m 666.94047,274.226 c 2.51373,-1.15276 5.20756,-1.82199 7.80351,-2.75394 2.32483,-0.70006 4.54232,-1.77044 6.97284,-2.02665 2.30804,0.11339 3.72193,1.70384 4.76705,3.60278 0.98752,3.17871 1.83324,6.39814 2.7889,9.59293 0.53282,2.19179 1.28666,4.3139 2.07805,6.42199 0,0 -3.33138,1.85027 -3.33138,1.85027 l 0,0 c -0.78797,-2.1204 -1.54759,-4.252 -2.06591,-6.45853 -0.93405,-3.17027 -1.8081,-6.3524 -2.77515,-9.50722 -0.98574,-1.79059 -2.32821,-3.25257 -4.52056,-3.22079 -2.3918,0.35051 -4.60516,1.38176 -6.90851,2.08022 -2.61027,0.90577 -5.30471,1.60512 -7.80045,2.81195 0,0 2.99161,-2.39301 2.99161,-2.39301 z"
       inkscape:connector-curvature="0" />
    <path
       style="fill:#008000;stroke:none"
       d="M 858.875 270.6875 C 858.59439 270.71484 858.30041 270.78821 858 270.875 C 856.60197 271.65235 855.17164 272.34399 853.8125 273.1875 C 852.2187 274.17664 851.63535 276.42197 850.6875 277.90625 C 849.47537 280.10428 848.24607 282.28602 847.1875 284.5625 L 850.6875 283 C 851.71996 280.7246 852.93479 278.52455 854.15625 276.34375 C 854.75161 275.21151 855.30568 274.01852 856.09375 273 C 857.8479 272.81844 859.26461 273.82418 860.75 274.90625 C 861.29174 275.30322 861.81097 275.71638 862.34375 276.125 L 861.40625 276.59375 C 861.68608 282.97371 862.79552 289.28539 863.71875 295.59375 C 864.53915 301.78572 865.4326 307.95985 865.9375 314.1875 C 866.317 319.79666 866.2939 325.41209 866.3125 331.03125 C 866.3266 337.66953 866.30185 344.29925 866.28125 350.9375 C 866.26825 355.64383 866.28625 360.35615 866.28125 365.0625 C 866.46517 370.057 867.02564 375.03153 867.53125 380 C 867.81888 383.72159 868.23126 387.41648 868.875 391.09375 C 869.45203 394.45435 869.98325 397.84306 870.46875 401.21875 C 870.75069 404.28396 871.28927 407.32033 871.65625 410.375 C 871.75933 414.02422 872.59609 417.54823 873.25 421.125 C 873.46173 422.21848 873.61091 423.33223 873.71875 424.4375 C 873.61532 424.59659 873.51485 424.75074 873.40625 424.90625 C 873.30806 424.88186 873.1979 424.85285 873.09375 424.8125 C 871.68209 424.26562 870.73864 422.90593 869.59375 422 C 866.85338 419.57836 863.96877 417.31491 860.78125 415.5 L 857.59375 417.59375 C 860.80092 419.32752 863.65605 421.59239 866.375 424 C 867.73208 425.06703 869.07216 427.09265 871 427.15625 C 871.76781 427.18159 872.85383 426.67746 873.84375 426.09375 C 873.90519 427.04972 873.94111 428.01101 873.96875 428.96875 C 873.99385 430.03965 873.997 431.11639 874 432.1875 L 877.40625 430.4375 C 877.40095 429.36427 877.4053 428.29165 877.375 427.21875 C 877.32834 425.83687 877.22302 424.46957 877.09375 423.09375 C 878.23519 421.18329 879.14141 419.16628 880.15625 417.1875 C 881.26016 414.9339 882.64184 412.92978 884.375 411.125 C 885.24212 410.33856 885.96327 409.42089 886.71875 408.53125 L 883.21875 410.03125 C 882.45914 410.91419 881.69404 411.79473 880.84375 412.59375 C 879.13237 414.4302 877.83297 416.49793 876.71875 418.75 C 876.66034 418.86538 876.58897 418.97768 876.53125 419.09375 C 875.86869 415.61077 875.11843 412.15282 875.03125 408.59375 C 874.65732 405.53894 874.1089 402.50223 873.8125 399.4375 C 873.31623 396.06025 872.81161 392.70486 872.21875 389.34375 C 871.59086 385.67651 871.15565 381.95711 870.84375 378.25 C 870.31969 373.29314 869.7805 368.36091 869.625 363.375 C 869.622 358.67439 869.629 353.95062 869.625 349.25 C 869.61715 342.61557 869.621 335.97819 869.625 329.34375 C 869.61587 323.70922 869.6615 318.06086 869.25 312.4375 C 868.7106 306.21357 867.78596 300.06663 866.96875 293.875 C 866.20611 288.6463 865.31706 283.43055 864.96875 278.15625 C 865.88976 278.88209 866.81681 279.60281 867.75 280.3125 C 869.39932 281.767 871.311 282.59062 873.40625 283.15625 L 876.53125 281 C 874.45998 280.48619 872.59218 279.71681 870.96875 278.28125 C 868.60572 276.51063 866.31267 274.60018 863.9375 272.84375 C 862.34225 271.65809 860.83924 270.4961 858.875 270.6875 z "
       id="path3867" />
    <text
       xml:space="preserve"
       style="font-size:40px;font-style:normal;font-variant:normal;font-weight:normal;font-stretch:normal;line-height:125%;letter-spacing:0px;word-spacing:0px;fill:#008000;fill-opacity:1;stroke:none;font-family:Segoe Print;-inkscape-font-specification:Segoe Print"
       x="425.74976"
       y="137.40106"
       id="text3875"
       sodipodi:linespacing="125%"><tspan
         sodipodi:role="line"
         id="tspan3877"
         x="425.74976"
         y="137.40106">1</tspan></text>
    <text
       xml:space="preserve"
       style="font-size:40px;font-style:normal;font-variant:normal;font-weight:normal;font-stretch:normal;line-height:125%;letter-spacing:0px;word-spacing:0px;fill:#008000;fill-opacity:1;stroke:none;font-family:Segoe Print;-inkscape-font-specification:Segoe Print"
       x="270.93167"
       y="297.05722"
       id="text3879"
       sodipodi:linespacing="125%"><tspan
         sodipodi:role="line"
         id="tspan3881"
         x="270.93167"
         y="297.05722">2</tspan></text>
    <text
       xml:space="preserve"
       style="font-size:40px;font-style:normal;font-variant:normal;font-weight:normal;font-stretch:normal;line-height:125%;letter-spacing:0px;word-spacing:0px;fill:#008000;fill-opacity:1;stroke:none;font-family:Segoe Print;-inkscape-font-specification:Segoe Print"
       x="106.43744"
       y="300.92767"
       id="text3883"
       sodipodi:linespacing="125%"><tspan
         sodipodi:role="line"
         id="tspan3885"
         x="106.43744"
         y="300.92767">3</tspan></text>
    <text
       xml:space="preserve"
       style="font-size:40px;font-style:normal;font-variant:normal;font-weight:normal;font-stretch:normal;line-height:125%;letter-spacing:0px;word-spacing:0px;fill:#008000;fill-opacity:1;stroke:none;font-family:Segoe Print;-inkscape-font-specification:Segoe Print"
       x="683.13489"
       y="317.37711"
       id="text3887"
       sodipodi:linespacing="125%"><tspan
         sodipodi:role="line"
         id="tspan3889"
         x="683.13489"
         y="317.37711">4</tspan></text>
    <text
       xml:space="preserve"
       style="font-size:40px;font-style:normal;font-variant:normal;font-weight:normal;font-stretch:normal;line-height:125%;letter-spacing:0px;word-spacing:0px;fill:#008000;fill-opacity:1;stroke:none;font-family:Segoe Print;-inkscape-font-specification:Segoe Print"
       x="900.84784"
       y="314.47427"
       id="text3891"
       sodipodi:linespacing="125%"><tspan
         sodipodi:role="line"
         id="tspan3893"
         x="900.84784"
         y="314.47427">5</tspan></text>
    <path
       style="fill:#008000;stroke:none"
       id="path3895"
       d="m 916.07458,283.11915 c -2.46608,0.99362 -4.91021,2.03846 -7.36103,3.06972 3.02755,-2.04663 -6.54627,3.61614 -3.2709,1.55446 0.72941,-0.45913 2.99375,-1.70965 2.24556,-1.2818 -3.92662,2.24548 -6.26793,3.57696 -1.98653,1.13943 -2.76208,2.10005 -6.10965,3.02422 -9.07391,4.72386 0.76458,-0.41978 1.48867,-0.92368 2.29374,-1.25933 0.36979,-0.15418 -0.66797,0.44623 -0.9713,0.70797 -1.27669,1.10165 -2.26198,2.59119 -3.19572,3.97733 -1.62363,2.15893 -2.22478,4.73676 -2.6118,7.35469 -0.30674,2.39168 -0.33533,4.78435 -0.006,7.17051 0.50789,2.47287 1.92049,4.59359 3.2418,6.69857 1.41527,2.18118 3.59088,3.35146 5.85627,4.4702 2.38113,1.20675 4.92117,1.88449 7.49282,2.55034 2.46975,0.65267 5.01739,0.83118 7.55849,0.93573 2.36043,0.10356 4.69473,0.11776 7.02911,-0.25171 0.38191,-0.0977 0.76805,-0.18013 1.14574,-0.29302 0.93746,-0.28021 1.70558,-0.57351 2.58885,-1.00217 0.43629,-0.21173 1.70291,-0.92869 1.28224,-0.68739 -0.66336,0.38051 -1.28542,0.86209 -2.01052,1.10514 -0.45684,0.15313 0.78975,-0.5522 1.18462,-0.8283 2.18042,-1.4423 3.75122,-3.30324 4.97161,-5.57786 0.83642,-2.26397 2.02517,-4.36659 2.97372,-6.58141 0.75415,-2.27794 1.48649,-4.57707 1.94526,-6.93567 0.40874,-2.58824 0.90696,-5.15256 1.16296,-7.76269 0.18578,-2.54932 0.4343,-5.096 -0.10209,-7.61113 -0.91612,-2.67337 -2.98702,-4.15371 -5.26779,-5.58312 -2.18028,-1.36887 -4.47651,-2.27682 -6.99306,-2.77257 -1.7772,-0.30053 -3.58097,-0.34578 -5.37866,-0.3751 0,0 3.09373,-2.23857 3.09373,-2.23857 l 0,0 c 1.81009,0.0407 3.62622,0.10453 5.41096,0.4379 2.53745,0.54288 4.86242,1.4991 7.06248,2.8902 2.36231,1.48907 4.45263,3.09294 5.42648,5.83938 0.5817,2.55068 0.33719,5.12802 0.14745,7.72079 -0.23549,2.62104 -0.73355,5.19082 -1.13633,7.78816 -0.428,2.38904 -1.19558,4.6977 -1.91574,7.01081 -0.91445,2.23828 -2.16503,4.31663 -2.95024,6.60911 -1.21706,2.31835 -2.69299,4.27505 -4.91919,5.74768 -3.25324,2.35251 -6.80973,4.53528 -10.77509,5.38819 -2.34767,0.33599 -4.70235,0.27856 -7.06908,0.18919 -2.55575,-0.12351 -5.11536,-0.33104 -7.59435,-1.00845 -2.58927,-0.68106 -5.14793,-1.3756 -7.53814,-2.61491 -2.31762,-1.16882 -4.53608,-2.38947 -5.97093,-4.64414 -1.34715,-2.15053 -2.78311,-4.31882 -3.32531,-6.83594 -0.33959,-2.41791 -0.34519,-4.84205 -0.0372,-7.2686 0.37259,-2.64929 0.91828,-5.30823 2.5416,-7.50743 2.41128,-3.70281 4.08796,-5.24938 8.32671,-7.34846 1.06159,-0.57696 8.46688,-4.14053 2.54918,-0.95697 1.41598,-0.82306 2.8288,-1.65158 4.24794,-2.46918 0.75701,-0.43614 -3.02325,1.75268 -2.26155,1.32476 2.50288,-1.40609 4.90648,-2.91614 7.56864,-3.99616 2.45248,-1.04301 4.92331,-2.04277 7.36656,-3.10505 0,0 -2.99161,2.39301 -2.99161,2.39301 z"
       inkscape:connector-curvature="0" />
    <path
       style="fill:#008000;stroke:none"
       id="path3897"
       d="m 708.02004,282.98275 c -2.50621,0.76321 -4.96509,1.67641 -7.4687,2.45023 -2.98794,0.90634 -5.83272,2.20748 -8.61337,3.61358 -0.44497,0.25271 -1.79333,0.98549 -1.33489,0.75814 0.66868,-0.3316 1.25139,-0.8567 1.96627,-1.07126 0.4714,-0.14148 -0.81401,0.55383 -1.2111,0.84462 -1.12367,0.82287 -2.22376,1.67966 -3.29253,2.57196 -1.96719,1.7142 -3.76445,3.61492 -4.96726,5.94252 -0.84372,2.25232 -1.37248,4.61636 -1.74902,6.98891 -0.42902,2.37895 0.95575,4.45387 2.47325,6.15767 2.5037,2.18356 5.24567,3.99317 8.27645,5.34645 2.6917,1.41841 5.66858,1.91206 8.60233,2.53665 2.54898,0.53657 5.14048,0.79509 7.73776,0.93432 2.46029,0.20765 4.75131,0.14707 7.00172,-0.92312 -0.67967,0.37358 -1.29944,0.88724 -2.03903,1.12075 -0.46328,0.14627 0.80467,-0.54648 1.18352,-0.85063 0.35666,-0.28635 0.69082,-0.60029 1.01968,-0.91818 0.91246,-0.88204 1.77593,-1.81659 2.68975,-2.69907 1.71291,-1.62613 2.86846,-3.65132 3.76812,-5.81143 0.73457,-1.94054 0.88992,-4.00641 0.97359,-6.05891 0.0483,-1.93972 0.0273,-3.88034 0.0185,-5.82042 0.23673,-2.11544 -0.36634,-3.86287 -1.26763,-5.72849 -0.97745,-2.00708 -2.44689,-3.59572 -4.35029,-4.73792 -1.78719,-0.68315 -3.48621,-1.56751 -5.26489,-2.26529 0,0 3.17907,-2.1291 3.17907,-2.1291 l 0,0 c 1.78202,0.73245 3.51873,1.57306 5.29329,2.3245 1.93124,1.2206 3.45024,2.8582 4.46123,4.92409 0.92493,1.90905 1.60026,3.70504 1.35319,5.87584 0.009,1.94511 0.0294,3.89063 -0.012,5.8355 -0.0752,2.08958 -0.21519,4.19425 -0.92386,6.18207 -0.8716,2.20237 -2.00378,4.28312 -3.7068,5.95918 -2.93195,2.8012 -5.36305,5.63187 -9.35458,7.15787 -2.30823,0.9507 -4.64917,0.99897 -7.11994,0.78606 -2.60626,-0.15982 -5.2039,-0.44652 -7.76171,-0.98714 -2.95545,-0.61215 -5.92352,-1.20476 -8.62989,-2.61793 -3.05787,-1.4043 -5.86007,-3.23928 -8.38898,-5.46514 -1.55795,-1.78443 -3.04048,-3.97934 -2.63174,-6.45169 0.36763,-2.40693 0.90447,-4.7917 1.70051,-7.09415 1.13293,-2.39969 2.94397,-4.33091 4.91313,-6.08772 3.14681,-2.72957 6.65279,-4.98313 10.35558,-6.8987 2.7963,-1.39418 5.66112,-2.66712 8.65793,-3.57107 2.50473,-0.80168 4.98407,-1.67946 7.49038,-2.47525 0,0 -3.02705,2.3517 -3.02705,2.3517 z"
       inkscape:connector-curvature="0" />
    <path
       style="fill:#008000;stroke:none"
       id="path3899"
       d="m 451.59953,115.56752 c -1.84195,-1.81232 -4.10316,-2.94085 -6.56153,-3.64011 -2.19549,-0.59228 -4.36491,-0.48997 -6.54873,0.0571 -2.2206,0.47805 -4.39846,1.1467 -6.50998,1.98408 -1.54678,0.38738 -2.93333,1.1273 -4.30526,1.91034 -0.3539,0.20199 -1.42124,0.79794 -1.06781,0.59513 0.73535,-0.42197 1.47574,-0.8351 2.21362,-1.25264 -2.54744,1.33068 -4.6001,3.34142 -6.76796,5.18709 -2.13174,1.82191 -3.54538,4.17354 -4.4909,6.78109 -0.57531,2.25866 -1.02004,4.55751 -1.35847,6.86466 -0.37258,2.05844 -0.03,3.89324 1.66841,5.19033 2.07589,1.04875 4.3972,1.23877 6.61602,1.79244 1.8318,0.62865 3.77567,0.69968 5.65116,1.1002 2.09554,0.51844 4.2506,0.70255 6.3994,0.82763 2.01933,0.095 4.04145,0.0939 6.0625,0.0954 2.34981,0.0242 4.64915,-0.8071 6.77926,-1.73665 0.99612,-0.39915 5.18499,-2.50658 0.26336,0.0941 -0.41258,0.21801 0.80376,-0.47454 1.19931,-0.72212 1.14674,-0.71779 1.28446,-0.83887 2.39022,-1.6216 2.0863,-1.43351 3.69189,-3.33494 4.71833,-5.63785 0.74627,-2.4068 1.08448,-4.93227 0.57969,-7.41212 -0.71151,-2.24192 -2.04918,-4.12251 -3.53185,-5.91075 -1.02445,-1.1783 -1.97122,-2.38733 -3.15635,-3.40903 0,0 3.242,-2.0159 3.242,-2.0159 l 0,0 c 1.17991,1.05285 2.14271,2.27528 3.17906,3.46605 1.5218,1.83776 2.88516,3.77221 3.62518,6.07058 0.54547,2.54879 0.22757,5.11992 -0.47587,7.61846 -0.95366,2.37347 -2.5537,4.35325 -4.64915,5.83546 -3.23357,2.33929 -6.68914,4.43735 -10.36633,5.99972 -2.18395,0.89723 -4.49711,1.69928 -6.88812,1.62699 -2.02426,-0.004 -4.04977,-0.007 -6.07167,-0.11724 -2.16189,-0.14136 -4.32455,-0.35425 -6.43506,-0.86618 -1.88789,-0.35413 -3.81563,-0.51013 -5.65287,-1.11786 -2.26875,-0.53726 -4.6389,-0.77411 -6.71735,-1.92391 -1.72955,-1.42741 -2.24577,-3.3432 -1.85032,-5.54446 0.33206,-2.33011 0.79159,-4.64482 1.33088,-6.93412 0.91321,-2.65764 2.29127,-5.0814 4.41769,-6.96776 2.17173,-1.8434 4.19959,-3.89216 6.73689,-5.24116 3.14017,-1.83296 6.21201,-3.90516 9.71773,-4.98078 2.13368,-0.79194 4.30511,-1.47356 6.53548,-1.93722 2.23461,-0.47992 4.44566,-0.54396 6.66395,0.10212 2.49634,0.76547 4.78175,1.96395 6.68004,3.78996 0,0 -3.2646,2.00055 -3.2646,2.00055 z"
       inkscape:connector-curvature="0" />
    <path
       style="fill:#008000;stroke:none"
       id="path3901"
       d="m 288.87675,266.11342 c -2.71819,-0.39784 -5.45805,-0.60867 -8.20067,-0.73669 -2.74406,-0.14349 -5.46596,-0.15521 -8.19183,0.18694 -1.19176,0.30474 -2.42734,0.50124 -3.55613,1.01548 -0.33219,0.15134 -1.27908,0.70394 -0.95485,0.53624 2.54097,-1.3142 3.13479,-1.89255 1.51057,-0.56416 -2.04536,1.78332 -3.73493,3.92398 -5.3889,6.06308 -1.70125,2.16656 -3.18535,4.49502 -4.50557,6.91025 -1.05823,2.03516 -1.28571,4.32067 -1.43143,6.57212 -0.24733,3.39588 1.68734,6.37751 3.53702,9.05904 1.92874,2.71757 4.38479,4.98205 6.58226,7.46699 1.9319,2.64494 3.63657,3.30098 6.59432,4.3883 2.30327,0.87435 4.71798,1.26915 7.16271,1.43799 3.26247,0.1699 6.48888,-0.53112 9.68944,-1.06979 3.01796,-0.23024 5.66924,-1.4273 8.28927,-2.8312 -0.75044,0.45367 2.8865,-1.46778 2.16823,-1.09428 -0.7469,0.38839 -1.42781,0.94124 -2.23775,1.17084 -0.41501,0.11765 0.68235,-0.52942 1.00095,-0.82024 0.84157,-0.76819 0.90041,-0.92788 1.57158,-1.81514 1.38457,-1.89777 2.2873,-4.03194 3.02077,-6.24475 0.83631,-2.45983 1.15728,-5.02558 1.33584,-7.60337 0.32585,-2.4253 0.69424,-4.84158 0.89782,-7.28122 0.12811,-2.00245 -0.85033,-3.49606 -1.86589,-5.11208 -1.00145,-2.33699 -3.07375,-3.52734 -5.19637,-4.72549 -1.94482,-1.30143 -4.00698,-2.36353 -6.11518,-3.36229 -1.25394,-0.52359 -0.62293,-0.28595 -1.89232,-0.7148 0,0 3.16303,-2.14046 3.16303,-2.14046 l 0,0 c 1.28454,0.45717 0.64667,0.20754 1.91312,0.75016 2.11593,0.99613 4.15667,2.11059 6.11365,3.39822 2.16273,1.24384 4.28847,2.48071 5.31288,4.87333 1.05914,1.68118 2.08431,3.2471 1.98013,5.32957 -0.19844,2.4401 -0.55797,4.85749 -0.90718,7.2797 -0.17256,2.60425 -0.4682,5.1996 -1.29807,7.68999 -0.72261,2.24405 -1.58024,4.4159 -2.9648,6.35079 -2.18956,3.11144 -5.57131,4.85284 -8.96368,6.45424 -2.63372,1.39255 -5.34284,2.46866 -8.34929,2.72265 -3.22523,0.53824 -6.47938,1.22088 -9.76624,1.01307 -2.4649,-0.19527 -4.89156,-0.64077 -7.20871,-1.53534 -2.99915,-1.10958 -4.75072,-1.88113 -6.69987,-4.54371 -2.19964,-2.50037 -4.65462,-4.78486 -6.57981,-7.52118 -1.88233,-2.73756 -3.89305,-5.7985 -3.69775,-9.2587 0.13672,-2.29173 0.34043,-4.63079 1.36574,-6.72363 1.30251,-2.44228 2.80082,-4.78378 4.49709,-6.97221 1.63598,-2.15907 3.32895,-4.30342 5.3374,-6.13124 2.77721,-2.40768 5.98309,-4.08879 9.58606,-4.68918 2.73791,-0.31638 5.47564,-0.26392 8.22718,-0.13351 2.75725,0.13827 5.50811,0.37781 8.24442,0.74933 0,0 -3.12919,2.20634 -3.12919,2.20634 z"
       inkscape:connector-curvature="0" />
    <path
       style="fill:#008000;stroke:none"
       id="path3903"
       d="m 126.33338,265.28376 c -3.12537,-0.0185 -6.25082,-0.0145 -9.37623,-0.0106 -2.34856,0.004 -4.69711,0.006 -7.04567,0.008 -0.97489,-0.0223 -2.00653,0.008 -2.9102,0.43376 -0.33281,0.1569 -1.27238,0.73251 -0.93363,0.58888 2.2435,-0.95126 3.08651,-1.94582 1.43194,-0.32383 -1.79609,1.85319 -3.08824,4.07028 -4.10042,6.42714 -0.85828,2.1915 -1.45497,4.42559 -1.76319,6.75612 -0.25447,2.81001 -0.35256,5.63739 -0.18975,8.45416 0.33102,3.71437 2.19512,7.00697 3.50652,10.43393 0.93809,2.53823 1.75459,3.63827 3.80205,5.33387 1.99613,1.60347 4.45456,1.8923 6.91686,2.11261 2.97559,0.41591 5.67318,-0.11994 8.38342,-1.32481 0.42949,-0.23996 1.72916,-0.93856 1.28846,-0.71988 -0.68407,0.33946 -1.28175,0.88386 -2.01913,1.08245 -0.46427,0.12505 0.78323,-0.55831 1.16385,-0.85209 1.0841,-0.83677 1.99993,-1.76266 2.9225,-2.76888 1.58647,-1.74748 3.23594,-3.41151 4.54797,-5.38234 1.36714,-2.2608 2.30537,-4.76016 2.96405,-7.31081 0.7596,-3.01919 0.5725,-5.99332 -0.33034,-8.9405 -0.92524,-2.30975 -2.58287,-4.2073 -3.92607,-6.27655 -1.32049,-1.87982 -2.4272,-3.90885 -3.9385,-5.64566 0,0 3.26612,-1.96855 3.26612,-1.96855 l 0,0 c 1.50764,1.76256 2.64015,3.79215 3.96315,5.69173 1.3585,2.10112 3.03569,4.02734 3.97054,6.37214 0.92874,2.99951 1.14745,6.04076 0.42087,9.12616 -0.62406,2.58763 -1.57144,5.10967 -2.90216,7.42097 -1.27607,2.01599 -2.91386,3.69608 -4.52778,5.43982 -2.74511,3.07493 -6.07064,5.33568 -9.8407,7.08524 -2.75808,1.14343 -5.5132,1.59539 -8.50016,1.17518 -2.53016,-0.25169 -5.02669,-0.62043 -7.05453,-2.29459 -2.02028,-1.68181 -3.00165,-2.99515 -3.88529,-5.51259 -1.29835,-3.47121 -3.167083,-6.79632 -3.553429,-10.53599 -0.209634,-2.83426 -0.08343,-5.67793 0.139501,-8.50992 0.281842,-2.36482 0.858997,-4.62469 1.716591,-6.84902 0.986197,-2.39578 2.263177,-4.65494 4.041497,-6.55814 2.34207,-2.48681 5.54328,-4.51082 9.01872,-4.40455 2.34167,0.001 4.68334,0.004 7.02501,0.008 3.13516,0.004 6.27035,0.008 9.40548,-0.0106 0,0 -3.09792,2.25076 -3.09792,2.25076 z"
       inkscape:connector-curvature="0" />
  </g>
</svg>
